Pilowlava-Atome.ufo
<glyph name="exclam" format="2">
  <advance width="361"/>
  <unicode hex="0021"/>
  <outline>
    <contour>
      <point x="174" y="283" type="curve" smooth="yes"/>
      <point x="319" y="578" type="line" smooth="yes"/>
      <point x="358" y="657"/>
      <point x="352" y="775"/>
      <point x="247" y="775" type="curve" smooth="yes"/>
      <point x="129" y="775"/>
      <point x="107" y="688"/>
      <point x="110" y="592" type="curve" smooth="yes"/>
      <point x="121" y="289" type="line" smooth="yes"/>
      <point x="122" y="267"/>
      <point x="131" y="258"/>
      <point x="143" y="257" type="curve" smooth="yes"/>
      <point x="153" y="256"/>
      <point x="164" y="262"/>
    </contour>
    <component base="period" xScale="0.915" xyScale="0.4035" yScale="0.915" yxScale="-0.4035" xOffset="32" yOffset="-52"/>
    <component base="module" xScale="-1" xOffset="386" yOffset="536"/>
  </outline>
</glyph>
<glyph name="parenleft" format="2">
  <advance width="377"/>
  <unicode hex="0028"/>
  <outline>
    <contour>
      <point x="108" y="374" type="curve"/>
      <point x="70" y="374" type="line"/>
      <point x="70" y="245"/>
      <point x="105" y="111"/>
      <point x="185" y="-22" type="curve" smooth="yes"/>
      <point x="230" y="-97"/>
      <point x="273" y="-117"/>
      <point x="315" y="-98" type="curve" smooth="yes"/>
      <point x="359" y="-78"/>
      <point x="375" y="-22"/>
      <point x="330" y="31" type="curve" smooth="yes"/>
      <point x="225" y="152" type="line" smooth="yes"/>
      <point x="157" y="232"/>
      <point x="107" y="303"/>
    </contour>
    <contour>
      <point x="108" y="374" type="line"/>
      <point x="107" y="445"/>
      <point x="157" y="516"/>
      <point x="225" y="596" type="curve" smooth="yes"/>
      <point x="330" y="717" type="line" smooth="yes"/>
      <point x="375" y="770"/>
      <point x="359" y="826"/>
      <point x="315" y="846" type="curve" smooth="yes"/>
      <point x="273" y="865"/>
      <point x="230" y="845"/>
      <point x="185" y="770" type="curve" smooth="yes"/>
      <point x="105" y="637"/>
      <point x="70" y="503"/>
      <point x="70" y="374" type="curve"/>
    </contour>
  </outline>
</glyph>
<glyph name="comma" format="2">
  <advance width="288"/>
  <unicode hex="002C"/>
  <outline>
    <contour>
      <point x="20" y="-99" type="line" smooth="yes"/>
      <point x="15" y="-125"/>
      <point x="39" y="-136"/>
      <point x="55" y="-124" type="curve" smooth="yes"/>
      <point x="225" y="2" type="line" smooth="yes"/>
      <point x="237" y="11"/>
      <point x="248" y="23"/>
      <point x="253" y="42" type="curve" smooth="yes"/>
      <point x="263" y="78"/>
      <point x="253" y="124"/>
      <point x="194" y="145" type="curve" smooth="yes"/>
      <point x="138" y="165"/>
      <point x="69" y="162"/>
      <point x="56" y="92" type="curve" smooth="yes"/>
    </contour>
  </outline>
</glyph>
<glyph name="period" format="2">
  <advance width="282"/>
  <unicode hex="002E"/>
  <outline>
    <contour>
      <point x="259" y="141"/>
      <point x="186" y="160"/>
      <point x="120" y="160" type="curve" smooth="yes"/>
      <point x="51" y="160"/>
      <point x="34" y="127"/>
      <point x="30" y="85" type="curve" smooth="yes"/>
      <point x="23" y="9"/>
      <point x="108" y="-14"/>
      <point x="174" y="-14" type="curve" smooth="yes"/>
      <point x="213" y="-14"/>
      <point x="248" y="6"/>
      <point x="252" y="61" type="curve" smooth="yes"/>
    </contour>
  </outline>
</glyph>
<glyph name="slash" format="2">
  <advance width="424"/>
  <unicode hex="002F"/>
  <outline>
    <contour>
      <point x="50" y="3" type="curve" smooth="yes"/>
      <point x="401" y="666" type="line" smooth="yes"/>
      <point x="429" y="719"/>
      <point x="420" y="761"/>
      <point x="370" y="773" type="curve" smooth="yes"/>
      <point x="334" y="782"/>
      <point x="304" y="767"/>
      <point x="278" y="699" type="curve" smooth="yes"/>
      <point x="13" y="18" type="line" smooth="yes"/>
      <point x="-1" y="-17"/>
      <point x="33" y="-29"/>
    </contour>
  </outline>
</glyph>
<glyph name="two" format="2">
  <advance width="833"/>
  <unicode hex="0032"/>
  <outline>
    <contour>
      <point x="736" y="515" type="curve" smooth="yes"/>
      <point x="736" y="684"/>
      <point x="696" y="774"/>
      <point x="460" y="774" type="curve" smooth="yes"/>
      <point x="270" y="774"/>
      <point x="65" y="644"/>
      <point x="65" y="547" type="curve" smooth="yes"/>
      <point x="65" y="477"/>
      <point x="139" y="440"/>
      <point x="215" y="510" type="curve" smooth="yes"/>
      <point x="416" y="693" type="line" smooth="yes"/>
      <point x="455" y="728"/>
      <point x="526" y="730"/>
      <point x="577" y="710" type="curve" smooth="yes"/>
      <point x="637" y="687"/>
      <point x="662" y="655"/>
      <point x="616" y="624" type="curve" smooth="yes"/>
      <point x="183" y="331" type="line" smooth="yes"/>
      <point x="115" y="285"/>
      <point x="71" y="243"/>
      <point x="71" y="151" type="curve" smooth="yes"/>
      <point x="71" y="59"/>
      <point x="153" y="0"/>
      <point x="269" y="0" type="curve" smooth="yes"/>
      <point x="487" y="0" type="line" smooth="yes"/>
      <point x="610" y="0"/>
      <point x="768" y="64"/>
      <point x="768" y="231" type="curve" smooth="yes"/>
      <point x="768" y="287"/>
      <point x="747" y="326"/>
      <point x="700" y="326" type="curve" smooth="yes"/>
      <point x="669" y="326"/>
      <point x="621" y="296"/>
      <point x="665" y="231" type="curve" smooth="yes"/>
      <point x="700" y="179" type="line" smooth="yes"/>
      <point x="723" y="145"/>
      <point x="699" y="96"/>
      <point x="632" y="108" type="curve" smooth="yes"/>
      <point x="227" y="183" type="line" smooth="yes"/>
      <point x="164" y="195"/>
      <point x="149" y="250"/>
      <point x="214" y="299" type="curve" smooth="yes"/>
      <point x="283" y="351"/>
      <point x="343" y="371"/>
      <point x="430" y="351" type="curve" smooth="yes"/>
      <point x="538" y="326" type="line" smooth="yes"/>
      <point x="662" y="297"/>
      <point x="736" y="392"/>
    </contour>
    <component base="module" xOffset="463" yOffset="316"/>
    <component base="module" yOffset="457"/>
    <component base="module" xOffset="32" yOffset="-6"/>
  </outline>
</glyph>
<glyph name="four" format="2">
  <advance width="807"/>
  <unicode hex="0034"/>
  <outline>
    <contour>
      <point x="652" y="-15" type="curve" smooth="yes"/>
      <point x="743" y="-15"/>
      <point x="777" y="37"/>
      <point x="777" y="102" type="curve" smooth="yes"/>
      <point x="777" y="132"/>
      <point x="770" y="165"/>
      <point x="758" y="197" type="curve" smooth="yes"/>
      <point x="707" y="334" type="line" smooth="yes"/>
      <point x="684" y="397"/>
      <point x="628" y="426"/>
      <point x="569" y="399" type="curve" smooth="yes"/>
      <point x="231" y="242" type="line" smooth="yes"/>
      <point x="222" y="238"/>
      <point x="214" y="236"/>
      <point x="207" y="236" type="curve" smooth="yes"/>
      <point x="190" y="236"/>
      <point x="178" y="247"/>
      <point x="178" y="263" type="curve" smooth="yes"/>
      <point x="178" y="277"/>
      <point x="187" y="294"/>
      <point x="209" y="309" type="curve" smooth="yes"/>
      <point x="577" y="566" type="line" smooth="yes"/>
      <point x="611" y="590"/>
      <point x="628" y="624"/>
      <point x="628" y="658" type="curve" smooth="yes"/>
      <point x="628" y="727"/>
      <point x="575" y="775"/>
      <point x="510" y="775" type="curve" smooth="yes"/>
      <point x="448" y="775"/>
      <point x="382" y="726"/>
      <point x="341" y="653" type="curve" smooth="yes"/>
      <point x="58" y="147" type="line" smooth="yes"/>
      <point x="39" y="112"/>
      <point x="30" y="82"/>
      <point x="30" y="57" type="curve" smooth="yes"/>
      <point x="30" y="12"/>
      <point x="59" y="-15"/>
      <point x="103" y="-15" type="curve" smooth="yes"/>
      <point x="132" y="-15"/>
      <point x="184" y="4"/>
      <point x="222" y="36" type="curve" smooth="yes"/>
      <point x="557" y="322" type="line" smooth="yes"/>
      <point x="592" y="352"/>
      <point x="609" y="369"/>
      <point x="626" y="360" type="curve" smooth="yes"/>
      <point x="649" y="348"/>
      <point x="634" y="320"/>
      <point x="617" y="278" type="curve" smooth="yes"/>
      <point x="569" y="159" type="line" smooth="yes"/>
      <point x="563" y="144"/>
      <point x="557" y="116"/>
      <point x="557" y="87" type="curve" smooth="yes"/>
      <point x="557" y="38"/>
      <point x="576" y="-15"/>
    </contour>
    <component base="module" xOffset="-14" yOffset="2"/>
    <component base="module" xOffset="491" yOffset="3"/>
    <component base="module" xOffset="328" yOffset="540"/>
  </outline>
</glyph>
<glyph name="eight" format="2">
  <advance width="829"/>
  <unicode hex="0038"/>
  <outline>
    <contour>
      <point x="87" y="606" type="curve" smooth="yes"/>
      <point x="87" y="517"/>
      <point x="147" y="470"/>
      <point x="314" y="428" type="curve" smooth="yes"/>
      <point x="330" y="424"/>
      <point x="340" y="413"/>
      <point x="340" y="400" type="curve" smooth="yes"/>
      <point x="340" y="387"/>
      <point x="332" y="376"/>
      <point x="309" y="374" type="curve" smooth="yes"/>
      <point x="199" y="365" type="line" smooth="yes"/>
      <point x="83" y="356"/>
      <point x="50" y="289"/>
      <point x="50" y="192" type="curve" smooth="yes"/>
      <point x="50" y="21"/>
      <point x="235" y="-13"/>
      <point x="459" y="-15" type="curve" smooth="yes"/>
      <point x="648" y="-15"/>
      <point x="779" y="51"/>
      <point x="779" y="177" type="curve" smooth="yes"/>
      <point x="779" y="313"/>
      <point x="724" y="370"/>
      <point x="609" y="374" type="curve" smooth="yes"/>
      <point x="527" y="377" type="line" smooth="yes"/>
      <point x="505" y="378"/>
      <point x="497" y="386"/>
      <point x="495" y="395" type="curve" smooth="yes"/>
      <point x="492" y="407"/>
      <point x="498" y="415"/>
      <point x="511" y="421" type="curve" smooth="yes"/>
      <point x="677" y="497" type="line" smooth="yes"/>
      <point x="749" y="530"/>
      <point x="770" y="549"/>
      <point x="770" y="607" type="curve" smooth="yes"/>
      <point x="770" y="710"/>
      <point x="668" y="773"/>
      <point x="370" y="775" type="curve" smooth="yes"/>
      <point x="149" y="775"/>
      <point x="87" y="672"/>
    </contour>
    <contour>
      <point x="493" y="330" type="curve" smooth="yes"/>
      <point x="700" y="186" type="line" smooth="yes"/>
      <point x="730" y="165"/>
      <point x="725" y="132"/>
      <point x="685" y="132" type="curve" smooth="yes"/>
      <point x="166" y="129" type="line" smooth="yes"/>
      <point x="123" y="129"/>
      <point x="120" y="167"/>
      <point x="149" y="188" type="curve" smooth="yes"/>
      <point x="348" y="330" type="line" smooth="yes"/>
      <point x="406" y="371"/>
      <point x="438" y="368"/>
    </contour>
    <contour>
      <point x="364" y="463" type="curve" smooth="yes"/>
      <point x="268" y="670" type="line" smooth="yes"/>
      <point x="242" y="725"/>
      <point x="291" y="752"/>
      <point x="353" y="722" type="curve" smooth="yes"/>
      <point x="597" y="604" type="line" smooth="yes"/>
      <point x="634" y="586"/>
      <point x="631" y="560"/>
      <point x="601" y="539" type="curve" smooth="yes"/>
      <point x="468" y="445" type="line" smooth="yes"/>
      <point x="429" y="417"/>
      <point x="385" y="417"/>
    </contour>
    <component base="module" xOffset="343" yOffset="-50"/>
    <component base="module" xOffset="-4" yOffset="171"/>
    <component base="module" xOffset="29" yOffset="478"/>
    <component base="module" xOffset="495" yOffset="548"/>
  </outline>
</glyph>
<glyph name="question" format="2">
  <advance width="674"/>
  <unicode hex="003F"/>
  <outline>
    <contour>
      <point x="215" y="272" type="line"/>
      <point x="208" y="264"/>
      <point x="205" y="254"/>
      <point x="205" y="246" type="curve" smooth="yes"/>
      <point x="205" y="231"/>
      <point x="215" y="218"/>
      <point x="231" y="218" type="curve" smooth="yes"/>
      <point x="236" y="218"/>
      <point x="242" y="219"/>
      <point x="248" y="223" type="curve" smooth="yes"/>
      <point x="479" y="360" type="line" smooth="yes"/>
      <point x="586" y="423"/>
      <point x="654" y="472"/>
      <point x="654" y="576" type="curve" smooth="yes"/>
      <point x="654" y="722"/>
      <point x="510" y="777"/>
      <point x="357" y="777" type="curve" smooth="yes"/>
      <point x="173" y="777"/>
      <point x="20" y="725"/>
      <point x="30" y="599" type="curve" smooth="yes"/>
      <point x="35" y="534"/>
      <point x="69" y="518"/>
      <point x="109" y="518" type="curve" smooth="yes"/>
      <point x="136" y="518"/>
      <point x="173" y="529"/>
      <point x="206" y="550" type="curve" smooth="yes"/>
      <point x="421" y="686" type="line" smooth="yes"/>
      <point x="442" y="699"/>
      <point x="463" y="708"/>
      <point x="481" y="708" type="curve" smooth="yes"/>
      <point x="507" y="708"/>
      <point x="526" y="695"/>
      <point x="526" y="671" type="curve" smooth="yes"/>
      <point x="526" y="653"/>
      <point x="516" y="629"/>
      <point x="489" y="601" type="curve"/>
    </contour>
    <component base="period" xOffset="161" yOffset="-7"/>
    <component base="module" xOffset="7" yOffset="540"/>
    <component base="module" xOffset="351" yOffset="387"/>
  </outline>
</glyph>
<glyph name="B" format="2">
  <advance width="864"/>
  <unicode hex="0042"/>
  <unicode hex="0062"/>
  <outline>
    <contour>
      <point x="660" y="480" type="line" smooth="yes"/>
      <point x="739" y="476"/>
      <point x="818" y="531"/>
      <point x="818" y="621" type="curve" smooth="yes"/>
      <point x="818" y="726"/>
      <point x="738" y="760"/>
      <point x="550" y="760" type="curve" smooth="yes"/>
      <point x="424" y="760" type="line" smooth="yes"/>
      <point x="189" y="760"/>
      <point x="45" y="621"/>
      <point x="45" y="376" type="curve" smooth="yes"/>
      <point x="45" y="151"/>
      <point x="188" y="-15"/>
      <point x="492" y="-15" type="curve" smooth="yes"/>
      <point x="687" y="-15"/>
      <point x="824" y="86"/>
      <point x="824" y="236" type="curve" smooth="yes"/>
      <point x="824" y="299"/>
      <point x="799" y="378"/>
      <point x="667" y="399" type="curve" smooth="yes"/>
      <point x="558" y="416" type="line" smooth="yes"/>
      <point x="539" y="419"/>
      <point x="530" y="435"/>
      <point x="530" y="449" type="curve" smooth="yes"/>
      <point x="530" y="467"/>
      <point x="546" y="485"/>
      <point x="576" y="484" type="curve" smooth="yes"/>
    </contour>
    <contour>
      <point x="253" y="163" type="line" smooth="yes"/>
      <point x="191" y="163"/>
      <point x="150" y="190"/>
      <point x="133" y="233" type="curve" smooth="yes"/>
      <point x="119" y="268"/>
      <point x="121" y="311"/>
      <point x="149" y="350" type="curve" smooth="yes"/>
      <point x="352" y="626" type="line" smooth="yes"/>
      <point x="434" y="737"/>
      <point x="534" y="734"/>
      <point x="581" y="678" type="curve" smooth="yes"/>
      <point x="621" y="630"/>
      <point x="623" y="561"/>
      <point x="536" y="509" type="curve" smooth="yes"/>
      <point x="233" y="329" type="line" smooth="yes"/>
      <point x="203" y="311"/>
      <point x="193" y="292"/>
      <point x="201" y="266" type="curve" smooth="yes"/>
      <point x="207" y="247"/>
      <point x="230" y="235"/>
      <point x="267" y="242" type="curve" smooth="yes"/>
      <point x="628" y="314" type="line" smooth="yes"/>
      <point x="712" y="331"/>
      <point x="761" y="305"/>
      <point x="761" y="244" type="curve" smooth="yes"/>
      <point x="761" y="204"/>
      <point x="722" y="167"/>
      <point x="649" y="166" type="curve" smooth="yes"/>
    </contour>
    <component base="module" xOffset="315" yOffset="-35"/>
    <component base="module" xOffset="24" yOffset="458"/>
    <component base="module" xOffset="531" yOffset="503"/>
    <component base="module" xOffset="234" yOffset="233"/>
  </outline>
</glyph>
<glyph name="C" format="2">
  <advance width="840"/>
  <unicode hex="0043"/>
  <unicode hex="0063"/>
  <anchor x="403" y="0" name="bottom"/>
  <anchor x="451" y="760" name="top"/>
  <outline>
    <contour>
      <point x="405" y="-15" type="curve" smooth="yes"/>
      <point x="595" y="-15"/>
      <point x="770" y="113"/>
      <point x="770" y="201" type="curve" smooth="yes"/>
      <point x="770" y="274"/>
      <point x="674" y="327"/>
      <point x="596" y="236" type="curve" smooth="yes"/>
      <point x="449" y="64" type="line" smooth="yes"/>
      <point x="358" y="-42"/>
      <point x="183" y="123"/>
      <point x="323" y="197" type="curve" smooth="yes"/>
      <point x="378" y="226" type="line" smooth="yes"/>
      <point x="462" y="271"/>
      <point x="433" y="359"/>
      <point x="362" y="379" type="curve" smooth="yes"/>
      <point x="182" y="429" type="line" smooth="yes"/>
      <point x="140" y="441"/>
      <point x="142" y="477"/>
      <point x="181" y="501" type="curve" smooth="yes"/>
      <point x="504" y="697" type="line" smooth="yes"/>
      <point x="550" y="725"/>
      <point x="575" y="695"/>
      <point x="567" y="650" type="curve" smooth="yes"/>
      <point x="550" y="555" type="line" smooth="yes"/>
      <point x="540" y="498"/>
      <point x="540" y="411"/>
      <point x="624" y="402" type="curve" smooth="yes"/>
      <point x="726" y="391"/>
      <point x="756" y="456"/>
      <point x="756" y="526" type="curve" smooth="yes"/>
      <point x="756" y="656"/>
      <point x="643" y="775"/>
      <point x="451" y="775" type="curve" smooth="yes"/>
      <point x="221" y="775"/>
      <point x="60" y="604"/>
      <point x="60" y="366" type="curve" smooth="yes"/>
      <point x="60" y="152"/>
      <point x="169" y="-15"/>
    </contour>
    <component base="module" xOffset="114" yOffset="172"/>
    <component base="module" xOffset="148" yOffset="551"/>
    <component base="module" xOffset="505" yOffset="79"/>
    <component base="module" xOffset="482" yOffset="391"/>
  </outline>
</glyph>
<glyph name="D" format="2">
  <advance width="865"/>
  <unicode hex="0044"/>
  <unicode hex="0064"/>
  <anchor x="433" y="760" name="top"/>
  <outline>
    <contour>
      <point x="503" y="760" type="curve" smooth="yes"/>
      <point x="156" y="760" type="line" smooth="yes"/>
      <point x="90" y="760"/>
      <point x="55" y="707"/>
      <point x="55" y="655" type="curve" smooth="yes"/>
      <point x="55" y="609"/>
      <point x="81" y="571"/>
      <point x="137" y="561" type="curve" smooth="yes"/>
      <point x="182" y="553"/>
      <point x="197" y="538"/>
      <point x="180" y="503" type="curve" smooth="yes"/>
      <point x="143" y="428" type="line" smooth="yes"/>
      <point x="44" y="227"/>
      <point x="96" y="-13"/>
      <point x="354" y="-14" type="curve" smooth="yes"/>
      <point x="659" y="-15"/>
      <point x="805" y="118"/>
      <point x="805" y="375" type="curve" smooth="yes"/>
      <point x="805" y="620"/>
      <point x="720" y="760"/>
    </contour>
    <contour>
      <point x="676" y="514" type="curve" smooth="yes"/>
      <point x="503" y="97" type="line" smooth="yes"/>
      <point x="472" y="23"/>
      <point x="361" y="4"/>
      <point x="332" y="107" type="curve" smooth="yes"/>
      <point x="229" y="469" type="line" smooth="yes"/>
      <point x="210" y="537"/>
      <point x="239" y="582"/>
      <point x="324" y="598" type="curve" smooth="yes"/>
      <point x="574" y="646" type="line" smooth="yes"/>
      <point x="650" y="661"/>
      <point x="716" y="611"/>
    </contour>
    <component base="module" xOffset="10" yOffset="572"/>
    <component base="module" xOffset="43" yOffset="58"/>
    <component base="module" xOffset="532" yOffset="126"/>
  </outline>
</glyph>
<glyph name="F" format="2">
  <advance width="756"/>
  <unicode hex="0046"/>
  <unicode hex="0066"/>
  <outline>
    <contour>
      <point x="233" y="588" type="line" smooth="yes"/>
      <point x="197" y="611"/>
      <point x="193" y="639"/>
      <point x="204" y="663" type="curve" smooth="yes"/>
      <point x="217" y="688"/>
      <point x="248" y="708"/>
      <point x="310" y="680" type="curve" smooth="yes"/>
      <point x="491" y="598" type="line" smooth="yes"/>
      <point x="539" y="576"/>
      <point x="615" y="540"/>
      <point x="650" y="540" type="curve" smooth="yes"/>
      <point x="709" y="540"/>
      <point x="756" y="568"/>
      <point x="756" y="654" type="curve" smooth="yes"/>
      <point x="756" y="728"/>
      <point x="694" y="760"/>
      <point x="627" y="760" type="curve" smooth="yes"/>
      <point x="279" y="760" type="line" smooth="yes"/>
      <point x="190" y="760"/>
      <point x="132" y="705"/>
      <point x="120" y="605" type="curve" smooth="yes"/>
      <point x="61" y="109" type="line" smooth="yes"/>
      <point x="52" y="31"/>
      <point x="94" y="-15"/>
      <point x="164" y="-15" type="curve" smooth="yes"/>
      <point x="259" y="-15"/>
      <point x="310" y="58"/>
      <point x="251" y="149" type="curve" smooth="yes"/>
      <point x="152" y="302" type="line" smooth="yes"/>
      <point x="117" y="355"/>
      <point x="150" y="411"/>
      <point x="212" y="388" type="curve" smooth="yes"/>
      <point x="486" y="270" type="line" smooth="yes"/>
      <point x="557" y="239"/>
      <point x="613" y="226"/>
      <point x="636" y="267" type="curve" smooth="yes"/>
      <point x="655" y="302"/>
      <point x="633" y="330"/>
      <point x="592" y="356" type="curve" smooth="yes"/>
    </contour>
    <component base="module" xOffset="-7" yOffset="-17"/>
    <component base="module" xOffset="486" yOffset="541"/>
    <component base="module" xOffset="312" yOffset="242"/>
  </outline>
</glyph>
<glyph name="H" format="2">
  <advance width="866"/>
  <unicode hex="0048"/>
  <unicode hex="0068"/>
  <outline>
    <contour>
      <point x="620" y="775"/>
      <point x="583" y="731"/>
      <point x="583" y="676" type="curve" smooth="yes"/>
      <point x="583" y="645"/>
      <point x="601" y="613"/>
      <point x="632" y="577" type="curve" smooth="yes"/>
      <point x="675" y="528" type="line" smooth="yes"/>
      <point x="694" y="507"/>
      <point x="714" y="495"/>
      <point x="707" y="462" type="curve" smooth="yes"/>
      <point x="701" y="433"/>
      <point x="679" y="423"/>
      <point x="638" y="423" type="curve" smooth="yes"/>
      <point x="213" y="423" type="line" smooth="yes"/>
      <point x="179" y="423"/>
      <point x="155" y="437"/>
      <point x="155" y="464" type="curve" smooth="yes"/>
      <point x="155" y="483"/>
      <point x="160" y="498"/>
      <point x="190" y="515" type="curve" smooth="yes"/>
      <point x="304" y="580" type="line" smooth="yes"/>
      <point x="339" y="600"/>
      <point x="364" y="638"/>
      <point x="364" y="683" type="curve" smooth="yes"/>
      <point x="364" y="737"/>
      <point x="325" y="775"/>
      <point x="257" y="775" type="curve" smooth="yes"/>
      <point x="150" y="775"/>
      <point x="122" y="680"/>
      <point x="114" y="608" type="curve" smooth="yes"/>
      <point x="61" y="115" type="line" smooth="yes"/>
      <point x="51" y="20"/>
      <point x="105" y="-15"/>
      <point x="162" y="-15" type="curve" smooth="yes"/>
      <point x="222" y="-15"/>
      <point x="280" y="30"/>
      <point x="280" y="88" type="curve" smooth="yes"/>
      <point x="280" y="120"/>
      <point x="263" y="156"/>
      <point x="231" y="191" type="curve" smooth="yes"/>
      <point x="206" y="218"/>
      <point x="179" y="236"/>
      <point x="179" y="260" type="curve" smooth="yes"/>
      <point x="179" y="275"/>
      <point x="187" y="286"/>
      <point x="231" y="295" type="curve" smooth="yes"/>
      <point x="611" y="370" type="line" smooth="yes"/>
      <point x="645" y="378"/>
      <point x="681" y="376"/>
      <point x="681" y="348" type="curve" smooth="yes"/>
      <point x="681" y="332"/>
      <point x="673" y="309"/>
      <point x="651" y="289" type="curve" smooth="yes"/>
      <point x="558" y="201" type="line" smooth="yes"/>
      <point x="511" y="157"/>
      <point x="503" y="120"/>
      <point x="503" y="88" type="curve" smooth="yes"/>
      <point x="503" y="37"/>
      <point x="539" y="-15"/>
      <point x="606" y="-15" type="curve" smooth="yes"/>
      <point x="713" y="-15"/>
      <point x="738" y="50"/>
      <point x="746" y="122" type="curve" smooth="yes"/>
      <point x="806" y="678" type="line" smooth="yes"/>
      <point x="812" y="738"/>
      <point x="758" y="775"/>
      <point x="701" y="775" type="curve" smooth="yes"/>
    </contour>
    <component base="module" xOffset="482" yOffset="46"/>
    <component base="module" xOffset="68" yOffset="584"/>
    <component base="module" xOffset="535" yOffset="564"/>
    <component base="module" xOffset="6" yOffset="-30"/>
  </outline>
</glyph>
<glyph name="I" format="2">
  <advance width="429"/>
  <unicode hex="0049"/>
  <unicode hex="0069"/>
  <anchor x="255" y="760" name="top"/>
  <outline>
    <contour>
      <point x="40" y="538" type="curve" smooth="yes"/>
      <point x="40" y="520"/>
      <point x="48" y="506"/>
      <point x="73" y="506" type="curve" smooth="yes"/>
      <point x="116" y="506" type="line" smooth="yes"/>
      <point x="148" y="506"/>
      <point x="166" y="498"/>
      <point x="166" y="475" type="curve" smooth="yes"/>
      <point x="166" y="470"/>
      <point x="165" y="464"/>
      <point x="163" y="457" type="curve" smooth="yes"/>
      <point x="82" y="161" type="line" smooth="yes"/>
      <point x="55" y="61"/>
      <point x="108" y="-15"/>
      <point x="222" y="-15" type="curve" smooth="yes"/>
      <point x="299" y="-15"/>
      <point x="379" y="19"/>
      <point x="372" y="86" type="curve" smooth="yes"/>
      <point x="366" y="144"/>
      <point x="317" y="150"/>
      <point x="275" y="132" type="curve" smooth="yes"/>
      <point x="155" y="80" type="line" smooth="yes"/>
      <point x="136" y="72"/>
      <point x="119" y="89"/>
      <point x="119" y="109" type="curve" smooth="yes"/>
      <point x="119" y="119"/>
      <point x="124" y="127"/>
      <point x="140" y="145" type="curve" smooth="yes"/>
      <point x="331" y="363" type="line" smooth="yes"/>
      <point x="397" y="439"/>
      <point x="363" y="524"/>
      <point x="262" y="512" type="curve" smooth="yes"/>
      <point x="194" y="504" type="line" smooth="yes"/>
      <point x="185" y="503"/>
      <point x="168" y="503"/>
      <point x="168" y="520" type="curve" smooth="yes"/>
      <point x="168" y="530"/>
      <point x="174" y="539"/>
      <point x="187" y="543" type="curve" smooth="yes"/>
      <point x="297" y="581" type="line" smooth="yes"/>
      <point x="345" y="598"/>
      <point x="379" y="624"/>
      <point x="379" y="680" type="curve" smooth="yes"/>
      <point x="379" y="740"/>
      <point x="330" y="775"/>
      <point x="279" y="775" type="curve" smooth="yes"/>
      <point x="250" y="775"/>
      <point x="221" y="764"/>
      <point x="200" y="740" type="curve" smooth="yes"/>
      <point x="87" y="610" type="line" smooth="yes"/>
      <point x="62" y="581"/>
      <point x="40" y="554"/>
    </contour>
    <component base="module" xOffset="104" yOffset="573"/>
    <component base="module" xOffset="95" yOffset="308"/>
  </outline>
</glyph>
<glyph name="O" format="2">
  <advance width="829"/>
  <unicode hex="004F"/>
  <unicode hex="006F"/>
  <anchor x="406" y="760" name="top"/>
  <outline>
    <contour>
      <point x="414" y="-15" type="curve" smooth="yes"/>
      <point x="647" y="-15"/>
      <point x="769" y="120"/>
      <point x="769" y="382" type="curve" smooth="yes"/>
      <point x="769" y="644"/>
      <point x="647" y="775"/>
      <point x="414" y="775" type="curve" smooth="yes"/>
      <point x="182" y="775"/>
      <point x="60" y="644"/>
      <point x="60" y="382" type="curve" smooth="yes"/>
      <point x="60" y="120"/>
      <point x="182" y="-15"/>
    </contour>
    <contour>
      <point x="695" y="391" type="curve" smooth="yes"/>
      <point x="431" y="72" type="line" smooth="yes"/>
      <point x="393" y="27"/>
      <point x="329" y="51"/>
      <point x="313" y="103" type="curve" smooth="yes"/>
      <point x="178" y="534" type="line" smooth="yes"/>
      <point x="149" y="628"/>
      <point x="212" y="680"/>
      <point x="292" y="648" type="curve" smooth="yes"/>
      <point x="671" y="496" type="line" smooth="yes"/>
      <point x="719" y="477"/>
      <point x="729" y="432"/>
    </contour>
    <component base="module" xOffset="365" yOffset="541"/>
    <component base="module" xOffset="3" yOffset="163"/>
    <component base="module" xOffset="454" yOffset="36"/>
  </outline>
</glyph>
<glyph name="R" format="2">
  <advance width="863"/>
  <unicode hex="0052"/>
  <unicode hex="0072"/>
  <anchor x="403" y="0" name="bottom"/>
  <anchor x="502" y="760" name="top"/>
  <outline>
    <contour>
      <point x="807" y="173"/>
      <point x="757" y="214"/>
      <point x="691" y="215" type="curve" smooth="yes"/>
      <point x="494" y="217" type="line" smooth="yes"/>
      <point x="456" y="217"/>
      <point x="440" y="225"/>
      <point x="440" y="248" type="curve" smooth="yes"/>
      <point x="440" y="272"/>
      <point x="459" y="284"/>
      <point x="483" y="292" type="curve" smooth="yes"/>
      <point x="647" y="350" type="line" smooth="yes"/>
      <point x="788" y="400"/>
      <point x="813" y="461"/>
      <point x="813" y="529" type="curve" smooth="yes"/>
      <point x="813" y="619"/>
      <point x="754" y="775"/>
      <point x="507" y="775" type="curve" smooth="yes"/>
      <point x="203" y="775"/>
      <point x="60" y="516"/>
      <point x="60" y="176" type="curve" smooth="yes"/>
      <point x="60" y="33"/>
      <point x="129" y="-15"/>
      <point x="191" y="-15" type="curve" smooth="yes"/>
      <point x="305" y="-15"/>
      <point x="317" y="73"/>
      <point x="278" y="165" type="curve" smooth="yes"/>
      <point x="176" y="405" type="line" smooth="yes"/>
      <point x="168" y="424"/>
      <point x="163" y="444"/>
      <point x="163" y="463" type="curve" smooth="yes"/>
      <point x="163" y="534"/>
      <point x="219" y="595"/>
      <point x="322" y="595" type="curve" smooth="yes"/>
      <point x="635" y="595" type="line" smooth="yes"/>
      <point x="708" y="595"/>
      <point x="746" y="557"/>
      <point x="746" y="508" type="curve" smooth="yes"/>
      <point x="746" y="456"/>
      <point x="711" y="408"/>
      <point x="604" y="422" type="curve" smooth="yes"/>
      <point x="300" y="461" type="line" smooth="yes"/>
      <point x="263" y="466"/>
      <point x="243" y="459"/>
      <point x="242" y="433" type="curve" smooth="yes"/>
      <point x="242" y="419"/>
      <point x="252" y="398"/>
      <point x="274" y="370" type="curve" smooth="yes"/>
      <point x="521" y="71" type="line" smooth="yes"/>
      <point x="576" y="4"/>
      <point x="629" y="-15"/>
      <point x="669" y="-15" type="curve" smooth="yes"/>
      <point x="773" y="-15"/>
      <point x="807" y="48"/>
      <point x="807" y="111" type="curve" smooth="yes"/>
    </contour>
    <component base="module" xOffset="349" yOffset="561"/>
    <component base="module" xOffset="22"/>
    <component base="module" xOffset="511" yOffset="-10"/>
    <component base="module" xOffset="235" yOffset="253"/>
  </outline>
</glyph>
<glyph name="V" format="2">
  <advance width="762"/>
  <unicode hex="0056"/>
  <unicode hex="0076"/>
  <outline>
    <contour>
      <point x="267" y="202" type="curve" smooth="yes"/>
      <point x="375" y="453" type="line" smooth="yes"/>
      <point x="397" y="504"/>
      <point x="417" y="529"/>
      <point x="417" y="555" type="curve" smooth="yes"/>
      <point x="417" y="582"/>
      <point x="396" y="606"/>
      <point x="363" y="606" type="curve" smooth="yes"/>
      <point x="335" y="606"/>
      <point x="310" y="584"/>
      <point x="274" y="555" type="curve" smooth="yes"/>
      <point x="205" y="500" type="line" smooth="yes"/>
      <point x="179" y="480"/>
      <point x="165" y="465"/>
      <point x="146" y="484" type="curve" smooth="yes"/>
      <point x="131" y="499"/>
      <point x="142" y="525"/>
      <point x="165" y="553" type="curve" smooth="yes"/>
      <point x="179" y="570"/>
      <point x="239" y="639"/>
      <point x="240" y="682" type="curve" smooth="yes"/>
      <point x="241" y="739"/>
      <point x="200" y="775"/>
      <point x="146" y="775" type="curve" smooth="yes"/>
      <point x="86" y="775"/>
      <point x="30" y="729"/>
      <point x="30" y="659" type="curve" smooth="yes"/>
      <point x="30" y="636"/>
      <point x="38" y="605"/>
      <point x="46" y="576" type="curve" smooth="yes"/>
      <point x="175" y="80" type="line" smooth="yes"/>
      <point x="193" y="11"/>
      <point x="242" y="-15"/>
      <point x="290" y="-15" type="curve" smooth="yes"/>
      <point x="341" y="-15"/>
      <point x="374" y="-2"/>
      <point x="425" y="80" type="curve" smooth="yes"/>
      <point x="715" y="543" type="line" smooth="yes"/>
      <point x="740" y="582"/>
      <point x="772" y="623"/>
      <point x="772" y="665" type="curve" smooth="yes"/>
      <point x="772" y="738"/>
      <point x="723" y="775"/>
      <point x="674" y="775" type="curve" smooth="yes"/>
      <point x="621" y="775"/>
      <point x="579" y="748"/>
      <point x="558" y="685" type="curve" smooth="yes"/>
      <point x="385" y="166" type="line" smooth="yes"/>
      <point x="370" y="121"/>
      <point x="348" y="47"/>
      <point x="294" y="47" type="curve" smooth="yes"/>
      <point x="259" y="47"/>
      <point x="237" y="69"/>
      <point x="237" y="111" type="curve" smooth="yes"/>
      <point x="237" y="136"/>
      <point x="254" y="171"/>
    </contour>
    <component base="module" xOffset="91" yOffset="298"/>
    <component base="module" xOffset="-42" yOffset="570"/>
    <component base="module" xOffset="489" yOffset="574"/>
  </outline>
</glyph>
<glyph name="X" format="2">
  <advance width="798"/>
  <unicode hex="0058"/>
  <unicode hex="0078"/>
  <outline>
    <contour>
      <point x="553" y="641" type="curve" smooth="yes"/>
      <point x="544" y="411" type="line" smooth="yes"/>
      <point x="543" y="386"/>
      <point x="514" y="381"/>
      <point x="504" y="396" type="curve" smooth="yes"/>
      <point x="318" y="681" type="line" smooth="yes"/>
      <point x="278" y="742"/>
      <point x="248" y="773"/>
      <point x="185" y="773" type="curve" smooth="yes"/>
      <point x="24" y="773"/>
      <point x="6" y="546"/>
      <point x="44" y="454" type="curve" smooth="yes"/>
      <point x="55" y="427"/>
      <point x="82" y="420"/>
      <point x="97" y="426" type="curve" smooth="yes"/>
      <point x="127" y="440"/>
      <point x="138" y="463"/>
      <point x="123" y="509" type="curve" smooth="yes"/>
      <point x="81" y="633" type="line" smooth="yes"/>
      <point x="70" y="670"/>
      <point x="102" y="688"/>
      <point x="128" y="651" type="curve" smooth="yes"/>
      <point x="280" y="435" type="line" smooth="yes"/>
      <point x="318" y="381"/>
      <point x="309" y="357"/>
      <point x="266" y="319" type="curve" smooth="yes"/>
      <point x="105" y="180" type="line" smooth="yes"/>
      <point x="22" y="109"/>
      <point x="36" y="-13"/>
      <point x="155" y="-13" type="curve" smooth="yes"/>
      <point x="229" y="-13"/>
      <point x="262" y="30"/>
      <point x="275" y="100" type="curve" smooth="yes"/>
      <point x="315" y="310" type="line" smooth="yes"/>
      <point x="320" y="335"/>
      <point x="346" y="340"/>
      <point x="355" y="325" type="curve" smooth="yes"/>
      <point x="444" y="177" type="line" smooth="yes"/>
      <point x="540" y="17"/>
      <point x="599" y="-17"/>
      <point x="679" y="-17" type="curve" smooth="yes"/>
      <point x="723" y="-17"/>
      <point x="788" y="9"/>
      <point x="788" y="85" type="curve" smooth="yes"/>
      <point x="788" y="148"/>
      <point x="753" y="196"/>
      <point x="668" y="197" type="curve" smooth="yes"/>
      <point x="510" y="198" type="line" smooth="yes"/>
      <point x="475" y="198"/>
      <point x="468" y="217"/>
      <point x="467" y="235" type="curve" smooth="yes"/>
      <point x="467" y="250"/>
      <point x="473" y="264"/>
      <point x="492" y="285" type="curve" smooth="yes"/>
      <point x="711" y="534" type="line" smooth="yes"/>
      <point x="773" y="605"/>
      <point x="776" y="643"/>
      <point x="776" y="686" type="curve" smooth="yes"/>
      <point x="776" y="731"/>
      <point x="737" y="772"/>
      <point x="670" y="772" type="curve" smooth="yes"/>
      <point x="601" y="772"/>
      <point x="557" y="740"/>
    </contour>
    <component base="module" xOffset="499" yOffset="534"/>
    <component base="module" xOffset="525" yOffset="-15"/>
    <component base="module" xOffset="-8" yOffset="-15"/>
    <component base="module" xOffset="66" yOffset="538"/>
  </outline>
</glyph>
<glyph name="Y" format="2">
  <advance width="771"/>
  <unicode hex="0059"/>
  <unicode hex="0079"/>
  <anchor x="390" y="760" name="top"/>
  <outline>
    <contour>
      <point x="545" y="675" type="curve" smooth="yes"/>
      <point x="553" y="407" type="line" smooth="yes"/>
      <point x="554" y="375"/>
      <point x="533" y="340"/>
      <point x="495" y="394" type="curve" smooth="yes"/>
      <point x="294" y="684" type="line" smooth="yes"/>
      <point x="250" y="747"/>
      <point x="223" y="775"/>
      <point x="166" y="775" type="curve" smooth="yes"/>
      <point x="20" y="775"/>
      <point x="0" y="558"/>
      <point x="36" y="463" type="curve" smooth="yes"/>
      <point x="47" y="434"/>
      <point x="73" y="423"/>
      <point x="87" y="428" type="curve" smooth="yes"/>
      <point x="119" y="439"/>
      <point x="133" y="467"/>
      <point x="114" y="517" type="curve" smooth="yes"/>
      <point x="69" y="634" type="line" smooth="yes"/>
      <point x="55" y="671"/>
      <point x="91" y="698"/>
      <point x="119" y="661" type="curve" smooth="yes"/>
      <point x="427" y="249" type="line" smooth="yes"/>
      <point x="442" y="229"/>
      <point x="448" y="199"/>
      <point x="380" y="199" type="curve" smooth="yes"/>
      <point x="286" y="199" type="line" smooth="yes"/>
      <point x="127" y="199"/>
      <point x="144" y="-15"/>
      <point x="291" y="-15" type="curve" smooth="yes"/>
      <point x="363" y="-15"/>
      <point x="421" y="62"/>
      <point x="461" y="128" type="curve" smooth="yes"/>
      <point x="706" y="530" type="line" smooth="yes"/>
      <point x="734" y="575"/>
      <point x="766" y="628"/>
      <point x="767" y="669" type="curve" smooth="yes"/>
      <point x="770" y="805"/>
      <point x="541" y="814"/>
    </contour>
    <component base="module" xOffset="60" yOffset="540"/>
    <component base="module" xOffset="123" yOffset="-12"/>
    <component base="module" xOffset="496" yOffset="556"/>
  </outline>
</glyph>
<glyph name="sterling" format="2">
  <advance width="847"/>
  <unicode hex="00A3"/>
  <outline>
    <contour>
      <point x="336" y="188" type="line" smooth="yes"/>
      <point x="366" y="164"/>
      <point x="366" y="121"/>
      <point x="303" y="109" type="curve" smooth="yes"/>
      <point x="147" y="79" type="line" smooth="yes"/>
      <point x="103" y="71"/>
      <point x="85" y="120"/>
      <point x="110" y="151" type="curve" smooth="yes"/>
      <point x="173" y="227" type="line" smooth="yes"/>
      <point x="203" y="263"/>
      <point x="235" y="268"/>
      <point x="267" y="242" type="curve" smooth="yes"/>
    </contour>
    <contour>
      <point x="475" y="231" type="line" smooth="yes"/>
      <point x="436" y="240"/>
      <point x="428" y="287"/>
      <point x="468" y="307" type="curve" smooth="yes"/>
      <point x="532" y="339" type="line" smooth="yes"/>
      <point x="567" y="357"/>
      <point x="603" y="385"/>
      <point x="603" y="407" type="curve" smooth="yes"/>
      <point x="603" y="434"/>
      <point x="578" y="448"/>
      <point x="526" y="459" type="curve" smooth="yes"/>
      <point x="292" y="510" type="line" smooth="yes"/>
      <point x="239" y="522"/>
      <point x="195" y="563"/>
      <point x="195" y="622" type="curve" smooth="yes"/>
      <point x="195" y="700"/>
      <point x="262" y="729"/>
      <point x="328" y="689" type="curve" smooth="yes"/>
      <point x="546" y="557" type="line" smooth="yes"/>
      <point x="632" y="505"/>
      <point x="698" y="551"/>
      <point x="702" y="611" type="curve" smooth="yes"/>
      <point x="707" y="717"/>
      <point x="597" y="775"/>
      <point x="435" y="775" type="curve" smooth="yes"/>
      <point x="195" y="775"/>
      <point x="147" y="708"/>
      <point x="147" y="629" type="curve" smooth="yes"/>
      <point x="147" y="592"/>
      <point x="168" y="545"/>
      <point x="206" y="500" type="curve" smooth="yes"/>
      <point x="406" y="256" type="line" smooth="yes"/>
      <point x="427" y="230"/>
      <point x="434" y="211"/>
      <point x="421" y="200" type="curve" smooth="yes"/>
      <point x="407" y="188"/>
      <point x="390" y="193"/>
      <point x="363" y="215" type="curve" smooth="yes"/>
      <point x="235" y="317" type="line" smooth="yes"/>
      <point x="195" y="349"/>
      <point x="156" y="360"/>
      <point x="128" y="360" type="curve" smooth="yes"/>
      <point x="69" y="360"/>
      <point x="10" y="327"/>
      <point x="10" y="242" type="curve" smooth="yes"/>
      <point x="10" y="77"/>
      <point x="114" y="-16"/>
      <point x="260" y="-16" type="curve" smooth="yes"/>
      <point x="323" y="-16"/>
      <point x="381" y="32"/>
      <point x="410" y="91" type="curve" smooth="yes"/>
      <point x="431" y="134" type="line" smooth="yes"/>
      <point x="446" y="164"/>
      <point x="468" y="170"/>
      <point x="492" y="137" type="curve" smooth="yes"/>
      <point x="556" y="47" type="line" smooth="yes"/>
      <point x="580" y="14"/>
      <point x="620" y="-15"/>
      <point x="677" y="-15" type="curve" smooth="yes"/>
      <point x="732" y="-15"/>
      <point x="761" y="18"/>
      <point x="778" y="103" type="curve" smooth="yes"/>
      <point x="820" y="313" type="line" smooth="yes"/>
      <point x="832" y="369"/>
      <point x="785" y="399"/>
      <point x="746" y="399" type="curve" smooth="yes"/>
      <point x="700" y="399"/>
      <point x="668" y="357"/>
      <point x="704" y="304" type="curve" smooth="yes"/>
      <point x="748" y="239" type="line" smooth="yes"/>
      <point x="772" y="204"/>
      <point x="755" y="166"/>
      <point x="707" y="177" type="curve" smooth="yes"/>
    </contour>
    <component base="module" xOffset="418" yOffset="544"/>
    <component base="module" xOffset="274" yOffset="276"/>
    <component base="module" xOffset="514" yOffset="-34"/>
    <component base="module" xOffset="-74" yOffset="131"/>
  </outline>
</glyph>
<glyph name="guillemetleft" format="2">
  <advance width="695"/>
  <unicode hex="00AB"/>
  <outline>
    <contour>
      <point x="137" y="382" type="line" smooth="yes"/>
      <point x="123" y="397"/>
      <point x="130" y="420"/>
      <point x="152" y="430" type="curve" smooth="yes"/>
      <point x="432" y="553" type="line" smooth="yes"/>
      <point x="490" y="578"/>
      <point x="487" y="630"/>
      <point x="459" y="665" type="curve" smooth="yes"/>
      <point x="433" y="698"/>
      <point x="398" y="700"/>
      <point x="348" y="657" type="curve" smooth="yes"/>
      <point x="65" y="412" type="line" smooth="yes"/>
      <point x="14" y="368"/>
      <point x="22" y="298"/>
      <point x="71" y="266" type="curve" smooth="yes"/>
      <point x="384" y="64" type="line" smooth="yes"/>
      <point x="392" y="59"/>
      <point x="401" y="55"/>
      <point x="408" y="65" type="curve" smooth="yes"/>
      <point x="415" y="74"/>
      <point x="409" y="79"/>
      <point x="403" y="86" type="curve" smooth="yes"/>
    </contour>
    <contour>
      <point x="383" y="323" type="curve" smooth="yes"/>
      <point x="637" y="528" type="line" smooth="yes"/>
      <point x="644" y="534"/>
      <point x="649" y="540"/>
      <point x="642" y="549" type="curve" smooth="yes"/>
      <point x="635" y="559"/>
      <point x="628" y="554"/>
      <point x="618" y="550" type="curve" smooth="yes"/>
      <point x="327" y="419" type="line" smooth="yes"/>
      <point x="285" y="400"/>
      <point x="266" y="338"/>
      <point x="311" y="298" type="curve" smooth="yes"/>
      <point x="506" y="124" type="line" smooth="yes"/>
      <point x="555" y="80"/>
      <point x="592" y="83"/>
      <point x="617" y="116" type="curve" smooth="yes"/>
      <point x="644" y="152"/>
      <point x="652" y="213"/>
      <point x="591" y="228" type="curve" smooth="yes"/>
      <point x="399" y="275" type="line" smooth="yes"/>
      <point x="376" y="281"/>
      <point x="366" y="309"/>
    </contour>
  </outline>
</glyph>
<glyph name="macron" format="2">
  <advance width="600"/>
  <unicode hex="00AF"/>
  <anchor x="294" y="760" name="_top"/>
  <outline>
    <contour>
      <point x="166" y="839" type="curve" smooth="yes"/>
      <point x="435" y="832" type="line" smooth="yes"/>
      <point x="496" y="830"/>
      <point x="515" y="864"/>
      <point x="505" y="904" type="curve" smooth="yes"/>
      <point x="496" y="941"/>
      <point x="470" y="953"/>
      <point x="396" y="942" type="curve" smooth="yes"/>
      <point x="168" y="909" type="line" smooth="yes"/>
      <point x="139" y="905"/>
      <point x="122" y="893"/>
      <point x="122" y="871" type="curve" smooth="yes"/>
      <point x="122" y="848"/>
      <point x="136" y="840"/>
    </contour>
  </outline>
</glyph>
<glyph name="degree" format="2">
  <advance width="407"/>
  <unicode hex="00B0"/>
  <outline>
    <contour>
      <point x="204" y="775" type="curve" smooth="yes"/>
      <point x="110" y="775"/>
      <point x="60" y="728"/>
      <point x="60" y="637" type="curve" smooth="yes"/>
      <point x="60" y="546"/>
      <point x="110" y="500"/>
      <point x="204" y="500" type="curve" smooth="yes"/>
      <point x="298" y="500"/>
      <point x="347" y="546"/>
      <point x="347" y="637" type="curve" smooth="yes"/>
      <point x="347" y="728"/>
      <point x="298" y="775"/>
    </contour>
    <contour>
      <point x="132" y="657" type="curve" smooth="yes"/>
      <point x="183" y="712" type="line" smooth="yes"/>
      <point x="201" y="732"/>
      <point x="229" y="721"/>
      <point x="237" y="698" type="curve" smooth="yes"/>
      <point x="265" y="613" type="line" smooth="yes"/>
      <point x="279" y="573"/>
      <point x="249" y="558"/>
      <point x="217" y="572" type="curve" smooth="yes"/>
      <point x="145" y="604" type="line" smooth="yes"/>
      <point x="120" y="615"/>
      <point x="113" y="637"/>
    </contour>
  </outline>
</glyph>
<glyph name="ordmasculine" format="2">
  <advance width="520"/>
  <unicode hex="00BA"/>
  <outline>
    <contour>
      <point x="266" y="775" type="curve" smooth="yes"/>
      <point x="141" y="775"/>
      <point x="64" y="712"/>
      <point x="64" y="591" type="curve" smooth="yes"/>
      <point x="64" y="470"/>
      <point x="141" y="409"/>
      <point x="266" y="409" type="curve" smooth="yes"/>
      <point x="391" y="409"/>
      <point x="456" y="470"/>
      <point x="456" y="591" type="curve" smooth="yes"/>
      <point x="456" y="712"/>
      <point x="391" y="775"/>
    </contour>
    <contour>
      <point x="352" y="572" type="curve" smooth="yes"/>
      <point x="284" y="498" type="line" smooth="yes"/>
      <point x="260" y="472"/>
      <point x="222" y="486"/>
      <point x="212" y="517" type="curve" smooth="yes"/>
      <point x="175" y="630" type="line" smooth="yes"/>
      <point x="158" y="683"/>
      <point x="196" y="704"/>
      <point x="239" y="685" type="curve" smooth="yes"/>
      <point x="335" y="642" type="line" smooth="yes"/>
      <point x="368" y="627"/>
      <point x="376" y="599"/>
    </contour>
    <contour>
      <point x="99" y="220" type="curve" smooth="yes"/>
      <point x="368" y="213" type="line" smooth="yes"/>
      <point x="429" y="211"/>
      <point x="448" y="255"/>
      <point x="438" y="295" type="curve" smooth="yes"/>
      <point x="429" y="332"/>
      <point x="399" y="355"/>
      <point x="329" y="333" type="curve" smooth="yes"/>
      <point x="101" y="260" type="line" smooth="yes"/>
      <point x="66" y="249"/>
      <point x="73" y="221"/>
    </contour>
  </outline>
</glyph>
<glyph name="Lslash" format="2">
  <advance width="590"/>
  <unicode hex="0141"/>
  <anchor x="161" y="396" name="_center"/>
  <anchor x="288" y="0" name="bottom"/>
  <anchor x="161" y="396" name="center"/>
  <outline>
    <contour>
      <point x="7" y="278" type="line" smooth="yes"/>
      <point x="-25" y="260"/>
      <point x="-5" y="232"/>
      <point x="20" y="240" type="curve" smooth="yes"/>
      <point x="39" y="246" type="line" smooth="yes"/>
      <point x="61" y="253"/>
      <point x="67" y="233"/>
      <point x="64" y="194" type="curve" smooth="yes"/>
      <point x="60" y="144" type="line" smooth="yes"/>
      <point x="52" y="47"/>
      <point x="89" y="0"/>
      <point x="198" y="0" type="curve" smooth="yes"/>
      <point x="397" y="0" type="line" smooth="yes"/>
      <point x="502" y="0"/>
      <point x="545" y="57"/>
      <point x="545" y="114" type="curve" smooth="yes"/>
      <point x="545" y="171"/>
      <point x="501" y="228"/>
      <point x="435" y="228" type="curve" smooth="yes"/>
      <point x="405" y="228"/>
      <point x="370" y="216"/>
      <point x="332" y="187" type="curve" smooth="yes"/>
      <point x="240" y="116" type="line" smooth="yes"/>
      <point x="189" y="77"/>
      <point x="160" y="55"/>
      <point x="139" y="55" type="curve" smooth="yes"/>
      <point x="122" y="55"/>
      <point x="100" y="72"/>
      <point x="100" y="98" type="curve" smooth="yes"/>
      <point x="100" y="118"/>
      <point x="112" y="145"/>
      <point x="129" y="176" type="curve" smooth="yes"/>
      <point x="166" y="244" type="line" smooth="yes"/>
      <point x="188" y="284"/>
      <point x="215" y="304"/>
      <point x="262" y="320" type="curve" smooth="yes"/>
      <point x="459" y="386" type="line" smooth="yes"/>
      <point x="517" y="405"/>
      <point x="520" y="454"/>
      <point x="496" y="488" type="curve" smooth="yes"/>
      <point x="474" y="519"/>
      <point x="441" y="535"/>
      <point x="381" y="485" type="curve" smooth="yes"/>
      <point x="280" y="401" type="line" smooth="yes"/>
      <point x="266" y="389"/>
      <point x="245" y="404"/>
      <point x="257" y="425" type="curve" smooth="yes"/>
      <point x="340" y="568" type="line" smooth="yes"/>
      <point x="360" y="602"/>
      <point x="367" y="635"/>
      <point x="367" y="661" type="curve" smooth="yes"/>
      <point x="367" y="737"/>
      <point x="303" y="775"/>
      <point x="246" y="775" type="curve" smooth="yes"/>
      <point x="178" y="775"/>
      <point x="138" y="724"/>
      <point x="123" y="617" type="curve" smooth="yes"/>
      <point x="86" y="360" type="line" smooth="yes"/>
      <point x="81" y="327"/>
      <point x="71" y="313"/>
      <point x="43" y="298" type="curve" smooth="yes"/>
    </contour>
    <component base="module" xOffset="263" yOffset="3"/>
    <component base="module" xOffset="81" yOffset="554"/>
  </outline>
</glyph>
<glyph name="Eng" format="2">
  <advance width="882"/>
  <unicode hex="014A"/>
  <outline>
    <contour>
      <point x="331" y="356" type="curve" smooth="yes"/>
      <point x="623" y="10" type="line" smooth="yes"/>
      <point x="664" y="-39"/>
      <point x="673" y="-58"/>
      <point x="673" y="-76" type="curve" smooth="yes"/>
      <point x="673" y="-96"/>
      <point x="655" y="-115"/>
      <point x="627" y="-102" type="curve" smooth="yes"/>
      <point x="554" y="-67" type="line" smooth="yes"/>
      <point x="513" y="-47"/>
      <point x="455" y="-58"/>
      <point x="455" y="-115" type="curve" smooth="yes"/>
      <point x="455" y="-163"/>
      <point x="495" y="-200"/>
      <point x="570" y="-200" type="curve" smooth="yes"/>
      <point x="697" y="-200"/>
      <point x="737" y="-128"/>
      <point x="750" y="-24" type="curve" smooth="yes"/>
      <point x="820" y="588" type="line" smooth="yes"/>
      <point x="830" y="680"/>
      <point x="800" y="776"/>
      <point x="701" y="776" type="curve" smooth="yes"/>
      <point x="617" y="776"/>
      <point x="591" y="711"/>
      <point x="591" y="660" type="curve" smooth="yes"/>
      <point x="591" y="636"/>
      <point x="589" y="604"/>
      <point x="614" y="540" type="curve" smooth="yes"/>
      <point x="706" y="303" type="line" smooth="yes"/>
      <point x="719" y="270"/>
      <point x="727" y="247"/>
      <point x="727" y="229" type="curve" smooth="yes"/>
      <point x="727" y="207"/>
      <point x="715" y="196"/>
      <point x="690" y="196" type="curve" smooth="yes"/>
      <point x="672" y="196"/>
      <point x="658" y="210"/>
      <point x="634" y="248" type="curve" smooth="yes"/>
      <point x="397" y="619" type="line" smooth="yes"/>
      <point x="337" y="713"/>
      <point x="293" y="775"/>
      <point x="214" y="775" type="curve" smooth="yes"/>
      <point x="107" y="775"/>
      <point x="60" y="725"/>
      <point x="60" y="500" type="curve" smooth="yes"/>
      <point x="60" y="230" type="line" smooth="yes"/>
      <point x="60" y="85"/>
      <point x="63" y="-15"/>
      <point x="194" y="-15" type="curve" smooth="yes"/>
      <point x="302" y="-15"/>
      <point x="322" y="79"/>
      <point x="277" y="190" type="curve" smooth="yes"/>
      <point x="141" y="523" type="line" smooth="yes"/>
      <point x="132" y="545"/>
      <point x="123" y="590"/>
      <point x="123" y="618" type="curve" smooth="yes"/>
      <point x="123" y="675"/>
      <point x="156" y="717"/>
      <point x="212" y="717" type="curve" smooth="yes"/>
      <point x="248" y="717"/>
      <point x="279" y="691"/>
      <point x="271" y="640" type="curve" smooth="yes"/>
      <point x="262" y="583" type="line" smooth="yes"/>
      <point x="249" y="500"/>
      <point x="286" y="409"/>
    </contour>
    <component base="module" xOffset="538" yOffset="541"/>
    <component base="module" xOffset="204" yOffset="384"/>
    <component base="module" xOffset="2" yOffset="8"/>
  </outline>
</glyph>
<glyph name="breve" format="2">
  <advance width="600"/>
  <unicode hex="02D8"/>
  <anchor x="299" y="760" name="_top"/>
  <outline>
    <contour>
      <point x="299" y="807" type="curve" smooth="yes"/>
      <point x="413" y="804"/>
      <point x="494" y="833"/>
      <point x="494" y="922" type="curve" smooth="yes"/>
      <point x="494" y="955"/>
      <point x="467" y="971"/>
      <point x="443" y="971" type="curve" smooth="yes"/>
      <point x="413" y="971"/>
      <point x="391" y="959"/>
      <point x="376" y="924" type="curve" smooth="yes"/>
      <point x="355" y="875"/>
      <point x="342" y="835"/>
      <point x="299" y="835" type="curve" smooth="yes"/>
      <point x="256" y="835"/>
      <point x="243" y="875"/>
      <point x="222" y="924" type="curve" smooth="yes"/>
      <point x="207" y="959"/>
      <point x="185" y="971"/>
      <point x="155" y="971" type="curve" smooth="yes"/>
      <point x="131" y="971"/>
      <point x="104" y="955"/>
      <point x="104" y="922" type="curve" smooth="yes"/>
      <point x="104" y="833"/>
      <point x="185" y="804"/>
    </contour>
  </outline>
</glyph>
<glyph name="cedillacomb" format="2">
  <advance width="600"/>
  <unicode hex="0327"/>
  <anchor x="294" y="0" name="_bottom"/>
  <outline>
    <contour>
      <point x="118" y="-113" type="curve" smooth="yes"/>
      <point x="112" y="-154"/>
      <point x="152" y="-177"/>
      <point x="227" y="-192" type="curve" smooth="yes"/>
      <point x="358" y="-216"/>
      <point x="474" y="-188"/>
      <point x="474" y="-106" type="curve" smooth="yes"/>
      <point x="474" y="-63"/>
      <point x="428" y="-29"/>
      <point x="387" y="-29" type="curve" smooth="yes"/>
      <point x="361" y="-29"/>
      <point x="346" y="-38"/>
      <point x="331" y="-38" type="curve" smooth="yes"/>
      <point x="315" y="-38"/>
      <point x="319" y="-31"/>
      <point x="337" y="21" type="curve"/>
      <point x="285" y="21" type="line"/>
      <point x="239" y="-96" type="line"/>
      <point x="216" y="-77" type="line" smooth="yes"/>
      <point x="179" y="-46"/>
      <point x="125" y="-64"/>
    </contour>
    <contour>
      <point x="340" y="-155" type="curve"/>
      <point x="302" y="-155"/>
      <point x="291" y="-117"/>
      <point x="316" y="-101" type="curve" smooth="yes"/>
      <point x="346" y="-82"/>
      <point x="366" y="-79"/>
      <point x="386" y="-79" type="curve" smooth="yes"/>
      <point x="407" y="-79"/>
      <point x="420" y="-90"/>
      <point x="420" y="-108" type="curve" smooth="yes"/>
      <point x="420" y="-131"/>
      <point x="386" y="-155"/>
    </contour>
  </outline>
</glyph>
<glyph name="ogonekcomb" format="2">
  <advance width="601"/>
  <unicode hex="0328"/>
  <anchor x="272" y="0" name="_right"/>
  <outline>
    <contour>
      <point x="196" y="-24" type="line" smooth="yes"/>
      <point x="140" y="-110"/>
      <point x="222" y="-200"/>
      <point x="336" y="-200" type="curve" smooth="yes"/>
      <point x="399" y="-200"/>
      <point x="447" y="-172"/>
      <point x="447" y="-124" type="curve" smooth="yes"/>
      <point x="447" y="-74"/>
      <point x="396" y="-71"/>
      <point x="352" y="-83" type="curve" smooth="yes"/>
      <point x="279" y="-102" type="line" smooth="yes"/>
      <point x="250" y="-110"/>
      <point x="233" y="-96"/>
      <point x="233" y="-76" type="curve" smooth="yes"/>
      <point x="233" y="-58"/>
      <point x="240" y="-48"/>
      <point x="262" y="-37" type="curve" smooth="yes"/>
      <point x="345" y="5" type="line" smooth="yes"/>
      <point x="356" y="10"/>
      <point x="357" y="18"/>
      <point x="357" y="26" type="curve"/>
      <point x="234" y="35" type="line"/>
    </contour>
  </outline>
</glyph>
<glyph name="E-cy" format="2">
  <advance width="830"/>
  <unicode hex="0404"/>
  <unicode hex="0454"/>
  <outline>
    <contour>
      <point x="438" y="-15" type="curve" smooth="yes"/>
      <point x="643" y="-15"/>
      <point x="770" y="71"/>
      <point x="770" y="196" type="curve" smooth="yes"/>
      <point x="770" y="311"/>
      <point x="590" y="323"/>
      <point x="590" y="187" type="curve" smooth="yes"/>
      <point x="590" y="104" type="line" smooth="yes"/>
      <point x="590" y="45"/>
      <point x="549" y="33"/>
      <point x="504" y="63" type="curve" smooth="yes"/>
      <point x="158" y="291" type="line" smooth="yes"/>
      <point x="101" y="329"/>
      <point x="158" y="410"/>
      <point x="217" y="372" type="curve" smooth="yes"/>
      <point x="360" y="279" type="line" smooth="yes"/>
      <point x="462" y="212"/>
      <point x="542" y="250"/>
      <point x="542" y="335" type="curve" smooth="yes"/>
      <point x="542" y="403"/>
      <point x="508" y="434"/>
      <point x="427" y="434" type="curve" smooth="yes"/>
      <point x="187" y="434" type="line" smooth="yes"/>
      <point x="139" y="434"/>
      <point x="127" y="476"/>
      <point x="170" y="501" type="curve" smooth="yes"/>
      <point x="504" y="697" type="line" smooth="yes"/>
      <point x="550" y="724"/>
      <point x="575" y="695"/>
      <point x="567" y="650" type="curve" smooth="yes"/>
      <point x="551" y="563" type="line" smooth="yes"/>
      <point x="536" y="484"/>
      <point x="577" y="434"/>
      <point x="645" y="434" type="curve" smooth="yes"/>
      <point x="716" y="434"/>
      <point x="756" y="470"/>
      <point x="756" y="544" type="curve" smooth="yes"/>
      <point x="756" y="653"/>
      <point x="643" y="775"/>
      <point x="465" y="775" type="curve" smooth="yes"/>
      <point x="226" y="775"/>
      <point x="60" y="604"/>
      <point x="60" y="352" type="curve" smooth="yes"/>
      <point x="60" y="142"/>
      <point x="213" y="-15"/>
    </contour>
    <component base="module" xOffset="114" yOffset="5"/>
    <component base="module" xOffset="148" yOffset="551"/>
    <component base="module" xOffset="287" yOffset="231"/>
    <component base="module" xOffset="482" yOffset="431"/>
    <component base="module" xOffset="525" yOffset="79"/>
  </outline>
</glyph>
<glyph name="Nje-cy" format="2">
  <advance width="1231"/>
  <unicode hex="040A"/>
  <unicode hex="045A"/>
  <outline>
    <contour>
      <point x="61" y="115" type="line" smooth="yes"/>
      <point x="51" y="20"/>
      <point x="105" y="-15"/>
      <point x="171" y="-15" type="curve" smooth="yes"/>
      <point x="248" y="-15"/>
      <point x="292" y="30"/>
      <point x="292" y="88" type="curve" smooth="yes"/>
      <point x="292" y="120"/>
      <point x="274" y="156"/>
      <point x="235" y="191" type="curve" smooth="yes"/>
      <point x="208" y="216"/>
      <point x="179" y="236"/>
      <point x="179" y="260" type="curve" smooth="yes"/>
      <point x="179" y="275"/>
      <point x="187" y="283"/>
      <point x="231" y="295" type="curve" smooth="yes"/>
      <point x="491" y="365" type="line" smooth="yes"/>
      <point x="534" y="377"/>
      <point x="557" y="355"/>
      <point x="552" y="308" type="curve" smooth="yes"/>
      <point x="544" y="236" type="line" smooth="yes"/>
      <point x="524" y="60"/>
      <point x="600" y="-15"/>
      <point x="858" y="-15" type="curve" smooth="yes"/>
      <point x="1076" y="-15"/>
      <point x="1201" y="99"/>
      <point x="1201" y="275" type="curve" smooth="yes"/>
      <point x="1201" y="443"/>
      <point x="1111" y="551"/>
      <point x="995" y="551" type="curve" smooth="yes"/>
      <point x="947" y="551"/>
      <point x="907" y="534"/>
      <point x="825" y="499" type="curve" smooth="yes"/>
      <point x="680" y="438" type="line" smooth="yes"/>
      <point x="628" y="416"/>
      <point x="591" y="475"/>
      <point x="635" y="509" type="curve" smooth="yes"/>
      <point x="728" y="580" type="line" smooth="yes"/>
      <point x="842" y="667"/>
      <point x="791" y="775"/>
      <point x="676" y="775" type="curve" smooth="yes"/>
      <point x="579" y="775"/>
      <point x="544" y="728"/>
      <point x="557" y="611" type="curve" smooth="yes"/>
      <point x="568" y="508" type="line" smooth="yes"/>
      <point x="574" y="453"/>
      <point x="554" y="423"/>
      <point x="492" y="423" type="curve" smooth="yes"/>
      <point x="213" y="423" type="line" smooth="yes"/>
      <point x="179" y="423"/>
      <point x="155" y="437"/>
      <point x="155" y="464" type="curve" smooth="yes"/>
      <point x="155" y="483"/>
      <point x="160" y="498"/>
      <point x="190" y="515" type="curve" smooth="yes"/>
      <point x="304" y="580" type="line" smooth="yes"/>
      <point x="346" y="604"/>
      <point x="374" y="638"/>
      <point x="374" y="683" type="curve" smooth="yes"/>
      <point x="374" y="737"/>
      <point x="332" y="775"/>
      <point x="260" y="775" type="curve" smooth="yes"/>
      <point x="150" y="775"/>
      <point x="122" y="680"/>
      <point x="114" y="608" type="curve" smooth="yes"/>
    </contour>
    <contour>
      <point x="621" y="169" type="curve" smooth="yes"/>
      <point x="817" y="420" type="line" smooth="yes"/>
      <point x="852" y="465"/>
      <point x="874" y="473"/>
      <point x="925" y="438" type="curve" smooth="yes"/>
      <point x="1125" y="298" type="line" smooth="yes"/>
      <point x="1176" y="263"/>
      <point x="1170" y="209"/>
      <point x="1109" y="195" type="curve" smooth="yes"/>
      <point x="674" y="94" type="line" smooth="yes"/>
      <point x="615" y="80"/>
      <point x="587" y="126"/>
    </contour>
    <component base="module" xOffset="40" yOffset="-20"/>
    <component base="module" xOffset="755" yOffset="-40"/>
    <component base="module" xOffset="66" yOffset="546"/>
    <component base="module" xOffset="482" yOffset="567"/>
    <component base="module" xOffset="486" yOffset="209"/>
    <component base="module" xOffset="855" yOffset="358"/>
  </outline>
</glyph>
<glyph name="Dzhe-cy" format="2">
  <advance width="825"/>
  <unicode hex="040F"/>
  <unicode hex="045F"/>
  <outline>
    <contour>
      <point x="65" y="167" type="line" smooth="yes"/>
      <point x="58" y="47"/>
      <point x="125" y="7"/>
      <point x="246" y="50" type="curve" smooth="yes"/>
      <point x="339" y="83" type="line" smooth="yes"/>
      <point x="391" y="102"/>
      <point x="413" y="30"/>
      <point x="368" y="14" type="curve" smooth="yes"/>
      <point x="280" y="-18" type="line" smooth="yes"/>
      <point x="225" y="-38"/>
      <point x="196" y="-72"/>
      <point x="196" y="-119" type="curve" smooth="yes"/>
      <point x="196" y="-166"/>
      <point x="230" y="-200"/>
      <point x="299" y="-200" type="curve" smooth="yes"/>
      <point x="386" y="-200"/>
      <point x="436" y="-148"/>
      <point x="436" y="-62" type="curve" smooth="yes"/>
      <point x="436" y="-32" type="line" smooth="yes"/>
      <point x="436" y="3"/>
      <point x="464" y="19"/>
      <point x="494" y="5" type="curve" smooth="yes"/>
      <point x="511" y="-3" type="line" smooth="yes"/>
      <point x="609" y="-49"/>
      <point x="727" y="-1"/>
      <point x="736" y="149" type="curve" smooth="yes"/>
      <point x="764" y="620" type="line" smooth="yes"/>
      <point x="771" y="741"/>
      <point x="720" y="776"/>
      <point x="642" y="776" type="curve" smooth="yes"/>
      <point x="537" y="776"/>
      <point x="488" y="656"/>
      <point x="583" y="562" type="curve" smooth="yes"/>
      <point x="681" y="465" type="line" smooth="yes"/>
      <point x="711" y="435"/>
      <point x="695" y="402"/>
      <point x="655" y="405" type="curve" smooth="yes"/>
      <point x="435" y="419" type="line" smooth="yes"/>
      <point x="363" y="424"/>
      <point x="342" y="337"/>
      <point x="400" y="307" type="curve" smooth="yes"/>
      <point x="616" y="196" type="line" smooth="yes"/>
      <point x="705" y="150"/>
      <point x="638" y="17"/>
      <point x="542" y="66" type="curve" smooth="yes"/>
      <point x="197" y="242" type="line" smooth="yes"/>
      <point x="140" y="271"/>
      <point x="121" y="291"/>
      <point x="121" y="324" type="curve" smooth="yes"/>
      <point x="121" y="348"/>
      <point x="128" y="366"/>
      <point x="159" y="401" type="curve" smooth="yes"/>
      <point x="271" y="526" type="line" smooth="yes"/>
      <point x="325" y="587"/>
      <point x="348" y="620"/>
      <point x="348" y="673" type="curve" smooth="yes"/>
      <point x="348" y="733"/>
      <point x="307" y="776"/>
      <point x="236" y="776" type="curve" smooth="yes"/>
      <point x="141" y="776"/>
      <point x="97" y="711"/>
      <point x="91" y="603" type="curve" smooth="yes"/>
    </contour>
    <component base="module" xOffset="51" yOffset="551"/>
    <component base="module" xOffset="489" yOffset="564"/>
    <component base="module" xOffset="392" yOffset="215"/>
    <component base="module" xOffset="-4" yOffset="32"/>
  </outline>
</glyph>
<glyph name="Be-cy" format="2">
  <advance width="861"/>
  <unicode hex="0411"/>
  <unicode hex="0431"/>
  <outline>
    <contour>
      <point x="55" y="285" type="curve" smooth="yes"/>
      <point x="55" y="121"/>
      <point x="175" y="-15"/>
      <point x="485" y="-15" type="curve" smooth="yes"/>
      <point x="698" y="-15"/>
      <point x="820" y="89"/>
      <point x="820" y="239" type="curve" smooth="yes"/>
      <point x="820" y="315"/>
      <point x="779" y="365"/>
      <point x="733" y="404" type="curve" smooth="yes"/>
      <point x="676" y="453" type="line" smooth="yes"/>
      <point x="583" y="533"/>
      <point x="506" y="541"/>
      <point x="411" y="469" type="curve" smooth="yes"/>
      <point x="176" y="291" type="line" smooth="yes"/>
      <point x="129" y="255"/>
      <point x="95" y="295"/>
      <point x="123" y="337" type="curve" smooth="yes"/>
      <point x="347" y="676" type="line" smooth="yes"/>
      <point x="379" y="725"/>
      <point x="408" y="730"/>
      <point x="455" y="692" type="curve" smooth="yes"/>
      <point x="583" y="589" type="line" smooth="yes"/>
      <point x="700" y="495"/>
      <point x="821" y="557"/>
      <point x="821" y="644" type="curve" smooth="yes"/>
      <point x="821" y="726"/>
      <point x="759" y="760"/>
      <point x="636" y="760" type="curve" smooth="yes"/>
      <point x="401" y="760" type="line" smooth="yes"/>
      <point x="142" y="760"/>
      <point x="55" y="687"/>
    </contour>
    <contour>
      <point x="188" y="237" type="curve" smooth="yes"/>
      <point x="615" y="355" type="line" smooth="yes"/>
      <point x="701" y="379"/>
      <point x="757" y="334"/>
      <point x="757" y="270" type="curve" smooth="yes"/>
      <point x="757" y="203"/>
      <point x="718" y="167"/>
      <point x="632" y="166" type="curve" smooth="yes"/>
      <point x="196" y="163" type="line" smooth="yes"/>
      <point x="162" y="163"/>
      <point x="148" y="179"/>
      <point x="148" y="197" type="curve" smooth="yes"/>
      <point x="148" y="216"/>
      <point x="161" y="230"/>
    </contour>
    <component base="module" xOffset="250" yOffset="-31"/>
    <component base="module" xOffset="532" yOffset="539"/>
    <component base="module" xOffset="38" yOffset="500"/>
    <component base="module" xOffset="354" yOffset="320"/>
  </outline>
</glyph>
<glyph name="De-cy" format="2">
  <advance width="1056"/>
  <unicode hex="0414"/>
  <unicode hex="0434"/>
  <outline>
    <contour>
      <point x="10" y="208" type="curve" smooth="yes"/>
      <point x="28" y="-47" type="line" smooth="yes"/>
      <point x="36" y="-164"/>
      <point x="74" y="-200"/>
      <point x="150" y="-200" type="curve" smooth="yes"/>
      <point x="248" y="-200"/>
      <point x="268" y="-85"/>
      <point x="185" y="-41" type="curve" smooth="yes"/>
      <point x="87" y="11" type="line" smooth="yes"/>
      <point x="43" y="34"/>
      <point x="77" y="100"/>
      <point x="124" y="75" type="curve" smooth="yes"/>
      <point x="202" y="33" type="line" smooth="yes"/>
      <point x="238" y="13"/>
      <point x="294" y="0"/>
      <point x="349" y="0" type="curve" smooth="yes"/>
      <point x="724" y="0" type="line" smooth="yes"/>
      <point x="770" y="0"/>
      <point x="803" y="11"/>
      <point x="827" y="24" type="curve" smooth="yes"/>
      <point x="925" y="78" type="line" smooth="yes"/>
      <point x="974" y="105"/>
      <point x="1006" y="38"/>
      <point x="967" y="15" type="curve" smooth="yes"/>
      <point x="880" y="-37" type="line" smooth="yes"/>
      <point x="796" y="-87"/>
      <point x="824" y="-200"/>
      <point x="911" y="-200" type="curve" smooth="yes"/>
      <point x="983" y="-200"/>
      <point x="1026" y="-164"/>
      <point x="1026" y="-47" type="curve" smooth="yes"/>
      <point x="1026" y="202" type="line" smooth="yes"/>
      <point x="1026" y="277"/>
      <point x="983" y="317"/>
      <point x="937" y="317" type="curve" smooth="yes"/>
      <point x="896" y="317"/>
      <point x="860" y="291"/>
      <point x="839" y="237" type="curve" smooth="yes"/>
      <point x="784" y="98" type="line" smooth="yes"/>
      <point x="762" y="43"/>
      <point x="687" y="75"/>
      <point x="707" y="126" type="curve" smooth="yes"/>
      <point x="872" y="543" type="line" smooth="yes"/>
      <point x="919" y="661"/>
      <point x="878" y="760"/>
      <point x="754" y="760" type="curve" smooth="yes"/>
      <point x="418" y="760" type="line" smooth="yes"/>
      <point x="315" y="760"/>
      <point x="250" y="699"/>
      <point x="259" y="570" type="curve" smooth="yes"/>
      <point x="291" y="128" type="line" smooth="yes"/>
      <point x="295" y="72"/>
      <point x="219" y="71"/>
      <point x="215" y="122" type="curve" smooth="yes"/>
      <point x="208" y="221" type="line" smooth="yes"/>
      <point x="203" y="294"/>
      <point x="154" y="329"/>
      <point x="106" y="329" type="curve" smooth="yes"/>
      <point x="55" y="329"/>
      <point x="4" y="287"/>
    </contour>
    <contour>
      <point x="346" y="326" type="curve" smooth="yes"/>
      <point x="533" y="670" type="line" smooth="yes"/>
      <point x="575" y="747"/>
      <point x="669" y="725"/>
      <point x="668" y="640" type="curve" smooth="yes"/>
      <point x="660" y="123" type="line" smooth="yes"/>
      <point x="659" y="68"/>
      <point x="612" y="46"/>
      <point x="566" y="74" type="curve" smooth="yes"/>
      <point x="376" y="192" type="line" smooth="yes"/>
      <point x="318" y="228"/>
      <point x="314" y="267"/>
    </contour>
    <component base="module" xOffset="754" yOffset="88"/>
    <component base="module" xOffset="198" yOffset="470"/>
    <component base="module" xOffset="607" yOffset="471"/>
    <component base="module" xOffset="-46" yOffset="94"/>
  </outline>
</glyph>
<glyph name="Zhe-cy" format="2">
  <advance width="1276"/>
  <unicode hex="0416"/>
  <unicode hex="0436"/>
  <outline>
    <contour>
      <point x="35" y="97" type="curve" smooth="yes"/>
      <point x="35" y="31"/>
      <point x="83" y="-15"/>
      <point x="153" y="-15" type="curve" smooth="yes"/>
      <point x="225" y="-15"/>
      <point x="287" y="29"/>
      <point x="287" y="147" type="curve" smooth="yes"/>
      <point x="287" y="347" type="line" smooth="yes"/>
      <point x="287" y="410"/>
      <point x="344" y="418"/>
      <point x="369" y="367" type="curve" smooth="yes"/>
      <point x="485" y="132" type="line" smooth="yes"/>
      <point x="539" y="23"/>
      <point x="578" y="-15"/>
      <point x="639" y="-15" type="curve" smooth="yes"/>
      <point x="696" y="-15"/>
      <point x="745" y="30"/>
      <point x="745" y="88" type="curve" smooth="yes"/>
      <point x="745" y="130"/>
      <point x="727" y="161"/>
      <point x="709" y="191" type="curve" smooth="yes"/>
      <point x="590" y="390" type="line" smooth="yes"/>
      <point x="562" y="436"/>
      <point x="617" y="477"/>
      <point x="650" y="431" type="curve" smooth="yes"/>
      <point x="893" y="95" type="line" smooth="yes"/>
      <point x="948" y="19"/>
      <point x="978" y="-15"/>
      <point x="1042" y="-15" type="curve" smooth="yes"/>
      <point x="1106" y="-15"/>
      <point x="1153" y="21"/>
      <point x="1165" y="103" type="curve" smooth="yes"/>
      <point x="1201" y="353" type="line" smooth="yes"/>
      <point x="1209" y="409"/>
      <point x="1171" y="434"/>
      <point x="1137" y="433" type="curve" smooth="yes"/>
      <point x="1106" y="431"/>
      <point x="1078" y="406"/>
      <point x="1092" y="360" type="curve" smooth="yes"/>
      <point x="1129" y="239" type="line" smooth="yes"/>
      <point x="1138" y="210"/>
      <point x="1109" y="177"/>
      <point x="1075" y="196" type="curve" smooth="yes"/>
      <point x="780" y="359" type="line" smooth="yes"/>
      <point x="746" y="378"/>
      <point x="737" y="394"/>
      <point x="740" y="417" type="curve" smooth="yes"/>
      <point x="744" y="447"/>
      <point x="786" y="461"/>
      <point x="840" y="473" type="curve" smooth="yes"/>
      <point x="1105" y="533" type="line" smooth="yes"/>
      <point x="1196" y="554"/>
      <point x="1238" y="581"/>
      <point x="1250" y="651" type="curve" smooth="yes"/>
      <point x="1260" y="711"/>
      <point x="1219" y="775"/>
      <point x="1152" y="775" type="curve" smooth="yes"/>
      <point x="1097" y="775"/>
      <point x="1060" y="760"/>
      <point x="994" y="700" type="curve" smooth="yes"/>
      <point x="781" y="509" type="line" smooth="yes"/>
      <point x="729" y="462"/>
      <point x="692" y="454"/>
      <point x="669" y="487" type="curve" smooth="yes"/>
      <point x="652" y="512"/>
      <point x="669" y="545"/>
      <point x="698" y="579" type="curve" smooth="yes"/>
      <point x="714" y="598" type="line" smooth="yes"/>
      <point x="779" y="675"/>
      <point x="756" y="775"/>
      <point x="648" y="775" type="curve" smooth="yes"/>
      <point x="572" y="775"/>
      <point x="532" y="731"/>
      <point x="532" y="642" type="curve" smooth="yes"/>
      <point x="533" y="331" type="line" smooth="yes"/>
      <point x="533" y="285"/>
      <point x="474" y="276"/>
      <point x="463" y="322" type="curve" smooth="yes"/>
      <point x="407" y="557" type="line" smooth="yes"/>
      <point x="371" y="710"/>
      <point x="292" y="775"/>
      <point x="184" y="775" type="curve" smooth="yes"/>
      <point x="94" y="775"/>
      <point x="45" y="727"/>
      <point x="45" y="666" type="curve" smooth="yes"/>
      <point x="45" y="597"/>
      <point x="91" y="550"/>
      <point x="184" y="550" type="curve" smooth="yes"/>
      <point x="337" y="550" type="line" smooth="yes"/>
      <point x="366" y="550"/>
      <point x="378" y="523"/>
      <point x="354" y="499" type="curve" smooth="yes"/>
      <point x="122" y="269" type="line" smooth="yes"/>
      <point x="65" y="213"/>
      <point x="35" y="165"/>
    </contour>
    <component base="module" xOffset="3" yOffset="10"/>
    <component base="module" xOffset="19" yOffset="565"/>
    <component base="module" xOffset="965" yOffset="565"/>
    <component base="module" xOffset="858" yOffset="-3"/>
    <component base="module" xOffset="455" yOffset="13"/>
    <component base="module" xOffset="496" yOffset="565"/>
  </outline>
</glyph>
<glyph name="Ii-cy" format="2">
  <advance width="872"/>
  <unicode hex="0418"/>
  <unicode hex="0438"/>
  <anchor x="434" y="760" name="top"/>
  <outline>
    <contour>
      <point x="65" y="127" type="line" smooth="yes"/>
      <point x="62" y="31"/>
      <point x="103" y="-15"/>
      <point x="165" y="-15" type="curve" smooth="yes"/>
      <point x="221" y="-15"/>
      <point x="260" y="6"/>
      <point x="310" y="90" type="curve" smooth="yes"/>
      <point x="649" y="658" type="line" smooth="yes"/>
      <point x="690" y="727"/>
      <point x="766" y="678"/>
      <point x="740" y="613" type="curve" smooth="yes"/>
      <point x="591" y="241" type="line" smooth="yes"/>
      <point x="544" y="123"/>
      <point x="532" y="-15"/>
      <point x="662" y="-15" type="curve" smooth="yes"/>
      <point x="722" y="-15"/>
      <point x="787" y="20"/>
      <point x="791" y="134" type="curve" smooth="yes"/>
      <point x="806" y="552" type="line" smooth="yes"/>
      <point x="811" y="701"/>
      <point x="754" y="775"/>
      <point x="631" y="775" type="curve" smooth="yes"/>
      <point x="525" y="775"/>
      <point x="460" y="728"/>
      <point x="430" y="613" type="curve" smooth="yes"/>
      <point x="329" y="229" type="line" smooth="yes"/>
      <point x="314" y="172"/>
      <point x="255" y="169"/>
      <point x="230" y="219" type="curve" smooth="yes"/>
      <point x="137" y="403" type="line" smooth="yes"/>
      <point x="114" y="448"/>
      <point x="120" y="486"/>
      <point x="156" y="506" type="curve" smooth="yes"/>
      <point x="275" y="572" type="line" smooth="yes"/>
      <point x="383" y="632"/>
      <point x="360" y="775"/>
      <point x="232" y="775" type="curve" smooth="yes"/>
      <point x="94" y="775"/>
      <point x="81" y="638"/>
      <point x="79" y="576" type="curve" smooth="yes"/>
    </contour>
    <component base="module" xOffset="526" yOffset="1"/>
    <component base="module" xOffset="31" yOffset="546"/>
    <component base="module" xOffset="369" yOffset="543"/>
    <component base="module" xOffset="10" yOffset="17"/>
  </outline>
</glyph>
<glyph name="Ef-cy" format="2">
  <advance width="1209"/>
  <unicode hex="0424"/>
  <unicode hex="0444"/>
  <outline>
    <contour>
      <point x="55" y="298" type="line" smooth="yes"/>
      <point x="52" y="110"/>
      <point x="131" y="33"/>
      <point x="222" y="33" type="curve" smooth="yes"/>
      <point x="294" y="33"/>
      <point x="346" y="65"/>
      <point x="406" y="109" type="curve" smooth="yes"/>
      <point x="546" y="211" type="line" smooth="yes"/>
      <point x="573" y="231"/>
      <point x="604" y="195"/>
      <point x="576" y="170" type="curve" smooth="yes"/>
      <point x="546" y="144" type="line" smooth="yes"/>
      <point x="515" y="117"/>
      <point x="492" y="91"/>
      <point x="492" y="55" type="curve" smooth="yes"/>
      <point x="492" y="14"/>
      <point x="524" y="-16"/>
      <point x="597" y="-16" type="curve" smooth="yes"/>
      <point x="690" y="-16"/>
      <point x="740" y="42"/>
      <point x="698" y="116" type="curve" smooth="yes"/>
      <point x="633" y="230" type="line" smooth="yes"/>
      <point x="604" y="281"/>
      <point x="675" y="321"/>
      <point x="704" y="271" type="curve" smooth="yes"/>
      <point x="779" y="139" type="line" smooth="yes"/>
      <point x="817" y="72"/>
      <point x="864" y="33"/>
      <point x="947" y="33" type="curve" smooth="yes"/>
      <point x="1064" y="33"/>
      <point x="1148" y="118"/>
      <point x="1151" y="299" type="curve" smooth="yes"/>
      <point x="1154" y="474" type="line" smooth="yes"/>
      <point x="1157" y="656"/>
      <point x="1081" y="731"/>
      <point x="989" y="731" type="curve" smooth="yes"/>
      <point x="928" y="731"/>
      <point x="881" y="709"/>
      <point x="813" y="657" type="curve" smooth="yes"/>
      <point x="646" y="531" type="line" smooth="yes"/>
      <point x="615" y="508"/>
      <point x="580" y="550"/>
      <point x="616" y="577" type="curve" smooth="yes"/>
      <point x="667" y="616" type="line" smooth="yes"/>
      <point x="703" y="643"/>
      <point x="723" y="668"/>
      <point x="723" y="703" type="curve" smooth="yes"/>
      <point x="723" y="743"/>
      <point x="686" y="781"/>
      <point x="607" y="781" type="curve" smooth="yes"/>
      <point x="512" y="781"/>
      <point x="466" y="734"/>
      <point x="503" y="645" type="curve" smooth="yes"/>
      <point x="554" y="523" type="line" smooth="yes"/>
      <point x="579" y="463"/>
      <point x="496" y="426"/>
      <point x="470" y="486" type="curve" smooth="yes"/>
      <point x="414" y="618" type="line" smooth="yes"/>
      <point x="383" y="690"/>
      <point x="333" y="731"/>
      <point x="258" y="731" type="curve" smooth="yes"/>
      <point x="157" y="731"/>
      <point x="61" y="658"/>
      <point x="58" y="468" type="curve" smooth="yes"/>
    </contour>
    <contour>
      <point x="188" y="558" type="curve" smooth="yes"/>
      <point x="527" y="383" type="line" smooth="yes"/>
      <point x="571" y="360"/>
      <point x="571" y="297"/>
      <point x="531" y="267" type="curve" smooth="yes"/>
      <point x="403" y="172" type="line" smooth="yes"/>
      <point x="349" y="132"/>
      <point x="308" y="141"/>
      <point x="277" y="193" type="curve" smooth="yes"/>
      <point x="111" y="471" type="line" smooth="yes"/>
      <point x="76" y="530"/>
      <point x="128" y="589"/>
    </contour>
    <contour>
      <point x="1003" y="179" type="curve" smooth="yes"/>
      <point x="691" y="375" type="line" smooth="yes"/>
      <point x="637" y="409"/>
      <point x="639" y="475"/>
      <point x="695" y="501" type="curve" smooth="yes"/>
      <point x="857" y="577" type="line" smooth="yes"/>
      <point x="902" y="598"/>
      <point x="934" y="587"/>
      <point x="958" y="538" type="curve" smooth="yes"/>
      <point x="1095" y="263" type="line" smooth="yes"/>
      <point x="1124" y="204"/>
      <point x="1060" y="143"/>
    </contour>
    <component base="module" xOffset="441" yOffset="577"/>
    <component base="module" xOffset="92" yOffset="540"/>
    <component base="module" xOffset="11" yOffset="50"/>
    <component base="module" xScale="-1" yScale="-1" xOffset="765" yOffset="191"/>
    <component base="module" xScale="-1" yScale="-1" xOffset="1064" yOffset="258"/>
    <component base="module" xScale="-1" yScale="-1" xOffset="1205" yOffset="708"/>
  </outline>
</glyph>
<glyph name="Tse-cy" format="2">
  <advance width="903"/>
  <unicode hex="0426"/>
  <outline>
    <contour>
      <point x="209" y="775" type="curve" smooth="yes"/>
      <point x="134" y="775"/>
      <point x="94" y="735"/>
      <point x="89" y="640" type="curve" smooth="yes"/>
      <point x="63" y="157" type="line" smooth="yes"/>
      <point x="56" y="35"/>
      <point x="97" y="-15"/>
      <point x="170" y="-15" type="curve" smooth="yes"/>
      <point x="227" y="-15"/>
      <point x="264" y="9"/>
      <point x="294" y="48" type="curve" smooth="yes"/>
      <point x="425" y="214" type="line" smooth="yes"/>
      <point x="447" y="242"/>
      <point x="484" y="232"/>
      <point x="484" y="197" type="curve" smooth="yes"/>
      <point x="484" y="112" type="line" smooth="yes"/>
      <point x="484" y="41"/>
      <point x="524" y="0"/>
      <point x="589" y="0" type="curve" smooth="yes"/>
      <point x="631" y="0"/>
      <point x="656" y="13"/>
      <point x="686" y="29" type="curve" smooth="yes"/>
      <point x="772" y="75" type="line" smooth="yes"/>
      <point x="821" y="101"/>
      <point x="853" y="34"/>
      <point x="814" y="12" type="curve" smooth="yes"/>
      <point x="722" y="-40" type="line" smooth="yes"/>
      <point x="638" y="-88"/>
      <point x="666" y="-200"/>
      <point x="753" y="-200" type="curve" smooth="yes"/>
      <point x="820" y="-200"/>
      <point x="873" y="-164"/>
      <point x="873" y="-47" type="curve" smooth="yes"/>
      <point x="873" y="202" type="line" smooth="yes"/>
      <point x="873" y="276"/>
      <point x="832" y="316"/>
      <point x="787" y="316" type="curve" smooth="yes"/>
      <point x="744" y="316"/>
      <point x="711" y="291"/>
      <point x="690" y="237" type="curve" smooth="yes"/>
      <point x="635" y="98" type="line" smooth="yes"/>
      <point x="611" y="37"/>
      <point x="540" y="70"/>
      <point x="560" y="122" type="curve" smooth="yes"/>
      <point x="736" y="571" type="line" smooth="yes"/>
      <point x="782" y="689"/>
      <point x="744" y="775"/>
      <point x="643" y="775" type="curve" smooth="yes"/>
      <point x="562" y="775"/>
      <point x="505" y="717"/>
      <point x="527" y="610" type="curve" smooth="yes"/>
      <point x="571" y="393" type="line" smooth="yes"/>
      <point x="581" y="344"/>
      <point x="569" y="316"/>
      <point x="529" y="303" type="curve" smooth="yes"/>
      <point x="188" y="195" type="line" smooth="yes"/>
      <point x="148" y="182"/>
      <point x="120" y="200"/>
      <point x="120" y="233" type="curve" smooth="yes"/>
      <point x="120" y="255"/>
      <point x="126" y="267"/>
      <point x="148" y="308" type="curve" smooth="yes"/>
      <point x="264" y="520" type="line" smooth="yes"/>
      <point x="298" y="583"/>
      <point x="317" y="628"/>
      <point x="317" y="671" type="curve" smooth="yes"/>
      <point x="317" y="732"/>
      <point x="277" y="775"/>
    </contour>
    <component base="module" xOffset="479" yOffset="544"/>
    <component base="module" xOffset="39" yOffset="544"/>
    <component base="module" xOffset="37" yOffset="-1"/>
    <component base="module" xOffset="614" yOffset="95"/>
  </outline>
</glyph>
<glyph name="Che-cy" format="2">
  <advance width="802"/>
  <unicode hex="0427"/>
  <unicode hex="0447"/>
  <outline>
    <contour>
      <point x="219" y="775" type="curve" smooth="yes"/>
      <point x="143" y="775"/>
      <point x="92" y="727"/>
      <point x="84" y="640" type="curve" smooth="yes"/>
      <point x="57" y="329" type="line" smooth="yes"/>
      <point x="47" y="213"/>
      <point x="86" y="148"/>
      <point x="191" y="148" type="curve" smooth="yes"/>
      <point x="278" y="148"/>
      <point x="353" y="203"/>
      <point x="411" y="264" type="curve" smooth="yes"/>
      <point x="563" y="426" type="line" smooth="yes"/>
      <point x="597" y="463"/>
      <point x="634" y="484"/>
      <point x="670" y="456" type="curve" smooth="yes"/>
      <point x="693" y="437"/>
      <point x="702" y="394"/>
      <point x="661" y="350" type="curve" smooth="yes"/>
      <point x="528" y="210" type="line" smooth="yes"/>
      <point x="488" y="167"/>
      <point x="464" y="132"/>
      <point x="464" y="82" type="curve" smooth="yes"/>
      <point x="464" y="25"/>
      <point x="505" y="-15"/>
      <point x="567" y="-15" type="curve" smooth="yes"/>
      <point x="662" y="-15"/>
      <point x="705" y="36"/>
      <point x="710" y="117" type="curve" smooth="yes"/>
      <point x="742" y="637" type="line" smooth="yes"/>
      <point x="748" y="727"/>
      <point x="708" y="775"/>
      <point x="618" y="775" type="curve" smooth="yes"/>
      <point x="519" y="775"/>
      <point x="479" y="695"/>
      <point x="535" y="592" type="curve" smooth="yes"/>
      <point x="557" y="552" type="line" smooth="yes"/>
      <point x="576" y="518"/>
      <point x="573" y="484"/>
      <point x="531" y="468" type="curve" smooth="yes"/>
      <point x="168" y="328" type="line" smooth="yes"/>
      <point x="114" y="307"/>
      <point x="71" y="363"/>
      <point x="113" y="406" type="curve" smooth="yes"/>
      <point x="268" y="567" type="line" smooth="yes"/>
      <point x="357" y="660"/>
      <point x="333" y="775"/>
    </contour>
    <component base="module" xOffset="432" yOffset="8"/>
    <component base="module" xOffset="39" yOffset="544"/>
    <component base="module" xOffset="81" yOffset="152"/>
    <component base="module" xOffset="489" yOffset="544"/>
  </outline>
</glyph>
<glyph name="Hardsign-cy" format="2">
  <advance width="937"/>
  <unicode hex="042A"/>
  <unicode hex="044A"/>
  <outline>
    <contour>
      <point x="613" y="462" type="line" smooth="yes"/>
      <point x="575" y="462"/>
      <point x="561" y="487"/>
      <point x="584" y="512" type="curve" smooth="yes"/>
      <point x="637" y="571" type="line" smooth="yes"/>
      <point x="673" y="611"/>
      <point x="683" y="646"/>
      <point x="683" y="671" type="curve" smooth="yes"/>
      <point x="683" y="721"/>
      <point x="643" y="760"/>
      <point x="575" y="760" type="curve" smooth="yes"/>
      <point x="205" y="760" type="line" smooth="yes"/>
      <point x="71" y="760"/>
      <point x="30" y="711"/>
      <point x="30" y="623" type="curve" smooth="yes"/>
      <point x="30" y="500"/>
      <point x="162" y="465"/>
      <point x="255" y="567" type="curve" smooth="yes"/>
      <point x="360" y="683" type="line" smooth="yes"/>
      <point x="415" y="744"/>
      <point x="501" y="680"/>
      <point x="451" y="624" type="curve" smooth="yes"/>
      <point x="252" y="400" type="line" smooth="yes"/>
      <point x="187" y="327"/>
      <point x="151" y="264"/>
      <point x="151" y="202" type="curve" smooth="yes"/>
      <point x="151" y="58"/>
      <point x="292" y="-15"/>
      <point x="522" y="-15" type="curve" smooth="yes"/>
      <point x="696" y="-15"/>
      <point x="897" y="59"/>
      <point x="897" y="260" type="curve" smooth="yes"/>
      <point x="897" y="365"/>
      <point x="846" y="462"/>
      <point x="707" y="462" type="curve" smooth="yes"/>
    </contour>
    <contour>
      <point x="259" y="149" type="line" smooth="yes"/>
      <point x="233" y="149"/>
      <point x="220" y="163"/>
      <point x="220" y="180" type="curve" smooth="yes"/>
      <point x="220" y="190"/>
      <point x="226" y="204"/>
      <point x="236" y="212" type="curve" smooth="yes"/>
      <point x="479" y="397" type="line" smooth="yes"/>
      <point x="523" y="431"/>
      <point x="554" y="442"/>
      <point x="611" y="394" type="curve" smooth="yes"/>
      <point x="815" y="220" type="line" smooth="yes"/>
      <point x="831" y="207"/>
      <point x="840" y="200"/>
      <point x="840" y="189" type="curve" smooth="yes"/>
      <point x="840" y="171"/>
      <point x="827" y="153"/>
      <point x="781" y="153" type="curve" smooth="yes"/>
    </contour>
    <component base="module" xOffset="615" yOffset="247"/>
    <component base="module" xOffset="326" yOffset="415"/>
    <component base="module" xOffset="-32" yOffset="516"/>
    <component base="module" xOffset="346" yOffset="-46"/>
  </outline>
</glyph>
<glyph name="Ereversed-cy" format="2">
  <advance width="830"/>
  <unicode hex="042D"/>
  <unicode hex="044D"/>
  <outline>
    <contour>
      <point x="358" y="-15" type="curve" smooth="yes"/>
      <point x="616" y="-15"/>
      <point x="770" y="144"/>
      <point x="770" y="407" type="curve" smooth="yes"/>
      <point x="770" y="613"/>
      <point x="611" y="775"/>
      <point x="403" y="775" type="curve" smooth="yes"/>
      <point x="187" y="775"/>
      <point x="74" y="653"/>
      <point x="74" y="544" type="curve" smooth="yes"/>
      <point x="74" y="470"/>
      <point x="114" y="434"/>
      <point x="185" y="434" type="curve" smooth="yes"/>
      <point x="253" y="434"/>
      <point x="294" y="484"/>
      <point x="279" y="563" type="curve" smooth="yes"/>
      <point x="263" y="650" type="line" smooth="yes"/>
      <point x="255" y="695"/>
      <point x="280" y="724"/>
      <point x="326" y="697" type="curve" smooth="yes"/>
      <point x="660" y="501" type="line" smooth="yes"/>
      <point x="703" y="476"/>
      <point x="691" y="434"/>
      <point x="643" y="434" type="curve" smooth="yes"/>
      <point x="403" y="434" type="line" smooth="yes"/>
      <point x="322" y="434"/>
      <point x="288" y="403"/>
      <point x="288" y="335" type="curve" smooth="yes"/>
      <point x="288" y="250"/>
      <point x="368" y="212"/>
      <point x="470" y="279" type="curve" smooth="yes"/>
      <point x="613" y="372" type="line" smooth="yes"/>
      <point x="672" y="410"/>
      <point x="729" y="329"/>
      <point x="672" y="291" type="curve" smooth="yes"/>
      <point x="326" y="63" type="line" smooth="yes"/>
      <point x="281" y="33"/>
      <point x="240" y="45"/>
      <point x="240" y="104" type="curve" smooth="yes"/>
      <point x="240" y="187" type="line" smooth="yes"/>
      <point x="240" y="323"/>
      <point x="60" y="311"/>
      <point x="60" y="196" type="curve" smooth="yes"/>
      <point x="60" y="71"/>
      <point x="187" y="-15"/>
    </contour>
    <component base="module" xOffset="385" yOffset="5"/>
    <component base="module" xOffset="351" yOffset="551"/>
    <component base="module" xOffset="212" yOffset="231"/>
    <component base="module" xOffset="17" yOffset="431"/>
    <component base="module" xOffset="-26" yOffset="79"/>
  </outline>
</glyph>
<glyph name="sha-cy" format="2">
  <advance width="1317"/>
  <unicode hex="0448"/>
  <outline>
    <contour>
      <point x="34" y="433" type="curve" smooth="yes"/>
      <point x="34" y="397"/>
      <point x="58" y="374"/>
      <point x="84" y="374" type="curve" smooth="yes"/>
      <point x="136" y="374"/>
      <point x="160" y="409"/>
      <point x="141" y="468" type="curve" smooth="yes"/>
      <point x="132" y="496"/>
      <point x="99" y="560"/>
      <point x="100" y="595" type="curve" smooth="yes"/>
      <point x="102" y="648"/>
      <point x="164" y="668"/>
      <point x="193" y="622" type="curve" smooth="yes"/>
      <point x="333" y="399" type="line" smooth="yes"/>
      <point x="369" y="341"/>
      <point x="371" y="313"/>
      <point x="339" y="275" type="curve" smooth="yes"/>
      <point x="245" y="165" type="line" smooth="yes"/>
      <point x="146" y="49"/>
      <point x="187" y="-15"/>
      <point x="255" y="-15" type="curve" smooth="yes"/>
      <point x="382" y="-15"/>
      <point x="539" y="135"/>
      <point x="607" y="207" type="curve" smooth="yes"/>
      <point x="686" y="290" type="line" smooth="yes"/>
      <point x="718" y="324"/>
      <point x="739" y="329"/>
      <point x="761" y="308" type="curve" smooth="yes"/>
      <point x="784" y="286"/>
      <point x="773" y="255"/>
      <point x="743" y="223" type="curve" smooth="yes"/>
      <point x="673" y="149" type="line" smooth="yes"/>
      <point x="586" y="57"/>
      <point x="620" y="-15"/>
      <point x="699" y="-15" type="curve" smooth="yes"/>
      <point x="843" y="-15"/>
      <point x="973" y="164"/>
      <point x="1036" y="248" type="curve" smooth="yes"/>
      <point x="1069" y="292"/>
      <point x="1113" y="269"/>
      <point x="1103" y="220" type="curve" smooth="yes"/>
      <point x="1087" y="145" type="line" smooth="yes"/>
      <point x="1069" y="60"/>
      <point x="1080" y="-15"/>
      <point x="1180" y="-15" type="curve" smooth="yes"/>
      <point x="1262" y="-15"/>
      <point x="1297" y="27"/>
      <point x="1297" y="82" type="curve" smooth="yes"/>
      <point x="1297" y="134"/>
      <point x="1266" y="166"/>
      <point x="1229" y="196" type="curve" smooth="yes"/>
      <point x="1175" y="239" type="line" smooth="yes"/>
      <point x="1155" y="255"/>
      <point x="1146" y="274"/>
      <point x="1155" y="304" type="curve" smooth="yes"/>
      <point x="1241" y="578" type="line" smooth="yes"/>
      <point x="1286" y="721"/>
      <point x="1214" y="775"/>
      <point x="1143" y="775" type="curve" smooth="yes"/>
      <point x="1066" y="775"/>
      <point x="1034" y="718"/>
      <point x="1022" y="602" type="curve" smooth="yes"/>
      <point x="990" y="292" type="line" smooth="yes"/>
      <point x="985" y="246"/>
      <point x="966" y="219"/>
      <point x="929" y="219" type="curve" smooth="yes"/>
      <point x="890" y="219" type="line" smooth="yes"/>
      <point x="850" y="219"/>
      <point x="826" y="240"/>
      <point x="824" y="292" type="curve" smooth="yes"/>
      <point x="810" y="606" type="line" smooth="yes"/>
      <point x="805" y="727"/>
      <point x="775" y="775"/>
      <point x="709" y="775" type="curve" smooth="yes"/>
      <point x="649" y="775"/>
      <point x="615" y="728"/>
      <point x="608" y="634" type="curve" smooth="yes"/>
      <point x="583" y="284" type="line" smooth="yes"/>
      <point x="579" y="234"/>
      <point x="551" y="218"/>
      <point x="521" y="218" type="curve" smooth="yes"/>
      <point x="463" y="218" type="line" smooth="yes"/>
      <point x="431" y="218"/>
      <point x="413" y="239"/>
      <point x="409" y="291" type="curve" smooth="yes"/>
      <point x="386" y="574" type="line" smooth="yes"/>
      <point x="373" y="736"/>
      <point x="346" y="775"/>
      <point x="249" y="775" type="curve" smooth="yes"/>
      <point x="75" y="775"/>
      <point x="34" y="652"/>
    </contour>
    <component base="module" xOffset="557" yOffset="-42"/>
    <component base="module" xOffset="136" yOffset="-42"/>
    <component base="module" xOffset="117" yOffset="540"/>
    <component base="module" xOffset="551" yOffset="540"/>
    <component base="module" xOffset="982" yOffset="552"/>
  </outline>
</glyph>
<glyph name="emdash" format="2">
  <advance width="1016"/>
  <unicode hex="2014"/>
  <outline>
    <contour>
      <point x="64" y="343" type="curve" smooth="yes"/>
      <point x="903" y="336" type="line" smooth="yes"/>
      <point x="964" y="335"/>
      <point x="983" y="378"/>
      <point x="973" y="418" type="curve" smooth="yes"/>
      <point x="964" y="455"/>
      <point x="937" y="463"/>
      <point x="864" y="456" type="curve" smooth="yes"/>
      <point x="66" y="383" type="line" smooth="yes"/>
      <point x="30" y="380"/>
      <point x="38" y="343"/>
    </contour>
  </outline>
</glyph>
<glyph name="A.ss02" format="2">
  <advance width="834"/>
  <anchor x="665" y="0" name="right"/>
  <anchor x="528" y="760" name="top"/>
  <outline>
    <contour>
      <point x="794" y="123"/>
      <point x="786" y="154"/>
      <point x="778" y="183" type="curve" smooth="yes"/>
      <point x="649" y="678" type="line" smooth="yes"/>
      <point x="631" y="747"/>
      <point x="582" y="774"/>
      <point x="534" y="774" type="curve" smooth="yes"/>
      <point x="483" y="774"/>
      <point x="451" y="758"/>
      <point x="399" y="678" type="curve" smooth="yes"/>
      <point x="75" y="176" type="line" smooth="yes"/>
      <point x="52" y="140"/>
      <point x="30" y="104"/>
      <point x="30" y="69" type="curve" smooth="yes"/>
      <point x="30" y="8"/>
      <point x="76" y="-15"/>
      <point x="114" y="-15" type="curve" smooth="yes"/>
      <point x="156" y="-15"/>
      <point x="196" y="8"/>
      <point x="225" y="61" type="curve" smooth="yes"/>
      <point x="261" y="126" type="line" smooth="yes"/>
      <point x="274" y="149"/>
      <point x="294" y="163"/>
      <point x="335" y="176" type="curve" smooth="yes"/>
      <point x="609" y="260" type="line" smooth="yes"/>
      <point x="630" y="266"/>
      <point x="648" y="274"/>
      <point x="665" y="274" type="curve" smooth="yes"/>
      <point x="677" y="274"/>
      <point x="687" y="267"/>
      <point x="687" y="249" type="curve" smooth="yes"/>
      <point x="687" y="236"/>
      <point x="676" y="217"/>
      <point x="656" y="192" type="curve" smooth="yes"/>
      <point x="642" y="175"/>
      <point x="615" y="148"/>
      <point x="597" y="108" type="curve" smooth="yes"/>
      <point x="566" y="39"/>
      <point x="609" y="-16"/>
      <point x="678" y="-16" type="curve" smooth="yes"/>
      <point x="738" y="-16"/>
      <point x="794" y="30"/>
      <point x="794" y="100" type="curve" smooth="yes"/>
    </contour>
    <contour>
      <point x="557" y="556" type="curve" smooth="yes"/>
      <point x="431" y="274" type="line" smooth="yes"/>
      <point x="415" y="238"/>
      <point x="389" y="231"/>
      <point x="363" y="243" type="curve" smooth="yes"/>
      <point x="344" y="252"/>
      <point x="335" y="281"/>
      <point x="354" y="337" type="curve" smooth="yes"/>
      <point x="455" y="637" type="line" smooth="yes"/>
      <point x="470" y="682"/>
      <point x="483" y="711"/>
      <point x="524" y="711" type="curve" smooth="yes"/>
      <point x="559" y="711"/>
      <point x="587" y="689"/>
      <point x="587" y="647" type="curve" smooth="yes"/>
      <point x="587" y="622"/>
      <point x="570" y="586"/>
    </contour>
    <component base="module" xOffset="-28" yOffset="-6"/>
    <component base="module" xOffset="537" yOffset="1"/>
    <component base="module" xOffset="430" yOffset="274"/>
  </outline>
</glyph>
<glyph name="De-cy.ss02" format="2">
  <advance width="1085"/>
  <outline>
    <contour>
      <point x="10" y="248" type="curve" smooth="yes"/>
      <point x="10" y="-47" type="line" smooth="yes"/>
      <point x="10" y="-164"/>
      <point x="56" y="-200"/>
      <point x="130" y="-200" type="curve" smooth="yes"/>
      <point x="226" y="-200"/>
      <point x="246" y="-86"/>
      <point x="166" y="-40" type="curve" smooth="yes"/>
      <point x="71" y="15" type="line" smooth="yes"/>
      <point x="30" y="39"/>
      <point x="63" y="107"/>
      <point x="112" y="78" type="curve" smooth="yes"/>
      <point x="187" y="34" type="line" smooth="yes"/>
      <point x="228" y="10"/>
      <point x="273" y="0"/>
      <point x="343" y="0" type="curve" smooth="yes"/>
      <point x="745" y="0" type="line" smooth="yes"/>
      <point x="812" y="0"/>
      <point x="851" y="8"/>
      <point x="888" y="31" type="curve" smooth="yes"/>
      <point x="964" y="78" type="line" smooth="yes"/>
      <point x="1013" y="108"/>
      <point x="1045" y="38"/>
      <point x="1006" y="15" type="curve" smooth="yes"/>
      <point x="919" y="-37" type="line" smooth="yes"/>
      <point x="835" y="-87"/>
      <point x="863" y="-200"/>
      <point x="950" y="-200" type="curve" smooth="yes"/>
      <point x="1022" y="-200"/>
      <point x="1065" y="-164"/>
      <point x="1065" y="-47" type="curve" smooth="yes"/>
      <point x="1065" y="232" type="line" smooth="yes"/>
      <point x="1065" y="305"/>
      <point x="1018" y="341"/>
      <point x="972" y="340" type="curve" smooth="yes"/>
      <point x="928" y="339"/>
      <point x="886" y="304"/>
      <point x="886" y="232" type="curve" smooth="yes"/>
      <point x="886" y="123" type="line" smooth="yes"/>
      <point x="886" y="79"/>
      <point x="819" y="74"/>
      <point x="815" y="117" type="curve" smooth="yes"/>
      <point x="776" y="579" type="line" smooth="yes"/>
      <point x="764" y="719"/>
      <point x="699" y="775"/>
      <point x="609" y="775" type="curve" smooth="yes"/>
      <point x="518" y="775"/>
      <point x="459" y="728"/>
      <point x="410" y="598" type="curve" smooth="yes"/>
      <point x="233" y="128" type="line" smooth="yes"/>
      <point x="216" y="84"/>
      <point x="152" y="107"/>
      <point x="166" y="152" type="curve" smooth="yes"/>
      <point x="183" y="206" type="line" smooth="yes"/>
      <point x="213" y="303"/>
      <point x="162" y="356"/>
      <point x="102" y="355" type="curve" smooth="yes"/>
      <point x="56" y="354"/>
      <point x="10" y="323"/>
    </contour>
    <contour>
      <point x="495" y="62" type="line" smooth="yes"/>
      <point x="452" y="41"/>
      <point x="414" y="62"/>
      <point x="417" y="102" type="curve" smooth="yes"/>
      <point x="456" y="596" type="line" smooth="yes"/>
      <point x="460" y="649"/>
      <point x="525" y="665"/>
      <point x="548" y="623" type="curve" smooth="yes"/>
      <point x="754" y="248" type="line" smooth="yes"/>
      <point x="768" y="222"/>
      <point x="763" y="192"/>
      <point x="730" y="176" type="curve" smooth="yes"/>
    </contour>
    <component base="module" xOffset="163" yOffset="16"/>
    <component base="module" xOffset="491" yOffset="520"/>
    <component base="module" xOffset="812" yOffset="113"/>
    <component base="module" xOffset="-65" yOffset="-221"/>
  </outline>
</glyph>
<glyph name="E-cy.ss03" format="2">
  <advance width="830"/>
  <outline>
    <contour>
      <point x="60" y="352" type="curve" smooth="yes"/>
      <point x="60" y="142"/>
      <point x="213" y="-15"/>
      <point x="438" y="-15" type="curve" smooth="yes"/>
      <point x="643" y="-15"/>
      <point x="770" y="71"/>
      <point x="770" y="196" type="curve" smooth="yes"/>
      <point x="770" y="284"/>
      <point x="650" y="331"/>
      <point x="585" y="227" type="curve" smooth="yes"/>
      <point x="555" y="179"/>
      <point x="489" y="220"/>
      <point x="519" y="267" type="curve" smooth="yes"/>
      <point x="536" y="293"/>
      <point x="542" y="314"/>
      <point x="542" y="341" type="curve" smooth="yes"/>
      <point x="542" y="403"/>
      <point x="508" y="434"/>
      <point x="427" y="434" type="curve" smooth="yes"/>
      <point x="187" y="434" type="line" smooth="yes"/>
      <point x="139" y="434"/>
      <point x="127" y="476"/>
      <point x="170" y="501" type="curve" smooth="yes"/>
      <point x="504" y="697" type="line" smooth="yes"/>
      <point x="550" y="724"/>
      <point x="575" y="695"/>
      <point x="567" y="650" type="curve" smooth="yes"/>
      <point x="551" y="563" type="line" smooth="yes"/>
      <point x="536" y="484"/>
      <point x="577" y="434"/>
      <point x="645" y="434" type="curve" smooth="yes"/>
      <point x="716" y="434"/>
      <point x="756" y="470"/>
      <point x="756" y="544" type="curve" smooth="yes"/>
      <point x="756" y="653"/>
      <point x="643" y="775"/>
      <point x="465" y="775" type="curve" smooth="yes"/>
      <point x="226" y="775"/>
      <point x="60" y="604"/>
    </contour>
    <contour>
      <point x="158" y="291" type="line" smooth="yes"/>
      <point x="101" y="329"/>
      <point x="158" y="411"/>
      <point x="217" y="372" type="curve" smooth="yes"/>
      <point x="562" y="145" type="line" smooth="yes"/>
      <point x="629" y="101"/>
      <point x="572" y="18"/>
      <point x="504" y="63" type="curve" smooth="yes"/>
    </contour>
    <component base="module" xOffset="114" yOffset="5"/>
    <component base="module" xOffset="148" yOffset="551"/>
    <component base="module" xOffset="287" yOffset="231"/>
    <component base="module" xOffset="482" yOffset="431"/>
    <component base="module" xOffset="525" yOffset="79"/>
  </outline>
</glyph>
<glyph name="E.ss03" format="2">
  <advance width="819"/>
  <anchor x="614" y="0" name="right"/>
  <anchor x="434" y="760" name="top"/>
  <outline>
    <contour>
      <point x="50" y="269" type="curve" smooth="yes"/>
      <point x="50" y="87"/>
      <point x="268" y="-16"/>
      <point x="524" y="-16" type="curve" smooth="yes"/>
      <point x="703" y="-16"/>
      <point x="764" y="25"/>
      <point x="764" y="88" type="curve" smooth="yes"/>
      <point x="764" y="120"/>
      <point x="747" y="150"/>
      <point x="672" y="143" type="curve" smooth="yes"/>
      <point x="232" y="104" type="line" smooth="yes"/>
      <point x="174" y="99"/>
      <point x="148" y="126"/>
      <point x="148" y="154" type="curve" smooth="yes"/>
      <point x="148" y="183"/>
      <point x="171" y="203"/>
      <point x="232" y="211" type="curve" smooth="yes"/>
      <point x="590" y="255" type="line" smooth="yes"/>
      <point x="666" y="264"/>
      <point x="692" y="310"/>
      <point x="692" y="358" type="curve" smooth="yes"/>
      <point x="692" y="393"/>
      <point x="677" y="433"/>
      <point x="603" y="466" type="curve" smooth="yes"/>
      <point x="561" y="485"/>
      <point x="558" y="506"/>
      <point x="571" y="534" type="curve" smooth="yes"/>
      <point x="582" y="559"/>
      <point x="593" y="568"/>
      <point x="633" y="556" type="curve" smooth="yes"/>
      <point x="719" y="529"/>
      <point x="761" y="552"/>
      <point x="764" y="611" type="curve" smooth="yes"/>
      <point x="767" y="668"/>
      <point x="739" y="700"/>
      <point x="686" y="725" type="curve" smooth="yes"/>
      <point x="628" y="752"/>
      <point x="478" y="775"/>
      <point x="344" y="774" type="curve" smooth="yes"/>
      <point x="211" y="774"/>
      <point x="91" y="744"/>
      <point x="91" y="644" type="curve" smooth="yes"/>
      <point x="91" y="607"/>
      <point x="116" y="571"/>
      <point x="161" y="539" type="curve" smooth="yes"/>
      <point x="459" y="332" type="line" smooth="yes"/>
      <point x="499" y="304"/>
      <point x="479" y="267"/>
      <point x="433" y="286" type="curve" smooth="yes"/>
      <point x="233" y="368" type="line" smooth="yes"/>
      <point x="135" y="408"/>
      <point x="50" y="360"/>
    </contour>
    <contour>
      <point x="145" y="654" type="curve" smooth="yes"/>
      <point x="145" y="676"/>
      <point x="172" y="717"/>
      <point x="221" y="700" type="curve" smooth="yes"/>
      <point x="486" y="607" type="line" smooth="yes"/>
      <point x="527" y="593"/>
      <point x="535" y="572"/>
      <point x="523" y="542" type="curve" smooth="yes"/>
      <point x="511" y="513"/>
      <point x="486" y="506"/>
      <point x="457" y="512" type="curve" smooth="yes"/>
      <point x="200" y="594" type="line" smooth="yes"/>
      <point x="153" y="609"/>
      <point x="145" y="629"/>
    </contour>
    <component base="module" xOffset="502" yOffset="532"/>
    <component base="module" xOffset="-8" yOffset="171"/>
    <component base="module" xOffset="510" yOffset="-42"/>
    <component base="module" xOffset="423" yOffset="254"/>
  </outline>
</glyph>
<glyph name="El-cy.ss02" format="2">
  <advance width="772"/>
  <outline>
    <contour>
      <point x="495" y="558" type="curve" smooth="yes"/>
      <point x="387" y="307" type="line" smooth="yes"/>
      <point x="365" y="256"/>
      <point x="345" y="231"/>
      <point x="345" y="205" type="curve" smooth="yes"/>
      <point x="345" y="178"/>
      <point x="366" y="154"/>
      <point x="399" y="154" type="curve" smooth="yes"/>
      <point x="427" y="154"/>
      <point x="452" y="176"/>
      <point x="488" y="205" type="curve" smooth="yes"/>
      <point x="557" y="260" type="line" smooth="yes"/>
      <point x="583" y="280"/>
      <point x="597" y="295"/>
      <point x="616" y="276" type="curve" smooth="yes"/>
      <point x="631" y="261"/>
      <point x="620" y="235"/>
      <point x="597" y="207" type="curve" smooth="yes"/>
      <point x="583" y="190"/>
      <point x="523" y="121"/>
      <point x="522" y="78" type="curve" smooth="yes"/>
      <point x="521" y="21"/>
      <point x="562" y="-15"/>
      <point x="616" y="-15" type="curve" smooth="yes"/>
      <point x="676" y="-15"/>
      <point x="732" y="31"/>
      <point x="732" y="101" type="curve" smooth="yes"/>
      <point x="732" y="124"/>
      <point x="724" y="155"/>
      <point x="716" y="184" type="curve" smooth="yes"/>
      <point x="587" y="680" type="line" smooth="yes"/>
      <point x="569" y="749"/>
      <point x="520" y="775"/>
      <point x="472" y="775" type="curve" smooth="yes"/>
      <point x="421" y="775"/>
      <point x="388" y="762"/>
      <point x="337" y="680" type="curve" smooth="yes"/>
      <point x="47" y="217" type="line" smooth="yes"/>
      <point x="22" y="178"/>
      <point x="-10" y="137"/>
      <point x="-10" y="95" type="curve" smooth="yes"/>
      <point x="-10" y="22"/>
      <point x="39" y="-15"/>
      <point x="88" y="-15" type="curve" smooth="yes"/>
      <point x="141" y="-15"/>
      <point x="183" y="12"/>
      <point x="204" y="75" type="curve" smooth="yes"/>
      <point x="377" y="594" type="line" smooth="yes"/>
      <point x="392" y="639"/>
      <point x="414" y="713"/>
      <point x="468" y="713" type="curve" smooth="yes"/>
      <point x="503" y="713"/>
      <point x="525" y="691"/>
      <point x="525" y="649" type="curve" smooth="yes"/>
      <point x="525" y="624"/>
      <point x="508" y="589"/>
    </contour>
    <component base="module" xOffset="365" yOffset="263"/>
    <component base="module" xOffset="479" yOffset="-27"/>
    <component base="module" xOffset="-36" yOffset="-17"/>
  </outline>
</glyph>
<glyph name="El-cy.ss04" format="2">
  <advance width="858"/>
  <outline>
    <contour>
      <point x="-5" y="91" type="curve" smooth="yes"/>
      <point x="-5" y="27"/>
      <point x="37" y="-15"/>
      <point x="102" y="-15" type="curve" smooth="yes"/>
      <point x="172" y="-15"/>
      <point x="213" y="23"/>
      <point x="250" y="120" type="curve" smooth="yes"/>
      <point x="456" y="668" type="line" smooth="yes"/>
      <point x="474" y="716"/>
      <point x="499" y="733"/>
      <point x="539" y="705" type="curve" smooth="yes"/>
      <point x="676" y="607" type="line" smooth="yes"/>
      <point x="702" y="589"/>
      <point x="701" y="563"/>
      <point x="674" y="546" type="curve" smooth="yes"/>
      <point x="503" y="436" type="line" smooth="yes"/>
      <point x="444" y="398"/>
      <point x="468" y="318"/>
      <point x="534" y="323" type="curve" smooth="yes"/>
      <point x="692" y="336" type="line" smooth="yes"/>
      <point x="732" y="339"/>
      <point x="750" y="301"/>
      <point x="716" y="273" type="curve" smooth="yes"/>
      <point x="622" y="196" type="line" smooth="yes"/>
      <point x="520" y="113"/>
      <point x="560" y="-15"/>
      <point x="675" y="-15" type="curve" smooth="yes"/>
      <point x="754" y="-15"/>
      <point x="801" y="30"/>
      <point x="798" y="141" type="curve" smooth="yes"/>
      <point x="786" y="577" type="line" smooth="yes"/>
      <point x="783" y="684"/>
      <point x="752" y="760"/>
      <point x="634" y="760" type="curve" smooth="yes"/>
      <point x="379" y="760" type="line" smooth="yes"/>
      <point x="231" y="760"/>
      <point x="177" y="678"/>
      <point x="223" y="534" type="curve" smooth="yes"/>
      <point x="267" y="397" type="line" smooth="yes"/>
      <point x="283" y="347"/>
      <point x="278" y="318"/>
      <point x="225" y="293" type="curve" smooth="yes"/>
      <point x="108" y="239" type="line" smooth="yes"/>
      <point x="31" y="204"/>
      <point x="-5" y="159"/>
    </contour>
    <component base="module" xOffset="479" yOffset="319"/>
    <component base="module" xOffset="-51" yOffset="-3"/>
    <component base="module" xOffset="156" yOffset="508"/>
    <component base="module" xOffset="532" yOffset="6"/>
  </outline>
</glyph>
<glyph name="G.ss03" format="2">
  <advance width="895"/>
  <outline>
    <contour>
      <point x="60" y="366" type="curve" smooth="yes"/>
      <point x="60" y="113"/>
      <point x="170" y="-15"/>
      <point x="288" y="-15" type="curve" smooth="yes"/>
      <point x="378" y="-15"/>
      <point x="420" y="18"/>
      <point x="497" y="119" type="curve" smooth="yes"/>
      <point x="661" y="333" type="line" smooth="yes"/>
      <point x="697" y="381"/>
      <point x="712" y="383"/>
      <point x="731" y="383" type="curve" smooth="yes"/>
      <point x="753" y="383"/>
      <point x="778" y="360"/>
      <point x="757" y="328" type="curve" smooth="yes"/>
      <point x="650" y="163" type="line" smooth="yes"/>
      <point x="584" y="62"/>
      <point x="643" y="-15"/>
      <point x="717" y="-15" type="curve" smooth="yes"/>
      <point x="791" y="-15"/>
      <point x="840" y="28"/>
      <point x="835" y="136" type="curve" smooth="yes"/>
      <point x="825" y="346" type="line" smooth="yes"/>
      <point x="823" y="388"/>
      <point x="804" y="422"/>
      <point x="771" y="429" type="curve" smooth="yes"/>
      <point x="732" y="437"/>
      <point x="714" y="483"/>
      <point x="752" y="512" type="curve" smooth="yes"/>
      <point x="781" y="534"/>
      <point x="803" y="565"/>
      <point x="791" y="607" type="curve" smooth="yes"/>
      <point x="760" y="713"/>
      <point x="634" y="775"/>
      <point x="444" y="775" type="curve" smooth="yes"/>
      <point x="217" y="775"/>
      <point x="60" y="626"/>
    </contour>
    <contour>
      <point x="162" y="280" type="curve" smooth="yes"/>
      <point x="323" y="390" type="line" smooth="yes"/>
      <point x="384" y="431"/>
      <point x="388" y="484"/>
      <point x="350" y="532" type="curve" smooth="yes"/>
      <point x="321" y="569" type="line" smooth="yes"/>
      <point x="284" y="615"/>
      <point x="280" y="691"/>
      <point x="350" y="721" type="curve" smooth="yes"/>
      <point x="410" y="747"/>
      <point x="475" y="726"/>
      <point x="508" y="683" type="curve" smooth="yes"/>
      <point x="619" y="537" type="line" smooth="yes"/>
      <point x="693" y="449"/>
      <point x="698" y="431"/>
      <point x="624" y="388" type="curve" smooth="yes"/>
      <point x="230" y="153" type="line" smooth="yes"/>
      <point x="153" y="107"/>
      <point x="87" y="229"/>
    </contour>
    <component base="module" xOffset="519" yOffset="501"/>
    <component base="module" xOffset="560" yOffset="-18"/>
    <component base="module" xOffset="184" yOffset="-18"/>
    <component base="module" xOffset="47" yOffset="387"/>
  </outline>
</glyph>
<glyph name="Iu-cy.ss03" format="2">
  <advance width="1107"/>
  <outline>
    <contour>
      <point x="61" y="115" type="line" smooth="yes"/>
      <point x="53" y="20"/>
      <point x="105" y="-15"/>
      <point x="169" y="-15" type="curve" smooth="yes"/>
      <point x="244" y="-15"/>
      <point x="285" y="30"/>
      <point x="285" y="88" type="curve" smooth="yes"/>
      <point x="285" y="120"/>
      <point x="265" y="156"/>
      <point x="231" y="191" type="curve" smooth="yes"/>
      <point x="205" y="217"/>
      <point x="173" y="236"/>
      <point x="173" y="260" type="curve" smooth="yes"/>
      <point x="173" y="275"/>
      <point x="183" y="285"/>
      <point x="225" y="307" type="curve" smooth="yes"/>
      <point x="289" y="341" type="line" smooth="yes"/>
      <point x="326" y="361"/>
      <point x="351" y="346"/>
      <point x="360" y="311" type="curve" smooth="yes"/>
      <point x="379" y="241" type="line" smooth="yes"/>
      <point x="433" y="43"/>
      <point x="535" y="-15"/>
      <point x="703" y="-15" type="curve" smooth="yes"/>
      <point x="910" y="-15"/>
      <point x="1047" y="150"/>
      <point x="1047" y="413" type="curve" smooth="yes"/>
      <point x="1047" y="644"/>
      <point x="925" y="775"/>
      <point x="681" y="775" type="curve" smooth="yes"/>
      <point x="585" y="775"/>
      <point x="521" y="743"/>
      <point x="456" y="680" type="curve" smooth="yes"/>
      <point x="412" y="638"/>
      <point x="381" y="642"/>
      <point x="352" y="693" type="curve" smooth="yes"/>
      <point x="321" y="747"/>
      <point x="286" y="775"/>
      <point x="244" y="775" type="curve" smooth="yes"/>
      <point x="139" y="775"/>
      <point x="109" y="680"/>
      <point x="103" y="608" type="curve" smooth="yes"/>
    </contour>
    <contour>
      <point x="142" y="464" type="curve" smooth="yes"/>
      <point x="142" y="483"/>
      <point x="147" y="495"/>
      <point x="177" y="515" type="curve" smooth="yes"/>
      <point x="325" y="612" type="line" smooth="yes"/>
      <point x="364" y="638"/>
      <point x="395" y="619"/>
      <point x="392" y="578" type="curve" smooth="yes"/>
      <point x="384" y="474" type="line" smooth="yes"/>
      <point x="382" y="442"/>
      <point x="369" y="423"/>
      <point x="340" y="423" type="curve" smooth="yes"/>
      <point x="200" y="423" type="line" smooth="yes"/>
      <point x="166" y="423"/>
      <point x="142" y="437"/>
    </contour>
    <contour>
      <point x="435" y="293" type="line" smooth="yes"/>
      <point x="376" y="347"/>
      <point x="398" y="409"/>
      <point x="451" y="441" type="curve" smooth="yes"/>
      <point x="805" y="658" type="line" smooth="yes"/>
      <point x="886" y="707"/>
      <point x="952" y="641"/>
      <point x="927" y="557" type="curve" smooth="yes"/>
      <point x="794" y="103" type="line" smooth="yes"/>
      <point x="777" y="46"/>
      <point x="719" y="31"/>
      <point x="671" y="76" type="curve" smooth="yes"/>
    </contour>
    <component base="module" xOffset="769" yOffset="161"/>
    <component base="module" xOffset="398" yOffset="536"/>
    <component base="module" xOffset="359" yOffset="-9"/>
    <component base="module" xOffset="68" yOffset="550"/>
    <component base="module" xOffset="-4" yOffset="-10"/>
  </outline>
</glyph>
<glyph name="M.ss03" format="2">
  <advance width="1136"/>
  <outline>
    <contour>
      <point x="65" y="262" type="line" smooth="yes"/>
      <point x="65" y="117"/>
      <point x="81" y="-15"/>
      <point x="212" y="-15" type="curve" smooth="yes"/>
      <point x="266" y="-15"/>
      <point x="298" y="11"/>
      <point x="312" y="49" type="curve" smooth="yes"/>
      <point x="338" y="136"/>
      <point x="356" y="151"/>
      <point x="404" y="151" type="curve" smooth="yes"/>
      <point x="431" y="151"/>
      <point x="448" y="134"/>
      <point x="463" y="103" type="curve" smooth="yes"/>
      <point x="503" y="20"/>
      <point x="541" y="-15"/>
      <point x="589" y="-15" type="curve" smooth="yes"/>
      <point x="655" y="-15"/>
      <point x="685" y="45"/>
      <point x="716" y="141" type="curve" smooth="yes"/>
      <point x="741" y="221"/>
      <point x="840" y="195"/>
      <point x="840" y="101" type="curve" smooth="yes"/>
      <point x="840" y="50"/>
      <point x="866" y="-15"/>
      <point x="950" y="-15" type="curve" smooth="yes"/>
      <point x="1006" y="-15"/>
      <point x="1072" y="20"/>
      <point x="1071" y="134" type="curve" smooth="yes"/>
      <point x="1069" y="467" type="line" smooth="yes"/>
      <point x="1068" y="709"/>
      <point x="1017" y="775"/>
      <point x="891" y="775" type="curve" smooth="yes"/>
      <point x="733" y="775"/>
      <point x="635" y="659"/>
      <point x="662" y="473" type="curve" smooth="yes"/>
      <point x="688" y="295" type="line" smooth="yes"/>
      <point x="699" y="222"/>
      <point x="684" y="190"/>
      <point x="652" y="190" type="curve" smooth="yes"/>
      <point x="633" y="190"/>
      <point x="613" y="202"/>
      <point x="598" y="239" type="curve" smooth="yes"/>
      <point x="436" y="632" type="line" smooth="yes"/>
      <point x="393" y="736"/>
      <point x="327" y="776"/>
      <point x="248" y="776" type="curve" smooth="yes"/>
      <point x="132" y="776"/>
      <point x="65" y="698"/>
      <point x="65" y="473" type="curve" smooth="yes"/>
    </contour>
    <contour>
      <point x="139" y="624" type="curve" smooth="yes"/>
      <point x="139" y="681"/>
      <point x="172" y="723"/>
      <point x="228" y="723" type="curve" smooth="yes"/>
      <point x="274" y="723"/>
      <point x="315" y="697"/>
      <point x="307" y="646" type="curve" smooth="yes"/>
      <point x="298" y="589" type="line" smooth="yes"/>
      <point x="285" y="506"/>
      <point x="306" y="416"/>
      <point x="336" y="356" type="curve" smooth="yes"/>
      <point x="382" y="264" type="line" smooth="yes"/>
      <point x="406" y="202"/>
      <point x="377" y="181"/>
      <point x="349" y="181" type="curve" smooth="yes"/>
      <point x="312" y="181"/>
      <point x="293" y="211"/>
      <point x="274" y="252" type="curve" smooth="yes"/>
      <point x="161" y="529" type="line" smooth="yes"/>
      <point x="152" y="551"/>
      <point x="139" y="596"/>
    </contour>
    <contour>
      <point x="764" y="293" type="curve" smooth="yes"/>
      <point x="876" y="668" type="line" smooth="yes"/>
      <point x="903" y="757"/>
      <point x="1009" y="728"/>
      <point x="986" y="645" type="curve" smooth="yes"/>
      <point x="873" y="246" type="line" smooth="yes"/>
      <point x="856" y="187"/>
      <point x="739" y="209"/>
    </contour>
    <component base="module" xOffset="35" yOffset="-1"/>
    <component base="module" xOffset="238" yOffset="344"/>
    <component base="module" xOffset="582" yOffset="475"/>
    <component base="module" xOffset="801" yOffset="12"/>
  </outline>
</glyph>
<glyph name="N.ss01" format="2">
  <advance width="882"/>
  <anchor x="446" y="0" name="bottom"/>
  <anchor x="456" y="760" name="top"/>
  <outline>
    <contour>
      <point x="693" y="775" type="curve" smooth="yes"/>
      <point x="585" y="775"/>
      <point x="586" y="682"/>
      <point x="623" y="570" type="curve" smooth="yes"/>
      <point x="736" y="229" type="line" smooth="yes"/>
      <point x="743" y="207"/>
      <point x="754" y="162"/>
      <point x="754" y="134" type="curve" smooth="yes"/>
      <point x="754" y="77"/>
      <point x="728" y="35"/>
      <point x="672" y="35" type="curve" smooth="yes"/>
      <point x="636" y="35"/>
      <point x="605" y="61"/>
      <point x="613" y="112" type="curve" smooth="yes"/>
      <point x="622" y="169" type="line" smooth="yes"/>
      <point x="635" y="252"/>
      <point x="592" y="334"/>
      <point x="551" y="388" type="curve" smooth="yes"/>
      <point x="365" y="634" type="line" smooth="yes"/>
      <point x="292" y="730"/>
      <point x="263" y="775"/>
      <point x="202" y="775" type="curve" smooth="yes"/>
      <point x="137" y="775"/>
      <point x="95" y="731"/>
      <point x="93" y="635" type="curve" smooth="yes"/>
      <point x="82" y="172" type="line" smooth="yes"/>
      <point x="80" y="80"/>
      <point x="102" y="-16"/>
      <point x="201" y="-16" type="curve" smooth="yes"/>
      <point x="285" y="-16"/>
      <point x="311" y="49"/>
      <point x="311" y="100" type="curve" smooth="yes"/>
      <point x="311" y="124"/>
      <point x="321" y="160"/>
      <point x="288" y="220" type="curve" smooth="yes"/>
      <point x="156" y="457" type="line" smooth="yes"/>
      <point x="139" y="487"/>
      <point x="135" y="513"/>
      <point x="135" y="531" type="curve" smooth="yes"/>
      <point x="135" y="553"/>
      <point x="147" y="564"/>
      <point x="172" y="564" type="curve" smooth="yes"/>
      <point x="190" y="564"/>
      <point x="202" y="550"/>
      <point x="228" y="512" type="curve" smooth="yes"/>
      <point x="490" y="132" type="line" smooth="yes"/>
      <point x="553" y="40"/>
      <point x="601" y="-16"/>
      <point x="672" y="-16" type="curve" smooth="yes"/>
      <point x="788" y="-16"/>
      <point x="812" y="63"/>
      <point x="822" y="287" type="curve" smooth="yes"/>
      <point x="833" y="531" type="line" smooth="yes"/>
      <point x="840" y="676"/>
      <point x="824" y="775"/>
    </contour>
    <component base="module" xOffset="554" yOffset="545"/>
    <component base="module" xOffset="308" yOffset="206"/>
    <component base="module" xOffset="39" yOffset="-5"/>
  </outline>
</glyph>
<glyph name="S.ss03" format="2">
  <advance width="834"/>
  <outline>
    <contour>
      <point x="42" y="229" type="curve" smooth="yes"/>
      <point x="42" y="113"/>
      <point x="124" y="-14"/>
      <point x="364" y="-14" type="curve" smooth="yes"/>
      <point x="593" y="-14"/>
      <point x="774" y="126"/>
      <point x="774" y="265" type="curve" smooth="yes"/>
      <point x="774" y="309"/>
      <point x="752" y="341"/>
      <point x="707" y="360" type="curve" smooth="yes"/>
      <point x="688" y="368"/>
      <point x="683" y="375"/>
      <point x="683" y="383" type="curve" smooth="yes"/>
      <point x="683" y="411"/>
      <point x="770" y="393"/>
      <point x="770" y="523" type="curve" smooth="yes"/>
      <point x="770" y="703"/>
      <point x="599" y="777"/>
      <point x="426" y="777" type="curve" smooth="yes"/>
      <point x="250" y="777"/>
      <point x="72" y="682"/>
      <point x="72" y="508" type="curve" smooth="yes"/>
      <point x="72" y="467"/>
      <point x="99" y="427"/>
      <point x="140" y="417" type="curve" smooth="yes"/>
      <point x="203" y="402" type="line" smooth="yes"/>
      <point x="243" y="393"/>
      <point x="259" y="388"/>
      <point x="260" y="351" type="curve" smooth="yes"/>
      <point x="261" y="313" type="line" smooth="yes"/>
      <point x="263" y="241"/>
      <point x="328" y="177"/>
      <point x="423" y="221" type="curve" smooth="yes"/>
      <point x="635" y="319" type="line" smooth="yes"/>
      <point x="669" y="335"/>
      <point x="700" y="330"/>
      <point x="710" y="293" type="curve" smooth="yes"/>
      <point x="720" y="256"/>
      <point x="684" y="240"/>
      <point x="642" y="220" type="curve" smooth="yes"/>
      <point x="292" y="51" type="line" smooth="yes"/>
      <point x="232" y="22"/>
      <point x="202" y="47"/>
      <point x="202" y="95" type="curve" smooth="yes"/>
      <point x="202" y="265" type="line" smooth="yes"/>
      <point x="202" y="307"/>
      <point x="172" y="348"/>
      <point x="124" y="348" type="curve" smooth="yes"/>
      <point x="64" y="348"/>
      <point x="42" y="284"/>
    </contour>
    <contour>
      <point x="132" y="492" type="curve" smooth="yes"/>
      <point x="129" y="513"/>
      <point x="139" y="532"/>
      <point x="182" y="541" type="curve" smooth="yes"/>
      <point x="613" y="634" type="line" smooth="yes"/>
      <point x="646" y="641"/>
      <point x="667" y="642"/>
      <point x="683" y="631" type="curve" smooth="yes"/>
      <point x="693" y="624"/>
      <point x="696" y="606"/>
      <point x="684" y="588" type="curve" smooth="yes"/>
      <point x="640" y="522" type="line" smooth="yes"/>
      <point x="623" y="496"/>
      <point x="617" y="475"/>
      <point x="618" y="458" type="curve" smooth="yes"/>
      <point x="618" y="422"/>
      <point x="651" y="420"/>
      <point x="648" y="394" type="curve" smooth="yes"/>
      <point x="647" y="382"/>
      <point x="634" y="373"/>
      <point x="612" y="377" type="curve" smooth="yes"/>
      <point x="180" y="455" type="line" smooth="yes"/>
      <point x="148" y="461"/>
      <point x="135" y="470"/>
    </contour>
    <component base="module" xOffset="213" yOffset="201"/>
    <component base="module" xOffset="211" yOffset="561"/>
    <component base="module" xOffset="404" yOffset="-8"/>
    <component base="module" xOffset="-38" yOffset="121"/>
  </outline>
</glyph>
<glyph name="Sha-cy.ss05" format="2">
  <advance width="1125"/>
  <outline>
    <contour>
      <point x="61" y="133" type="line" smooth="yes"/>
      <point x="55" y="26"/>
      <point x="91" y="-15"/>
      <point x="159" y="-15" type="curve" smooth="yes"/>
      <point x="226" y="-15"/>
      <point x="258" y="18"/>
      <point x="295" y="61" type="curve" smooth="yes"/>
      <point x="416" y="202" type="line" smooth="yes"/>
      <point x="440" y="229"/>
      <point x="466" y="223"/>
      <point x="475" y="187" type="curve" smooth="yes"/>
      <point x="508" y="61" type="line" smooth="yes"/>
      <point x="521" y="11"/>
      <point x="547" y="-15"/>
      <point x="597" y="-15" type="curve" smooth="yes"/>
      <point x="648" y="-15"/>
      <point x="678" y="19"/>
      <point x="707" y="69" type="curve" smooth="yes"/>
      <point x="786" y="206" type="line" smooth="yes"/>
      <point x="809" y="247"/>
      <point x="845" y="246"/>
      <point x="856" y="199" type="curve" smooth="yes"/>
      <point x="876" y="110" type="line" smooth="yes"/>
      <point x="894" y="29"/>
      <point x="932" y="0"/>
      <point x="995" y="0" type="curve" smooth="yes"/>
      <point x="1061" y="0"/>
      <point x="1100" y="41"/>
      <point x="1100" y="104" type="curve" smooth="yes"/>
      <point x="1100" y="178"/>
      <point x="1065" y="210"/>
      <point x="992" y="230" type="curve" smooth="yes"/>
      <point x="918" y="250" type="line" smooth="yes"/>
      <point x="896" y="256"/>
      <point x="890" y="279"/>
      <point x="905" y="304" type="curve" smooth="yes"/>
      <point x="1066" y="572" type="line" smooth="yes"/>
      <point x="1132" y="682"/>
      <point x="1077" y="775"/>
      <point x="983" y="775" type="curve" smooth="yes"/>
      <point x="908" y="775"/>
      <point x="858" y="724"/>
      <point x="858" y="629" type="curve" smooth="yes"/>
      <point x="859" y="375" type="line" smooth="yes"/>
      <point x="859" y="331"/>
      <point x="846" y="305"/>
      <point x="804" y="287" type="curve" smooth="yes"/>
      <point x="611" y="204" type="line" smooth="yes"/>
      <point x="577" y="189"/>
      <point x="547" y="213"/>
      <point x="547" y="241" type="curve" smooth="yes"/>
      <point x="547" y="263"/>
      <point x="552" y="273"/>
      <point x="566" y="314" type="curve" smooth="yes"/>
      <point x="667" y="605" type="line" smooth="yes"/>
      <point x="692" y="676"/>
      <point x="678" y="775"/>
      <point x="572" y="775" type="curve" smooth="yes"/>
      <point x="497" y="775"/>
      <point x="437" y="735"/>
      <point x="461" y="620" type="curve" smooth="yes"/>
      <point x="508" y="393" type="line" smooth="yes"/>
      <point x="518" y="343"/>
      <point x="506" y="314"/>
      <point x="461" y="297" type="curve" smooth="yes"/>
      <point x="192" y="196" type="line" smooth="yes"/>
      <point x="143" y="178"/>
      <point x="119" y="204"/>
      <point x="119" y="232" type="curve" smooth="yes"/>
      <point x="119" y="254"/>
      <point x="126" y="266"/>
      <point x="144" y="301" type="curve" smooth="yes"/>
      <point x="258" y="520" type="line" smooth="yes"/>
      <point x="290" y="582"/>
      <point x="311" y="628"/>
      <point x="311" y="671" type="curve" smooth="yes"/>
      <point x="311" y="732"/>
      <point x="271" y="775"/>
      <point x="208" y="775" type="curve" smooth="yes"/>
      <point x="133" y="775"/>
      <point x="93" y="735"/>
      <point x="88" y="640" type="curve" smooth="yes"/>
    </contour>
    <component base="module" xOffset="44" yOffset="547"/>
    <component base="module" xOffset="454" yOffset="-17"/>
    <component base="module" xOffset="17" yOffset="-17"/>
    <component base="module" xOffset="844" yOffset="-17"/>
    <component base="module" xOffset="421" yOffset="547"/>
    <component base="module" xOffset="824" yOffset="547"/>
  </outline>
</glyph>
<glyph name="Shcha-cy.ss03" format="2">
  <advance width="1226"/>
  <outline>
    <contour>
      <point x="1113" y="321" type="curve" smooth="yes"/>
      <point x="1071" y="321"/>
      <point x="1038" y="300"/>
      <point x="1016" y="245" type="curve" smooth="yes"/>
      <point x="957" y="97" type="line" smooth="yes"/>
      <point x="933" y="38"/>
      <point x="857" y="68"/>
      <point x="880" y="125" type="curve" smooth="yes"/>
      <point x="1059" y="571" type="line" smooth="yes"/>
      <point x="1106" y="688"/>
      <point x="1067" y="775"/>
      <point x="966" y="775" type="curve" smooth="yes"/>
      <point x="912" y="775"/>
      <point x="875" y="756"/>
      <point x="851" y="700" type="curve" smooth="yes"/>
      <point x="837" y="666"/>
      <point x="820" y="653"/>
      <point x="791" y="653" type="curve" smooth="yes"/>
      <point x="755" y="653"/>
      <point x="739" y="670"/>
      <point x="719" y="706" type="curve" smooth="yes"/>
      <point x="694" y="749"/>
      <point x="669" y="775"/>
      <point x="627" y="775" type="curve" smooth="yes"/>
      <point x="582" y="775"/>
      <point x="552" y="755"/>
      <point x="516" y="690" type="curve" smooth="yes"/>
      <point x="263" y="231" type="line" smooth="yes"/>
      <point x="212" y="139"/>
      <point x="76" y="189"/>
      <point x="135" y="296" type="curve" smooth="yes"/>
      <point x="258" y="520" type="line" smooth="yes"/>
      <point x="292" y="582"/>
      <point x="311" y="628"/>
      <point x="311" y="671" type="curve" smooth="yes"/>
      <point x="311" y="732"/>
      <point x="271" y="775"/>
      <point x="208" y="775" type="curve" smooth="yes"/>
      <point x="133" y="775"/>
      <point x="93" y="735"/>
      <point x="88" y="640" type="curve" smooth="yes"/>
      <point x="62" y="158" type="line" smooth="yes"/>
      <point x="56" y="46"/>
      <point x="111" y="-15"/>
      <point x="201" y="-15" type="curve" smooth="yes"/>
      <point x="295" y="-15"/>
      <point x="363" y="26"/>
      <point x="378" y="156" type="curve" smooth="yes"/>
      <point x="401" y="360" type="line" smooth="yes"/>
      <point x="409" y="430"/>
      <point x="490" y="431"/>
      <point x="493" y="360" type="curve" smooth="yes"/>
      <point x="505" y="102" type="line" smooth="yes"/>
      <point x="509" y="23"/>
      <point x="544" y="-15"/>
      <point x="598" y="-15" type="curve" smooth="yes"/>
      <point x="646" y="-15"/>
      <point x="674" y="10"/>
      <point x="694" y="64" type="curve" smooth="yes"/>
      <point x="740" y="186" type="line" smooth="yes"/>
      <point x="756" y="229"/>
      <point x="807" y="218"/>
      <point x="807" y="174" type="curve" smooth="yes"/>
      <point x="807" y="116" type="line" smooth="yes"/>
      <point x="807" y="34"/>
      <point x="848" y="0"/>
      <point x="911" y="0" type="curve" smooth="yes"/>
      <point x="953" y="0"/>
      <point x="986" y="14"/>
      <point x="1016" y="31" type="curve" smooth="yes"/>
      <point x="1095" y="75" type="line" smooth="yes"/>
      <point x="1144" y="102"/>
      <point x="1176" y="34"/>
      <point x="1137" y="12" type="curve" smooth="yes"/>
      <point x="1045" y="-40" type="line" smooth="yes"/>
      <point x="961" y="-88"/>
      <point x="989" y="-200"/>
      <point x="1076" y="-200" type="curve" smooth="yes"/>
      <point x="1153" y="-200"/>
      <point x="1196" y="-164"/>
      <point x="1196" y="-47" type="curve" smooth="yes"/>
      <point x="1196" y="212" type="line" smooth="yes"/>
      <point x="1196" y="283"/>
      <point x="1156" y="321"/>
    </contour>
    <contour>
      <point x="614" y="204" type="line" smooth="yes"/>
      <point x="580" y="190"/>
      <point x="550" y="213"/>
      <point x="550" y="241" type="curve" smooth="yes"/>
      <point x="550" y="263"/>
      <point x="551" y="273"/>
      <point x="569" y="314" type="curve" smooth="yes"/>
      <point x="676" y="565" type="line" smooth="yes"/>
      <point x="694" y="608"/>
      <point x="717" y="620"/>
      <point x="755" y="620" type="curve" smooth="yes"/>
      <point x="820" y="619"/>
      <point x="857" y="585"/>
      <point x="867" y="523" type="curve" smooth="yes"/>
      <point x="889" y="393" type="line" smooth="yes"/>
      <point x="897" y="344"/>
      <point x="889" y="321"/>
      <point x="847" y="303" type="curve" smooth="yes"/>
    </contour>
    <component base="module" xOffset="44" yOffset="547"/>
    <component base="module" xOffset="454" yOffset="-17"/>
    <component base="module" xOffset="47" yOffset="-17"/>
    <component base="module" xOffset="942" yOffset="89"/>
    <component base="module" xOffset="441" yOffset="547"/>
    <component base="module" xOffset="824" yOffset="547"/>
  </outline>
</glyph>
<glyph name="Shcha-cy.ss05" format="2">
  <advance width="1226"/>
  <outline>
    <contour>
      <point x="61" y="133" type="line" smooth="yes"/>
      <point x="55" y="26"/>
      <point x="91" y="-15"/>
      <point x="159" y="-15" type="curve" smooth="yes"/>
      <point x="226" y="-15"/>
      <point x="256" y="18"/>
      <point x="290" y="61" type="curve" smooth="yes"/>
      <point x="404" y="204" type="line" smooth="yes"/>
      <point x="430" y="237"/>
      <point x="454" y="232"/>
      <point x="463" y="193" type="curve" smooth="yes"/>
      <point x="494" y="59" type="line" smooth="yes"/>
      <point x="505" y="13"/>
      <point x="529" y="-15"/>
      <point x="572" y="-15" type="curve" smooth="yes"/>
      <point x="624" y="-15"/>
      <point x="650" y="14"/>
      <point x="676" y="64" type="curve" smooth="yes"/>
      <point x="740" y="186" type="line" smooth="yes"/>
      <point x="762" y="229"/>
      <point x="807" y="218"/>
      <point x="807" y="174" type="curve" smooth="yes"/>
      <point x="807" y="116" type="line" smooth="yes"/>
      <point x="807" y="34"/>
      <point x="848" y="0"/>
      <point x="911" y="0" type="curve" smooth="yes"/>
      <point x="953" y="0"/>
      <point x="986" y="14"/>
      <point x="1016" y="31" type="curve" smooth="yes"/>
      <point x="1095" y="75" type="line" smooth="yes"/>
      <point x="1144" y="102"/>
      <point x="1176" y="34"/>
      <point x="1137" y="12" type="curve" smooth="yes"/>
      <point x="1045" y="-40" type="line" smooth="yes"/>
      <point x="961" y="-88"/>
      <point x="989" y="-200"/>
      <point x="1076" y="-200" type="curve" smooth="yes"/>
      <point x="1153" y="-200"/>
      <point x="1196" y="-164"/>
      <point x="1196" y="-47" type="curve" smooth="yes"/>
      <point x="1196" y="212" type="line" smooth="yes"/>
      <point x="1196" y="283"/>
      <point x="1156" y="321"/>
      <point x="1113" y="321" type="curve" smooth="yes"/>
      <point x="1071" y="321"/>
      <point x="1038" y="300"/>
      <point x="1016" y="245" type="curve" smooth="yes"/>
      <point x="957" y="97" type="line" smooth="yes"/>
      <point x="933" y="38"/>
      <point x="857" y="68"/>
      <point x="880" y="125" type="curve" smooth="yes"/>
      <point x="1059" y="571" type="line" smooth="yes"/>
      <point x="1106" y="688"/>
      <point x="1067" y="775"/>
      <point x="966" y="775" type="curve" smooth="yes"/>
      <point x="886" y="775"/>
      <point x="833" y="725"/>
      <point x="851" y="617" type="curve" smooth="yes"/>
      <point x="889" y="393" type="line" smooth="yes"/>
      <point x="897" y="344"/>
      <point x="885" y="318"/>
      <point x="847" y="303" type="curve" smooth="yes"/>
      <point x="601" y="205" type="line" smooth="yes"/>
      <point x="567" y="191"/>
      <point x="537" y="213"/>
      <point x="537" y="241" type="curve" smooth="yes"/>
      <point x="537" y="263"/>
      <point x="540" y="273"/>
      <point x="554" y="310" type="curve" smooth="yes"/>
      <point x="667" y="605" type="line" smooth="yes"/>
      <point x="697" y="682"/>
      <point x="677" y="775"/>
      <point x="571" y="775" type="curve" smooth="yes"/>
      <point x="496" y="775"/>
      <point x="442" y="736"/>
      <point x="461" y="620" type="curve" smooth="yes"/>
      <point x="498" y="392" type="line" smooth="yes"/>
      <point x="505" y="347"/>
      <point x="496" y="315"/>
      <point x="451" y="297" type="curve" smooth="yes"/>
      <point x="192" y="196" type="line" smooth="yes"/>
      <point x="147" y="178"/>
      <point x="119" y="199"/>
      <point x="119" y="227" type="curve" smooth="yes"/>
      <point x="119" y="259"/>
      <point x="126" y="266"/>
      <point x="147" y="307" type="curve" smooth="yes"/>
      <point x="258" y="520" type="line" smooth="yes"/>
      <point x="290" y="582"/>
      <point x="311" y="628"/>
      <point x="311" y="671" type="curve" smooth="yes"/>
      <point x="311" y="732"/>
      <point x="271" y="775"/>
      <point x="208" y="775" type="curve" smooth="yes"/>
      <point x="133" y="775"/>
      <point x="93" y="735"/>
      <point x="88" y="640" type="curve" smooth="yes"/>
    </contour>
    <component base="module" xOffset="44" yOffset="547"/>
    <component base="module" xOffset="434" yOffset="-17"/>
    <component base="module" xOffset="17" yOffset="-17"/>
    <component base="module" xOffset="946" yOffset="90"/>
    <component base="module" xOffset="401" yOffset="547"/>
    <component base="module" xOffset="804" yOffset="547"/>
  </outline>
</glyph>
<glyph name="Tshe-cy.ss03" format="2">
  <advance width="1002"/>
  <outline>
    <contour>
      <point x="15" y="529" type="curve" smooth="yes"/>
      <point x="15" y="461"/>
      <point x="57" y="410"/>
      <point x="117" y="410" type="curve" smooth="yes"/>
      <point x="155" y="410"/>
      <point x="183" y="426"/>
      <point x="204" y="459" type="curve" smooth="yes"/>
      <point x="224" y="490"/>
      <point x="235" y="498"/>
      <point x="268" y="494" type="curve" smooth="yes"/>
      <point x="304" y="490"/>
      <point x="309" y="460"/>
      <point x="307" y="415" type="curve" smooth="yes"/>
      <point x="296" y="146" type="line" smooth="yes"/>
      <point x="291" y="30"/>
      <point x="345" y="-15"/>
      <point x="426" y="-15" type="curve" smooth="yes"/>
      <point x="540" y="-15"/>
      <point x="565" y="95"/>
      <point x="484" y="169" type="curve" smooth="yes"/>
      <point x="446" y="204" type="line" smooth="yes"/>
      <point x="417" y="231"/>
      <point x="425" y="267"/>
      <point x="458" y="276" type="curve" smooth="yes"/>
      <point x="801" y="373" type="line" smooth="yes"/>
      <point x="861" y="390"/>
      <point x="900" y="329"/>
      <point x="855" y="282" type="curve" smooth="yes"/>
      <point x="771" y="196" type="line" smooth="yes"/>
      <point x="731" y="156"/>
      <point x="711" y="119"/>
      <point x="711" y="77" type="curve" smooth="yes"/>
      <point x="711" y="26"/>
      <point x="749" y="-15"/>
      <point x="813" y="-15" type="curve" smooth="yes"/>
      <point x="899" y="-15"/>
      <point x="943" y="36"/>
      <point x="944" y="124" type="curve" smooth="yes"/>
      <point x="946" y="242" type="line" smooth="yes"/>
      <point x="947" y="327"/>
      <point x="918" y="379"/>
      <point x="854" y="416" type="curve" smooth="yes"/>
      <point x="771" y="464" type="line" smooth="yes"/>
      <point x="671" y="522"/>
      <point x="595" y="517"/>
      <point x="516" y="424" type="curve" smooth="yes"/>
      <point x="419" y="310" type="line" smooth="yes"/>
      <point x="384" y="269"/>
      <point x="329" y="300"/>
      <point x="352" y="353" type="curve" smooth="yes"/>
      <point x="497" y="690" type="line" smooth="yes"/>
      <point x="512" y="726"/>
      <point x="550" y="730"/>
      <point x="577" y="698" type="curve" smooth="yes"/>
      <point x="641" y="622" type="line" smooth="yes"/>
      <point x="681" y="574"/>
      <point x="718" y="548"/>
      <point x="768" y="548" type="curve" smooth="yes"/>
      <point x="828" y="548"/>
      <point x="871" y="590"/>
      <point x="871" y="649" type="curve" smooth="yes"/>
      <point x="871" y="726"/>
      <point x="807" y="760"/>
      <point x="735" y="760" type="curve" smooth="yes"/>
      <point x="291" y="760" type="line" smooth="yes"/>
      <point x="125" y="760"/>
      <point x="15" y="660"/>
    </contour>
    <contour>
      <point x="232" y="583" type="curve" smooth="yes"/>
      <point x="232" y="647" type="line" smooth="yes"/>
      <point x="232" y="691"/>
      <point x="242" y="724"/>
      <point x="276" y="724" type="curve" smooth="yes"/>
      <point x="303" y="724"/>
      <point x="317" y="698"/>
      <point x="315" y="631" type="curve" smooth="yes"/>
      <point x="312" y="545"/>
      <point x="304" y="533"/>
      <point x="273" y="533" type="curve" smooth="yes"/>
      <point x="250" y="533"/>
      <point x="232" y="549"/>
    </contour>
    <component base="module" xOffset="294" yOffset="7"/>
    <component base="module" xOffset="-38" yOffset="423"/>
    <component base="module" xOffset="480" yOffset="300"/>
    <component base="module" xOffset="609" yOffset="534"/>
    <component base="module" xOffset="678" yOffset="-15"/>
  </outline>
</glyph>
<glyph name="U.ss03" format="2">
  <advance width="792"/>
  <anchor x="394" y="760" name="top"/>
  <outline>
    <contour>
      <point x="60" y="295" type="line" smooth="yes"/>
      <point x="60" y="105"/>
      <point x="198" y="-15"/>
      <point x="400" y="-15" type="curve" smooth="yes"/>
      <point x="617" y="-15"/>
      <point x="732" y="75"/>
      <point x="732" y="268" type="curve" smooth="yes"/>
      <point x="732" y="643" type="line" smooth="yes"/>
      <point x="732" y="730"/>
      <point x="704" y="775"/>
      <point x="632" y="775" type="curve" smooth="yes"/>
      <point x="575" y="775"/>
      <point x="541" y="739"/>
      <point x="541" y="691" type="curve" smooth="yes"/>
      <point x="541" y="654"/>
      <point x="563" y="628"/>
      <point x="607" y="577" type="curve" smooth="yes"/>
      <point x="665" y="510" type="line" smooth="yes"/>
      <point x="685" y="487"/>
      <point x="678" y="470"/>
      <point x="667" y="459" type="curve" smooth="yes"/>
      <point x="659" y="451"/>
      <point x="641" y="444"/>
      <point x="620" y="461" type="curve" smooth="yes"/>
      <point x="504" y="555" type="line" smooth="yes"/>
      <point x="472" y="581"/>
      <point x="442" y="588"/>
      <point x="418" y="584" type="curve" smooth="yes"/>
      <point x="325" y="565"/>
      <point x="290" y="594"/>
      <point x="285" y="678" type="curve" smooth="yes"/>
      <point x="282" y="729"/>
      <point x="245" y="775"/>
      <point x="177" y="775" type="curve" smooth="yes"/>
      <point x="101" y="775"/>
      <point x="60" y="730"/>
      <point x="60" y="619" type="curve" smooth="yes"/>
    </contour>
    <contour>
      <point x="139" y="407" type="curve" smooth="yes"/>
      <point x="204" y="503" type="line" smooth="yes"/>
      <point x="222" y="530"/>
      <point x="243" y="537"/>
      <point x="265" y="537" type="curve" smooth="yes"/>
      <point x="297" y="537"/>
      <point x="335" y="526"/>
      <point x="403" y="453" type="curve" smooth="yes"/>
      <point x="607" y="232" type="line" smooth="yes"/>
      <point x="630" y="208"/>
      <point x="654" y="162"/>
      <point x="624" y="120" type="curve" smooth="yes"/>
      <point x="594" y="78"/>
      <point x="541" y="72"/>
      <point x="455" y="116" type="curve" smooth="yes"/>
      <point x="171" y="262" type="line" smooth="yes"/>
      <point x="112" y="292"/>
      <point x="98" y="346"/>
    </contour>
    <component base="module" xOffset="11" yOffset="551"/>
    <component base="module" xOffset="479" yOffset="564"/>
    <component base="module" xOffset="342" yOffset="355"/>
    <component base="module" xOffset="116" yOffset="-11"/>
  </outline>
</glyph>
<glyph name="V.ss02" format="2">
  <advance width="837"/>
  <outline>
    <contour>
      <point x="58" y="637" type="curve" smooth="yes"/>
      <point x="58" y="585"/>
      <point x="89" y="512"/>
      <point x="201" y="535" type="curve" smooth="yes"/>
      <point x="330" y="561" type="line" smooth="yes"/>
      <point x="407" y="576"/>
      <point x="456" y="550"/>
      <point x="456" y="485" type="curve" smooth="yes"/>
      <point x="456" y="441"/>
      <point x="412" y="406"/>
      <point x="364" y="401" type="curve" smooth="yes"/>
      <point x="218" y="386" type="line" smooth="yes"/>
      <point x="139" y="378"/>
      <point x="74" y="337"/>
      <point x="74" y="223" type="curve" smooth="yes"/>
      <point x="74" y="165"/>
      <point x="143" y="-15"/>
      <point x="390" y="-15" type="curve" smooth="yes"/>
      <point x="694" y="-15"/>
      <point x="787" y="255"/>
      <point x="787" y="585" type="curve" smooth="yes"/>
      <point x="787" y="728"/>
      <point x="730" y="773"/>
      <point x="668" y="773" type="curve" smooth="yes"/>
      <point x="567" y="773"/>
      <point x="480" y="695"/>
      <point x="570" y="570" type="curve" smooth="yes"/>
      <point x="687" y="408" type="line" smooth="yes"/>
      <point x="751" y="320"/>
      <point x="712" y="189"/>
      <point x="548" y="188" type="curve" smooth="yes"/>
      <point x="232" y="187" type="line" smooth="yes"/>
      <point x="154" y="187"/>
      <point x="133" y="210"/>
      <point x="133" y="257" type="curve" smooth="yes"/>
      <point x="133" y="302"/>
      <point x="164" y="360"/>
      <point x="241" y="338" type="curve" smooth="yes"/>
      <point x="459" y="276" type="line" smooth="yes"/>
      <point x="580" y="241"/>
      <point x="668" y="350"/>
      <point x="543" y="497" type="curve" smooth="yes"/>
      <point x="416" y="646" type="line" smooth="yes"/>
      <point x="316" y="763"/>
      <point x="264" y="776"/>
      <point x="198" y="776" type="curve" smooth="yes"/>
      <point x="113" y="776"/>
      <point x="58" y="716"/>
    </contour>
    <component base="module" xOffset="231" yOffset="-21"/>
    <component base="module" xOffset="19" yOffset="538"/>
    <component base="module" xOffset="509" yOffset="523"/>
  </outline>
</glyph>
<glyph name="V.ss04" format="2">
  <advance width="853"/>
  <outline>
    <contour>
      <point x="791" y="524" type="line" smooth="yes"/>
      <point x="812" y="565"/>
      <point x="828" y="614"/>
      <point x="828" y="656" type="curve" smooth="yes"/>
      <point x="828" y="730"/>
      <point x="790" y="775"/>
      <point x="726" y="775" type="curve" smooth="yes"/>
      <point x="632" y="775"/>
      <point x="598" y="718"/>
      <point x="593" y="578" type="curve" smooth="yes"/>
      <point x="582" y="272" type="line" smooth="yes"/>
      <point x="580" y="220"/>
      <point x="563" y="199"/>
      <point x="527" y="199" type="curve" smooth="yes"/>
      <point x="446" y="199" type="line" smooth="yes"/>
      <point x="404" y="199"/>
      <point x="388" y="226"/>
      <point x="388" y="272" type="curve" smooth="yes"/>
      <point x="388" y="574" type="line" smooth="yes"/>
      <point x="388" y="736"/>
      <point x="346" y="775"/>
      <point x="249" y="775" type="curve" smooth="yes"/>
      <point x="75" y="775"/>
      <point x="34" y="652"/>
      <point x="34" y="433" type="curve" smooth="yes"/>
      <point x="34" y="397"/>
      <point x="58" y="374"/>
      <point x="84" y="374" type="curve" smooth="yes"/>
      <point x="136" y="374"/>
      <point x="160" y="409"/>
      <point x="141" y="468" type="curve" smooth="yes"/>
      <point x="132" y="496"/>
      <point x="100" y="570"/>
      <point x="100" y="605" type="curve" smooth="yes"/>
      <point x="100" y="638"/>
      <point x="124" y="651"/>
      <point x="145" y="651" type="curve" smooth="yes"/>
      <point x="164" y="651"/>
      <point x="183" y="637"/>
      <point x="199" y="605" type="curve" smooth="yes"/>
      <point x="326" y="350" type="line" smooth="yes"/>
      <point x="341" y="320"/>
      <point x="347" y="306"/>
      <point x="347" y="284" type="curve" smooth="yes"/>
      <point x="347" y="268"/>
      <point x="341" y="249"/>
      <point x="326" y="239" type="curve" smooth="yes"/>
      <point x="236" y="176" type="line" smooth="yes"/>
      <point x="194" y="146"/>
      <point x="178" y="108"/>
      <point x="178" y="78" type="curve" smooth="yes"/>
      <point x="178" y="21"/>
      <point x="231" y="-15"/>
      <point x="294" y="-15" type="curve" smooth="yes"/>
      <point x="404" y="-15"/>
      <point x="563" y="73"/>
      <point x="663" y="271" type="curve" smooth="yes"/>
    </contour>
    <component base="module" xOffset="571" yOffset="540"/>
    <component base="module" xOffset="136" yOffset="-41"/>
    <component base="module" xOffset="117" yOffset="540"/>
  </outline>
</glyph>
<glyph name="VTF" format="2">
  <advance width="822"/>
  <outline>
    <contour>
      <point x="330" y="361" type="line" smooth="yes"/>
      <point x="339" y="350"/>
      <point x="356" y="335"/>
      <point x="382" y="335" type="curve" smooth="yes"/>
      <point x="404" y="335"/>
      <point x="416" y="343"/>
      <point x="426" y="354" type="curve" smooth="yes"/>
      <point x="625" y="575" type="line" smooth="yes"/>
      <point x="706" y="664"/>
      <point x="639" y="744"/>
      <point x="564" y="744" type="curve" smooth="yes"/>
      <point x="521" y="744"/>
      <point x="473" y="717"/>
      <point x="459" y="645" type="curve" smooth="yes"/>
      <point x="416" y="423" type="line" smooth="yes"/>
      <point x="409" y="389"/>
      <point x="397" y="375"/>
      <point x="384" y="376" type="curve" smooth="yes"/>
      <point x="372" y="377"/>
      <point x="360" y="390"/>
      <point x="355" y="422" type="curve" smooth="yes"/>
      <point x="316" y="654" type="line" smooth="yes"/>
      <point x="305" y="722"/>
      <point x="257" y="747"/>
      <point x="214" y="745" type="curve" smooth="yes"/>
      <point x="144" y="742"/>
      <point x="83" y="672"/>
      <point x="153" y="584" type="curve" smooth="yes"/>
    </contour>
    <contour>
      <point x="634" y="457" type="curve" smooth="yes"/>
      <point x="427" y="320" type="line" smooth="yes"/>
      <point x="398" y="301"/>
      <point x="375" y="295"/>
      <point x="333" y="317" type="curve"/>
      <point x="225" y="396"/>
      <point x="112" y="386"/>
      <point x="44" y="303" type="curve" smooth="yes"/>
      <point x="11" y="263"/>
      <point x="12" y="203"/>
      <point x="51" y="168" type="curve" smooth="yes"/>
      <point x="98" y="125"/>
      <point x="162" y="143"/>
      <point x="234" y="231" type="curve" smooth="yes"/>
      <point x="257" y="259" type="line" smooth="yes"/>
      <point x="303" y="314"/>
      <point x="357" y="301"/>
      <point x="341" y="237" type="curve" smooth="yes"/>
      <point x="305" y="97" type="line" smooth="yes"/>
      <point x="272" y="-32"/>
      <point x="286" y="-82"/>
      <point x="339" y="-96" type="curve" smooth="yes"/>
      <point x="407" y="-114"/>
      <point x="491" y="-67"/>
      <point x="450" y="58" type="curve" smooth="yes"/>
      <point x="395" y="227" type="line" smooth="yes"/>
      <point x="379" y="275"/>
      <point x="419" y="272"/>
      <point x="477" y="278" type="curve" smooth="yes"/>
      <point x="670" y="297" type="line" smooth="yes"/>
      <point x="887" y="318"/>
      <point x="808" y="572"/>
    </contour>
    <contour>
      <point x="693" y="167"/>
      <point x="578" y="222"/>
      <point x="460" y="233" type="curve" smooth="yes"/>
      <point x="438" y="235"/>
      <point x="431" y="218"/>
      <point x="443" y="204" type="curve" smooth="yes"/>
      <point x="484" y="156"/>
      <point x="505" y="118"/>
      <point x="532" y="76" type="curve" smooth="yes"/>
      <point x="578" y="4"/>
      <point x="673" y="20"/>
      <point x="682" y="85" type="curve" smooth="yes"/>
    </contour>
    <component base="module" xScale="-1" xOffset="717" yOffset="534"/>
    <component base="module" xScale="-1" xOffset="287" yOffset="136"/>
    <component base="module" xScale="-1" xOffset="863" yOffset="285"/>
    <component base="module" xScale="-1" xOffset="529" yOffset="-111"/>
    <component base="module" xScale="-1" xOffset="759" yOffset="-2"/>
    <component base="module" xScale="-1" xOffset="391" yOffset="535"/>
  </outline>
</glyph>
<glyph name="W.ss04" format="2">
  <advance width="1268"/>
  <outline>
    <contour>
      <point x="1139" y="775" type="curve" smooth="yes"/>
      <point x="1045" y="775"/>
      <point x="1009" y="718"/>
      <point x="1007" y="578" type="curve" smooth="yes"/>
      <point x="1002" y="282" type="line" smooth="yes"/>
      <point x="1001" y="242"/>
      <point x="982" y="209"/>
      <point x="938" y="209" type="curve" smooth="yes"/>
      <point x="896" y="209"/>
      <point x="877" y="237"/>
      <point x="870" y="282" type="curve" smooth="yes"/>
      <point x="819" y="606" type="line" smooth="yes"/>
      <point x="800" y="727"/>
      <point x="787" y="775"/>
      <point x="714" y="775" type="curve" smooth="yes"/>
      <point x="650" y="775"/>
      <point x="626" y="733"/>
      <point x="613" y="657" type="curve" smooth="yes"/>
      <point x="553" y="300" type="line" smooth="yes"/>
      <point x="543" y="242"/>
      <point x="519" y="218"/>
      <point x="489" y="218" type="curve" smooth="yes"/>
      <point x="447" y="218"/>
      <point x="430" y="246"/>
      <point x="424" y="291" type="curve" smooth="yes"/>
      <point x="386" y="574" type="line" smooth="yes"/>
      <point x="364" y="736"/>
      <point x="346" y="775"/>
      <point x="249" y="775" type="curve" smooth="yes"/>
      <point x="75" y="775"/>
      <point x="34" y="652"/>
      <point x="34" y="433" type="curve" smooth="yes"/>
      <point x="34" y="397"/>
      <point x="58" y="374"/>
      <point x="84" y="374" type="curve" smooth="yes"/>
      <point x="136" y="374"/>
      <point x="160" y="409"/>
      <point x="141" y="468" type="curve" smooth="yes"/>
      <point x="132" y="496"/>
      <point x="99" y="560"/>
      <point x="100" y="595" type="curve" smooth="yes"/>
      <point x="102" y="648"/>
      <point x="164" y="668"/>
      <point x="193" y="622" type="curve" smooth="yes"/>
      <point x="333" y="399" type="line" smooth="yes"/>
      <point x="369" y="341"/>
      <point x="371" y="313"/>
      <point x="339" y="275" type="curve" smooth="yes"/>
      <point x="245" y="165" type="line" smooth="yes"/>
      <point x="146" y="49"/>
      <point x="187" y="-15"/>
      <point x="255" y="-15" type="curve" smooth="yes"/>
      <point x="382" y="-15"/>
      <point x="534" y="155"/>
      <point x="597" y="230" type="curve" smooth="yes"/>
      <point x="714" y="369" type="line" smooth="yes"/>
      <point x="744" y="405"/>
      <point x="766" y="403"/>
      <point x="788" y="382" type="curve" smooth="yes"/>
      <point x="811" y="360"/>
      <point x="803" y="326"/>
      <point x="775" y="293" type="curve" smooth="yes"/>
      <point x="670" y="171" type="line" smooth="yes"/>
      <point x="570" y="55"/>
      <point x="618" y="-15"/>
      <point x="686" y="-15" type="curve" smooth="yes"/>
      <point x="813" y="-15"/>
      <point x="998" y="129"/>
      <point x="1044" y="216" type="curve" smooth="yes"/>
      <point x="1206" y="524" type="line" smooth="yes"/>
      <point x="1228" y="566"/>
      <point x="1243" y="614"/>
      <point x="1243" y="656" type="curve" smooth="yes"/>
      <point x="1243" y="737"/>
      <point x="1217" y="775"/>
    </contour>
    <component base="module" xOffset="557" yOffset="-42"/>
    <component base="module" xOffset="136" yOffset="-42"/>
    <component base="module" xOffset="117" yOffset="540"/>
    <component base="module" xOffset="551" yOffset="540"/>
    <component base="module" xOffset="982" yOffset="552"/>
  </outline>
</glyph>
<glyph name="Ze-cy.ss03" format="2">
  <advance width="851"/>
  <outline>
    <contour>
      <point x="55" y="221" type="curve" smooth="yes"/>
      <point x="55" y="109"/>
      <point x="146" y="-14"/>
      <point x="378" y="-14" type="curve" smooth="yes"/>
      <point x="649" y="-14"/>
      <point x="821" y="125"/>
      <point x="821" y="275" type="curve" smooth="yes"/>
      <point x="821" y="373"/>
      <point x="773" y="418"/>
      <point x="692" y="423" type="curve" smooth="yes"/>
      <point x="513" y="435" type="line" smooth="yes"/>
      <point x="462" y="438"/>
      <point x="468" y="511"/>
      <point x="516" y="509" type="curve" smooth="yes"/>
      <point x="617" y="505" type="line" smooth="yes"/>
      <point x="724" y="501"/>
      <point x="779" y="555"/>
      <point x="779" y="618" type="curve" smooth="yes"/>
      <point x="779" y="689"/>
      <point x="707" y="773"/>
      <point x="481" y="773" type="curve" smooth="yes"/>
      <point x="233" y="773"/>
      <point x="64" y="683"/>
      <point x="64" y="580" type="curve" smooth="yes"/>
      <point x="64" y="487"/>
      <point x="175" y="450"/>
      <point x="267" y="531" type="curve" smooth="yes"/>
      <point x="441" y="683" type="line" smooth="yes"/>
      <point x="481" y="718"/>
      <point x="504" y="733"/>
      <point x="542" y="733" type="curve" smooth="yes"/>
      <point x="585" y="733"/>
      <point x="617" y="673"/>
      <point x="562" y="624" type="curve" smooth="yes"/>
      <point x="348" y="436" type="line" smooth="yes"/>
      <point x="323" y="414"/>
      <point x="309" y="392"/>
      <point x="301" y="356" type="curve" smooth="yes"/>
      <point x="296" y="333"/>
      <point x="288" y="322"/>
      <point x="266" y="315" type="curve" smooth="yes"/>
      <point x="244" y="308"/>
      <point x="229" y="312"/>
      <point x="209" y="327" type="curve" smooth="yes"/>
      <point x="189" y="342"/>
      <point x="172" y="346"/>
      <point x="152" y="346" type="curve" smooth="yes"/>
      <point x="77" y="346"/>
      <point x="55" y="282"/>
    </contour>
    <contour>
      <point x="241" y="93" type="curve" smooth="yes"/>
      <point x="241" y="220" type="line" smooth="yes"/>
      <point x="241" y="252"/>
      <point x="252" y="269"/>
      <point x="277" y="277" type="curve" smooth="yes"/>
      <point x="300" y="285"/>
      <point x="316" y="280"/>
      <point x="331" y="268" type="curve" smooth="yes"/>
      <point x="360" y="243"/>
      <point x="409" y="233"/>
      <point x="476" y="266" type="curve" smooth="yes"/>
      <point x="656" y="354" type="line" smooth="yes"/>
      <point x="758" y="404"/>
      <point x="805" y="280"/>
      <point x="717" y="238" type="curve" smooth="yes"/>
      <point x="314" y="45" type="line" smooth="yes"/>
      <point x="275" y="26"/>
      <point x="241" y="54"/>
    </contour>
    <component base="module" xOffset="526" yOffset="518"/>
    <component base="module" xOffset="-8" yOffset="115"/>
    <component base="module" xOffset="421" yOffset="-12"/>
    <component base="module" xOffset="30" yOffset="506"/>
    <component base="module" xOffset="259" yOffset="254"/>
  </outline>
</glyph>
<glyph name=".notdef" format="2">
  <advance width="1120"/>
  <outline>
    <contour>
      <point x="355" y="-40" type="line"/>
      <point x="1020" y="-40" type="line"/>
      <point x="1020" y="60" type="line"/>
      <point x="355" y="60" type="line"/>
    </contour>
    <contour>
      <point x="100" y="-40" type="line"/>
      <point x="115" y="-40" type="line"/>
      <point x="115" y="-25" type="line"/>
      <point x="100" y="-25" type="line"/>
    </contour>
    <contour>
      <point x="140" y="-40" type="line"/>
      <point x="150" y="-40" type="line"/>
      <point x="150" y="5" type="line"/>
      <point x="190" y="5" type="line"/>
      <point x="190" y="15" type="line"/>
      <point x="150" y="15" type="line"/>
      <point x="150" y="50" type="line"/>
      <point x="210" y="50" type="line"/>
      <point x="210" y="60" type="line"/>
      <point x="140" y="60" type="line"/>
    </contour>
    <contour>
      <point x="235" y="-40" type="line"/>
      <point x="245" y="-40" type="line"/>
      <point x="245" y="0" type="line"/>
      <point x="310" y="0" type="line"/>
      <point x="310" y="-40" type="line"/>
      <point x="320" y="-40" type="line"/>
      <point x="320" y="10" type="line"/>
      <point x="290" y="10" type="line"/>
      <point x="290" y="60" type="line"/>
      <point x="235" y="60" type="line"/>
    </contour>
    <contour>
      <point x="150" y="110" type="line"/>
      <point x="160" y="110" type="line"/>
      <point x="160" y="140" type="line"/>
      <point x="175" y="140" type="line"/>
      <point x="175" y="170" type="line"/>
      <point x="190" y="170" type="line"/>
      <point x="190" y="200" type="line"/>
      <point x="205" y="200" type="line"/>
      <point x="205" y="210" type="line"/>
      <point x="180" y="210" type="line"/>
      <point x="180" y="180" type="line"/>
      <point x="165" y="180" type="line"/>
      <point x="165" y="150" type="line"/>
      <point x="145" y="150" type="line"/>
      <point x="145" y="180" type="line"/>
      <point x="130" y="180" type="line"/>
      <point x="130" y="210" type="line"/>
      <point x="105" y="210" type="line"/>
      <point x="105" y="200" type="line"/>
      <point x="120" y="200" type="line"/>
      <point x="120" y="170" type="line"/>
      <point x="135" y="170" type="line"/>
      <point x="135" y="140" type="line"/>
      <point x="150" y="140" type="line"/>
    </contour>
    <contour>
      <point x="280" y="10" type="line"/>
      <point x="245" y="10" type="line"/>
      <point x="245" y="50" type="line"/>
      <point x="280" y="50" type="line"/>
    </contour>
    <contour>
      <point x="225" y="110" type="line"/>
      <point x="295" y="110" type="line"/>
      <point x="295" y="120" type="line"/>
      <point x="235" y="120" type="line"/>
      <point x="235" y="155" type="line"/>
      <point x="275" y="155" type="line"/>
      <point x="275" y="165" type="line"/>
      <point x="235" y="165" type="line"/>
      <point x="235" y="200" type="line"/>
      <point x="295" y="200" type="line"/>
      <point x="295" y="210" type="line"/>
      <point x="225" y="210" type="line"/>
    </contour>
    <contour>
      <point x="110" y="260" type="line"/>
      <point x="175" y="260" type="line"/>
      <point x="175" y="270" type="line"/>
      <point x="120" y="270" type="line"/>
      <point x="120" y="350" type="line"/>
      <point x="175" y="350" type="line"/>
      <point x="175" y="360" type="line"/>
      <point x="110" y="360" type="line"/>
    </contour>
    <contour>
      <point x="325" y="110" type="line"/>
      <point x="395" y="110" type="line"/>
      <point x="395" y="120" type="line"/>
      <point x="335" y="120" type="line"/>
      <point x="335" y="210" type="line"/>
      <point x="325" y="210" type="line"/>
    </contour>
    <contour>
      <point x="200" y="260" type="line"/>
      <point x="275" y="260" type="line"/>
      <point x="275" y="360" type="line"/>
      <point x="200" y="360" type="line"/>
    </contour>
    <contour>
      <point x="425" y="110" type="line"/>
      <point x="435" y="110" type="line"/>
      <point x="435" y="140" type="line"/>
      <point x="450" y="140" type="line"/>
      <point x="450" y="170" type="line"/>
      <point x="465" y="170" type="line"/>
      <point x="465" y="200" type="line"/>
      <point x="480" y="200" type="line"/>
      <point x="480" y="210" type="line"/>
      <point x="455" y="210" type="line"/>
      <point x="455" y="180" type="line"/>
      <point x="440" y="180" type="line"/>
      <point x="440" y="150" type="line"/>
      <point x="420" y="150" type="line"/>
      <point x="420" y="180" type="line"/>
      <point x="405" y="180" type="line"/>
      <point x="405" y="210" type="line"/>
      <point x="380" y="210" type="line"/>
      <point x="380" y="200" type="line"/>
      <point x="395" y="200" type="line"/>
      <point x="395" y="170" type="line"/>
      <point x="410" y="170" type="line"/>
      <point x="410" y="140" type="line"/>
      <point x="425" y="140" type="line"/>
    </contour>
    <contour>
      <point x="110" y="410" type="line"/>
      <point x="120" y="410" type="line"/>
      <point x="120" y="455" type="line"/>
      <point x="160" y="455" type="line"/>
      <point x="160" y="465" type="line"/>
      <point x="120" y="465" type="line"/>
      <point x="120" y="500" type="line"/>
      <point x="180" y="500" type="line"/>
      <point x="180" y="510" type="line"/>
      <point x="110" y="510" type="line"/>
    </contour>
    <contour>
      <point x="305" y="260" type="line"/>
      <point x="315" y="260" type="line"/>
      <point x="315" y="350" type="line"/>
      <point x="325" y="350" type="line"/>
      <point x="325" y="320" type="line"/>
      <point x="340" y="320" type="line"/>
      <point x="340" y="290" type="line"/>
      <point x="355" y="290" type="line"/>
      <point x="355" y="260" type="line"/>
      <point x="385" y="260" type="line"/>
      <point x="385" y="360" type="line"/>
      <point x="375" y="360" type="line"/>
      <point x="375" y="270" type="line"/>
      <point x="365" y="270" type="line"/>
      <point x="365" y="300" type="line"/>
      <point x="350" y="300" type="line"/>
      <point x="350" y="330" type="line"/>
      <point x="335" y="330" type="line"/>
      <point x="335" y="360" type="line"/>
      <point x="305" y="360" type="line"/>
    </contour>
    <contour>
      <point x="500" y="110" type="line"/>
      <point x="570" y="110" type="line"/>
      <point x="570" y="120" type="line"/>
      <point x="510" y="120" type="line"/>
      <point x="510" y="155" type="line"/>
      <point x="550" y="155" type="line"/>
      <point x="550" y="165" type="line"/>
      <point x="510" y="165" type="line"/>
      <point x="510" y="200" type="line"/>
      <point x="570" y="200" type="line"/>
      <point x="570" y="210" type="line"/>
      <point x="500" y="210" type="line"/>
    </contour>
    <contour>
      <point x="200" y="410" type="line"/>
      <point x="275" y="410" type="line"/>
      <point x="275" y="510" type="line"/>
      <point x="200" y="510" type="line"/>
    </contour>
    <contour>
      <point x="110" y="560" type="line"/>
      <point x="200" y="560" type="line"/>
      <point x="200" y="660" type="line"/>
      <point x="190" y="660" type="line"/>
      <point x="190" y="570" type="line"/>
      <point x="160" y="570" type="line"/>
      <point x="160" y="625" type="line"/>
      <point x="150" y="625" type="line"/>
      <point x="150" y="570" type="line"/>
      <point x="120" y="570" type="line"/>
      <point x="120" y="660" type="line"/>
      <point x="110" y="660" type="line"/>
    </contour>
    <contour>
      <point x="305" y="410" type="line"/>
      <point x="315" y="410" type="line"/>
      <point x="315" y="450" type="line"/>
      <point x="380" y="450" type="line"/>
      <point x="380" y="410" type="line"/>
      <point x="390" y="410" type="line"/>
      <point x="390" y="460" type="line"/>
      <point x="360" y="460" type="line"/>
      <point x="360" y="510" type="line"/>
      <point x="305" y="510" type="line"/>
    </contour>
    <contour>
      <point x="435" y="260" type="line"/>
      <point x="445" y="260" type="line"/>
      <point x="445" y="350" type="line"/>
      <point x="480" y="350" type="line"/>
      <point x="480" y="360" type="line"/>
      <point x="400" y="360" type="line"/>
      <point x="400" y="350" type="line"/>
      <point x="435" y="350" type="line"/>
    </contour>
    <contour>
      <point x="480" y="260" type="line"/>
      <point x="490" y="260" type="line"/>
      <point x="490" y="290" type="line"/>
      <point x="565" y="290" type="line"/>
      <point x="565" y="260" type="line"/>
      <point x="575" y="260" type="line"/>
      <point x="575" y="300" type="line"/>
      <point x="560" y="300" type="line"/>
      <point x="560" y="330" type="line"/>
      <point x="545" y="330" type="line"/>
      <point x="545" y="360" type="line"/>
      <point x="510" y="360" type="line"/>
      <point x="510" y="330" type="line"/>
      <point x="495" y="330" type="line"/>
      <point x="495" y="300" type="line"/>
      <point x="480" y="300" type="line"/>
    </contour>
    <contour>
      <point x="625" y="110" type="line"/>
      <point x="635" y="110" type="line"/>
      <point x="635" y="200" type="line"/>
      <point x="670" y="200" type="line"/>
      <point x="670" y="210" type="line"/>
      <point x="590" y="210" type="line"/>
      <point x="590" y="200" type="line"/>
      <point x="625" y="200" type="line"/>
    </contour>
    <contour>
      <point x="225" y="560" type="line"/>
      <point x="235" y="560" type="line"/>
      <point x="235" y="590" type="line"/>
      <point x="310" y="590" type="line"/>
      <point x="310" y="560" type="line"/>
      <point x="320" y="560" type="line"/>
      <point x="320" y="600" type="line"/>
      <point x="305" y="600" type="line"/>
      <point x="305" y="630" type="line"/>
      <point x="290" y="630" type="line"/>
      <point x="290" y="660" type="line"/>
      <point x="255" y="660" type="line"/>
      <point x="255" y="630" type="line"/>
      <point x="240" y="630" type="line"/>
      <point x="240" y="600" type="line"/>
      <point x="225" y="600" type="line"/>
    </contour>
    <contour>
      <point x="350" y="460" type="line"/>
      <point x="315" y="460" type="line"/>
      <point x="315" y="500" type="line"/>
      <point x="350" y="500" type="line"/>
    </contour>
    <contour>
      <point x="505" y="320" type="line"/>
      <point x="520" y="320" type="line"/>
      <point x="520" y="350" type="line"/>
      <point x="535" y="350" type="line"/>
      <point x="535" y="320" type="line"/>
      <point x="550" y="320" type="line"/>
      <point x="550" y="300" type="line"/>
      <point x="505" y="300" type="line"/>
    </contour>
    <contour>
      <point x="725" y="110" type="line"/>
      <point x="735" y="110" type="line"/>
      <point x="735" y="155" type="line"/>
      <point x="770" y="155" type="line"/>
      <point x="770" y="210" type="line"/>
      <point x="760" y="210" type="line"/>
      <point x="760" y="165" type="line"/>
      <point x="700" y="165" type="line"/>
      <point x="700" y="210" type="line"/>
      <point x="690" y="210" type="line"/>
      <point x="690" y="155" type="line"/>
      <point x="725" y="155" type="line"/>
    </contour>
    <contour>
      <point x="110" y="710" type="line"/>
      <point x="120" y="710" type="line"/>
      <point x="120" y="810" type="line"/>
      <point x="110" y="810" type="line"/>
    </contour>
    <contour>
      <point x="415" y="410" type="line"/>
      <point x="425" y="410" type="line"/>
      <point x="425" y="455" type="line"/>
      <point x="440" y="455" type="line"/>
      <point x="440" y="440" type="line"/>
      <point x="465" y="440" type="line"/>
      <point x="465" y="410" type="line"/>
      <point x="490" y="410" type="line"/>
      <point x="490" y="420" type="line"/>
      <point x="475" y="420" type="line"/>
      <point x="475" y="450" type="line"/>
      <point x="450" y="450" type="line"/>
      <point x="450" y="470" type="line"/>
      <point x="475" y="470" type="line"/>
      <point x="475" y="500" type="line"/>
      <point x="490" y="500" type="line"/>
      <point x="490" y="510" type="line"/>
      <point x="465" y="510" type="line"/>
      <point x="465" y="480" type="line"/>
      <point x="440" y="480" type="line"/>
      <point x="440" y="465" type="line"/>
      <point x="425" y="465" type="line"/>
      <point x="425" y="510" type="line"/>
      <point x="415" y="510" type="line"/>
    </contour>
    <contour>
      <point x="595" y="260" type="line"/>
      <point x="660" y="260" type="line"/>
      <point x="660" y="270" type="line"/>
      <point x="605" y="270" type="line"/>
      <point x="605" y="350" type="line"/>
      <point x="660" y="350" type="line"/>
      <point x="660" y="360" type="line"/>
      <point x="595" y="360" type="line"/>
    </contour>
    <contour>
      <point x="250" y="620" type="line"/>
      <point x="265" y="620" type="line"/>
      <point x="265" y="650" type="line"/>
      <point x="280" y="650" type="line"/>
      <point x="280" y="620" type="line"/>
      <point x="295" y="620" type="line"/>
      <point x="295" y="600" type="line"/>
      <point x="250" y="600" type="line"/>
    </contour>
    <contour>
      <point x="150" y="710" type="line"/>
      <point x="160" y="710" type="line"/>
      <point x="160" y="755" type="line"/>
      <point x="200" y="755" type="line"/>
      <point x="200" y="765" type="line"/>
      <point x="160" y="765" type="line"/>
      <point x="160" y="800" type="line"/>
      <point x="220" y="800" type="line"/>
      <point x="220" y="810" type="line"/>
      <point x="150" y="810" type="line"/>
    </contour>
    <contour>
      <point x="790" y="110" type="line"/>
      <point x="800" y="110" type="line"/>
      <point x="800" y="200" type="line"/>
      <point x="810" y="200" type="line"/>
      <point x="810" y="170" type="line"/>
      <point x="825" y="170" type="line"/>
      <point x="825" y="140" type="line"/>
      <point x="840" y="140" type="line"/>
      <point x="840" y="110" type="line"/>
      <point x="870" y="110" type="line"/>
      <point x="870" y="210" type="line"/>
      <point x="860" y="210" type="line"/>
      <point x="860" y="120" type="line"/>
      <point x="850" y="120" type="line"/>
      <point x="850" y="150" type="line"/>
      <point x="835" y="150" type="line"/>
      <point x="835" y="180" type="line"/>
      <point x="820" y="180" type="line"/>
      <point x="820" y="210" type="line"/>
      <point x="790" y="210" type="line"/>
    </contour>
    <contour>
      <point x="345" y="560" type="line"/>
      <point x="355" y="560" type="line"/>
      <point x="355" y="650" type="line"/>
      <point x="365" y="650" type="line"/>
      <point x="365" y="620" type="line"/>
      <point x="380" y="620" type="line"/>
      <point x="380" y="590" type="line"/>
      <point x="395" y="590" type="line"/>
      <point x="395" y="560" type="line"/>
      <point x="425" y="560" type="line"/>
      <point x="425" y="660" type="line"/>
      <point x="415" y="660" type="line"/>
      <point x="415" y="570" type="line"/>
      <point x="405" y="570" type="line"/>
      <point x="405" y="600" type="line"/>
      <point x="390" y="600" type="line"/>
      <point x="390" y="630" type="line"/>
      <point x="375" y="630" type="line"/>
      <point x="375" y="660" type="line"/>
      <point x="345" y="660" type="line"/>
    </contour>
    <contour>
      <point x="555" y="410" type="line"/>
      <point x="565" y="410" type="line"/>
      <point x="565" y="500" type="line"/>
      <point x="575" y="500" type="line"/>
      <point x="575" y="470" type="line"/>
      <point x="590" y="470" type="line"/>
      <point x="590" y="440" type="line"/>
      <point x="605" y="440" type="line"/>
      <point x="605" y="410" type="line"/>
      <point x="615" y="410" type="line"/>
      <point x="615" y="440" type="line"/>
      <point x="630" y="440" type="line"/>
      <point x="630" y="470" type="line"/>
      <point x="645" y="470" type="line"/>
      <point x="645" y="500" type="line"/>
      <point x="655" y="500" type="line"/>
      <point x="655" y="410" type="line"/>
      <point x="665" y="410" type="line"/>
      <point x="665" y="510" type="line"/>
      <point x="635" y="510" type="line"/>
      <point x="635" y="480" type="line"/>
      <point x="620" y="480" type="line"/>
      <point x="620" y="450" type="line"/>
      <point x="600" y="450" type="line"/>
      <point x="600" y="480" type="line"/>
      <point x="585" y="480" type="line"/>
      <point x="585" y="510" type="line"/>
      <point x="555" y="510" type="line"/>
    </contour>
    <contour>
      <point x="285" y="710" type="line"/>
      <point x="295" y="710" type="line"/>
      <point x="295" y="755" type="line"/>
      <point x="330" y="755" type="line"/>
      <point x="330" y="810" type="line"/>
      <point x="320" y="810" type="line"/>
      <point x="320" y="765" type="line"/>
      <point x="260" y="765" type="line"/>
      <point x="260" y="810" type="line"/>
      <point x="250" y="810" type="line"/>
      <point x="250" y="755" type="line"/>
      <point x="285" y="755" type="line"/>
    </contour>
    <contour>
      <point x="715" y="260" type="line"/>
      <point x="725" y="260" type="line"/>
      <point x="725" y="350" type="line"/>
      <point x="760" y="350" type="line"/>
      <point x="760" y="360" type="line"/>
      <point x="680" y="360" type="line"/>
      <point x="680" y="350" type="line"/>
      <point x="715" y="350" type="line"/>
    </contour>
    <contour>
      <point x="895" y="110" type="line"/>
      <point x="965" y="110" type="line"/>
      <point x="965" y="120" type="line"/>
      <point x="905" y="120" type="line"/>
      <point x="905" y="155" type="line"/>
      <point x="945" y="155" type="line"/>
      <point x="945" y="165" type="line"/>
      <point x="905" y="165" type="line"/>
      <point x="905" y="200" type="line"/>
      <point x="965" y="200" type="line"/>
      <point x="965" y="210" type="line"/>
      <point x="895" y="210" type="line"/>
    </contour>
    <contour>
      <point x="480" y="560" type="line"/>
      <point x="490" y="560" type="line"/>
      <point x="490" y="650" type="line"/>
      <point x="525" y="650" type="line"/>
      <point x="525" y="660" type="line"/>
      <point x="445" y="660" type="line"/>
      <point x="445" y="650" type="line"/>
      <point x="480" y="650" type="line"/>
    </contour>
    <contour>
      <point x="360" y="710" type="line"/>
      <point x="435" y="710" type="line"/>
      <point x="435" y="810" type="line"/>
      <point x="360" y="810" type="line"/>
    </contour>
    <contour>
      <point x="700" y="410" type="line"/>
      <point x="770" y="410" type="line"/>
      <point x="770" y="420" type="line"/>
      <point x="710" y="420" type="line"/>
      <point x="710" y="455" type="line"/>
      <point x="750" y="455" type="line"/>
      <point x="750" y="465" type="line"/>
      <point x="710" y="465" type="line"/>
      <point x="710" y="500" type="line"/>
      <point x="770" y="500" type="line"/>
      <point x="770" y="510" type="line"/>
      <point x="700" y="510" type="line"/>
    </contour>
    <contour>
      <point x="565" y="560" type="line"/>
      <point x="575" y="560" type="line"/>
      <point x="575" y="650" type="line"/>
      <point x="585" y="650" type="line"/>
      <point x="585" y="620" type="line"/>
      <point x="600" y="620" type="line"/>
      <point x="600" y="590" type="line"/>
      <point x="615" y="590" type="line"/>
      <point x="615" y="560" type="line"/>
      <point x="625" y="560" type="line"/>
      <point x="625" y="590" type="line"/>
      <point x="640" y="590" type="line"/>
      <point x="640" y="620" type="line"/>
      <point x="655" y="620" type="line"/>
      <point x="655" y="650" type="line"/>
      <point x="665" y="650" type="line"/>
      <point x="665" y="560" type="line"/>
      <point x="675" y="560" type="line"/>
      <point x="675" y="660" type="line"/>
      <point x="645" y="660" type="line"/>
      <point x="645" y="630" type="line"/>
      <point x="630" y="630" type="line"/>
      <point x="630" y="600" type="line"/>
      <point x="610" y="600" type="line"/>
      <point x="610" y="630" type="line"/>
      <point x="595" y="630" type="line"/>
      <point x="595" y="660" type="line"/>
      <point x="565" y="660" type="line"/>
    </contour>
    <contour>
      <point x="780" y="260" type="line"/>
      <point x="1020" y="260" type="line"/>
      <point x="1020" y="360" type="line"/>
      <point x="780" y="360" type="line"/>
    </contour>
    <contour>
      <point x="465" y="710" type="line"/>
      <point x="545" y="710" type="line"/>
      <point x="545" y="810" type="line"/>
      <point x="535" y="810" type="line"/>
      <point x="535" y="720" type="line"/>
      <point x="475" y="720" type="line"/>
      <point x="475" y="810" type="line"/>
      <point x="465" y="810" type="line"/>
    </contour>
    <contour>
      <point x="830" y="410" type="line"/>
      <point x="905" y="410" type="line"/>
      <point x="905" y="510" type="line"/>
      <point x="830" y="510" type="line"/>
    </contour>
    <contour>
      <point x="705" y="560" type="line"/>
      <point x="780" y="560" type="line"/>
      <point x="780" y="660" type="line"/>
      <point x="705" y="660" type="line"/>
    </contour>
    <contour>
      <point x="935" y="410" type="line"/>
      <point x="945" y="410" type="line"/>
      <point x="945" y="450" type="line"/>
      <point x="1010" y="450" type="line"/>
      <point x="1010" y="410" type="line"/>
      <point x="1020" y="410" type="line"/>
      <point x="1020" y="460" type="line"/>
      <point x="990" y="460" type="line"/>
      <point x="990" y="510" type="line"/>
      <point x="935" y="510" type="line"/>
    </contour>
    <contour>
      <point x="805" y="560" type="line"/>
      <point x="815" y="560" type="line"/>
      <point x="815" y="600" type="line"/>
      <point x="880" y="600" type="line"/>
      <point x="880" y="560" type="line"/>
      <point x="890" y="560" type="line"/>
      <point x="890" y="610" type="line"/>
      <point x="860" y="610" type="line"/>
      <point x="860" y="660" type="line"/>
      <point x="805" y="660" type="line"/>
    </contour>
    <contour>
      <point x="980" y="460" type="line"/>
      <point x="945" y="460" type="line"/>
      <point x="945" y="500" type="line"/>
      <point x="980" y="500" type="line"/>
    </contour>
    <contour>
      <point x="850" y="610" type="line"/>
      <point x="815" y="610" type="line"/>
      <point x="815" y="650" type="line"/>
      <point x="850" y="650" type="line"/>
    </contour>
    <contour>
      <point x="910" y="560" type="line"/>
      <point x="980" y="560" type="line"/>
      <point x="980" y="570" type="line"/>
      <point x="920" y="570" type="line"/>
      <point x="920" y="605" type="line"/>
      <point x="960" y="605" type="line"/>
      <point x="960" y="615" type="line"/>
      <point x="920" y="615" type="line"/>
      <point x="920" y="650" type="line"/>
      <point x="980" y="650" type="line"/>
      <point x="980" y="660" type="line"/>
      <point x="910" y="660" type="line"/>
    </contour>
    <contour>
      <point x="575" y="710" type="line"/>
      <point x="1020" y="710" type="line"/>
      <point x="1020" y="810" type="line"/>
      <point x="575" y="810" type="line"/>
    </contour>
    <contour>
      <point x="1005" y="545" type="line"/>
      <point x="1015" y="545" type="line"/>
      <point x="1015" y="575" type="line"/>
      <point x="1000" y="575" type="line"/>
      <point x="1000" y="560" type="line"/>
      <point x="1005" y="560" type="line"/>
    </contour>
    <contour>
      <point x="210" y="270" type="line"/>
      <point x="210" y="350" type="line"/>
      <point x="265" y="350" type="line"/>
      <point x="265" y="270" type="line"/>
    </contour>
    <contour>
      <point x="210" y="420" type="line"/>
      <point x="210" y="500" type="line"/>
      <point x="265" y="500" type="line"/>
      <point x="265" y="420" type="line"/>
    </contour>
    <contour>
      <point x="370" y="720" type="line"/>
      <point x="370" y="800" type="line"/>
      <point x="425" y="800" type="line"/>
      <point x="425" y="720" type="line"/>
    </contour>
    <contour>
      <point x="715" y="570" type="line"/>
      <point x="715" y="650" type="line"/>
      <point x="770" y="650" type="line"/>
      <point x="770" y="570" type="line"/>
    </contour>
    <contour>
      <point x="840" y="420" type="line"/>
      <point x="840" y="500" type="line"/>
      <point x="895" y="500" type="line"/>
      <point x="895" y="420" type="line"/>
    </contour>
  </outline>
</glyph>
<glyph name="ampersand.ss03" format="2">
  <advance width="931"/>
  <outline>
    <contour>
      <point x="583" y="412" type="curve"/>
      <point x="588" y="402" type="line"/>
      <point x="675" y="482" type="line"/>
      <point x="675" y="507" type="line"/>
      <point x="657" y="486"/>
      <point x="631" y="489"/>
      <point x="617" y="504" type="curve" smooth="yes"/>
      <point x="604" y="517"/>
      <point x="601" y="538"/>
      <point x="622" y="558" type="curve"/>
      <point x="613" y="575" type="line"/>
      <point x="503" y="568" type="line"/>
      <point x="512" y="558" type="line"/>
      <point x="533" y="539"/>
      <point x="566" y="507"/>
      <point x="592" y="475" type="curve" smooth="yes"/>
      <point x="609" y="455"/>
      <point x="607" y="429"/>
    </contour>
    <component base="ampersand"/>
  </outline>
</glyph>
<glyph name="lava" format="2">
  <advance width="984"/>
  <outline>
    <contour>
      <point x="872" y="-15" type="curve" smooth="yes"/>
      <point x="922" y="-13"/>
      <point x="964" y="26"/>
      <point x="964" y="82" type="curve" smooth="yes"/>
      <point x="964" y="121"/>
      <point x="937" y="157"/>
      <point x="895" y="190" type="curve" smooth="yes"/>
      <point x="768" y="290" type="line" smooth="yes"/>
      <point x="625" y="402"/>
      <point x="597" y="362"/>
      <point x="579" y="372" type="curve" smooth="yes"/>
      <point x="563" y="381"/>
      <point x="575" y="396"/>
      <point x="595" y="403" type="curve" smooth="yes"/>
      <point x="676" y="433" type="line" smooth="yes"/>
      <point x="777" y="470"/>
      <point x="685" y="590"/>
      <point x="616" y="500" type="curve" smooth="yes"/>
      <point x="570" y="440" type="line" smooth="yes"/>
      <point x="551" y="415"/>
      <point x="541" y="394"/>
      <point x="522" y="399" type="curve" smooth="yes"/>
      <point x="507" y="403"/>
      <point x="498" y="425"/>
      <point x="513" y="488" type="curve" smooth="yes"/>
      <point x="547" y="628" type="line" smooth="yes"/>
      <point x="583" y="777"/>
      <point x="577" y="843"/>
      <point x="492" y="843" type="curve" smooth="yes"/>
      <point x="407" y="843"/>
      <point x="401" y="777"/>
      <point x="437" y="628" type="curve" smooth="yes"/>
      <point x="471" y="488" type="line" smooth="yes"/>
      <point x="486" y="425"/>
      <point x="477" y="403"/>
      <point x="462" y="399" type="curve" smooth="yes"/>
      <point x="443" y="394"/>
      <point x="433" y="415"/>
      <point x="414" y="440" type="curve" smooth="yes"/>
      <point x="368" y="500" type="line" smooth="yes"/>
      <point x="299" y="590"/>
      <point x="207" y="470"/>
      <point x="308" y="433" type="curve" smooth="yes"/>
      <point x="389" y="403" type="line" smooth="yes"/>
      <point x="409" y="396"/>
      <point x="421" y="381"/>
      <point x="405" y="372" type="curve" smooth="yes"/>
      <point x="387" y="362"/>
      <point x="359" y="402"/>
      <point x="216" y="290" type="curve" smooth="yes"/>
      <point x="89" y="190" type="line" smooth="yes"/>
      <point x="47" y="157"/>
      <point x="20" y="121"/>
      <point x="20" y="82" type="curve" smooth="yes"/>
      <point x="20" y="21"/>
      <point x="66" y="-13"/>
      <point x="117" y="-15" type="curve" smooth="yes"/>
      <point x="161" y="-18"/>
      <point x="209" y="4"/>
      <point x="231" y="52" type="curve" smooth="yes"/>
      <point x="324" y="251" type="line" smooth="yes"/>
      <point x="339" y="283"/>
      <point x="363" y="334"/>
      <point x="405" y="342" type="curve" smooth="yes"/>
      <point x="447" y="350"/>
      <point x="483" y="313"/>
      <point x="467" y="260" type="curve" smooth="yes"/>
      <point x="405" y="52" type="line" smooth="yes"/>
      <point x="361" y="-95"/>
      <point x="427" y="-147"/>
      <point x="492" y="-146" type="curve" smooth="yes"/>
      <point x="557" y="-147"/>
      <point x="623" y="-95"/>
      <point x="579" y="52" type="curve" smooth="yes"/>
      <point x="517" y="260" type="line" smooth="yes"/>
      <point x="501" y="313"/>
      <point x="537" y="350"/>
      <point x="579" y="342" type="curve" smooth="yes"/>
      <point x="621" y="334"/>
      <point x="644" y="283"/>
      <point x="660" y="251" type="curve" smooth="yes"/>
      <point x="763" y="52" type="line" smooth="yes"/>
      <point x="787" y="5"/>
      <point x="819" y="-18"/>
    </contour>
    <contour>
      <point x="265" y="634" type="curve" smooth="yes"/>
      <point x="391" y="540" type="line" smooth="yes"/>
      <point x="403" y="531"/>
      <point x="413" y="544"/>
      <point x="408" y="553" type="curve" smooth="yes"/>
      <point x="345" y="678" type="line" smooth="yes"/>
      <point x="305" y="756"/>
      <point x="238" y="725"/>
      <point x="238" y="680" type="curve" smooth="yes"/>
      <point x="238" y="665"/>
      <point x="245" y="648"/>
    </contour>
    <contour>
      <point x="593" y="540" type="curve" smooth="yes"/>
      <point x="719" y="634" type="line" smooth="yes"/>
      <point x="739" y="648"/>
      <point x="746" y="665"/>
      <point x="746" y="680" type="curve" smooth="yes"/>
      <point x="746" y="725"/>
      <point x="679" y="756"/>
      <point x="639" y="678" type="curve" smooth="yes"/>
      <point x="576" y="553" type="line" smooth="yes"/>
      <point x="571" y="544"/>
      <point x="581" y="531"/>
    </contour>
    <component base="module" xOffset="703" yOffset="-19"/>
    <component base="module" xOffset="-40" yOffset="-19"/>
    <component base="module" xScale="-1" xOffset="652" yOffset="635"/>
    <component base="module" xScale="-1" xOffset="652" yOffset="-129"/>
  </outline>
</glyph>
<glyph name="module" format="2">
  <advance width="321"/>
  <outline>
    <contour>
      <point x="161" y="85" type="curve" smooth="yes"/>
      <point x="145" y="85"/>
      <point x="133" y="97"/>
      <point x="133" y="112" type="curve" smooth="yes"/>
      <point x="133" y="127"/>
      <point x="145" y="140"/>
      <point x="161" y="140" type="curve" smooth="yes"/>
      <point x="176" y="140"/>
      <point x="188" y="127"/>
      <point x="188" y="112" type="curve" smooth="yes"/>
      <point x="188" y="97"/>
      <point x="176" y="85"/>
    </contour>
  </outline>
</glyph>
